OHamburgC-RegularExtended.ufo
<glyph name="exclam" format="2">
  <advance width="234"/>
  <unicode hex="0021"/>
  <outline>
    <contour>
      <point x="118" y="-8" type="curve" smooth="yes"/>
      <point x="141" y="-8"/>
      <point x="156" y="11"/>
      <point x="160" y="34" type="curve" smooth="yes"/>
      <point x="164" y="57"/>
      <point x="145" y="76"/>
      <point x="118" y="76" type="curve" smooth="yes"/>
      <point x="95" y="76"/>
      <point x="76" y="57"/>
      <point x="76" y="34" type="curve" smooth="yes"/>
      <point x="76" y="11"/>
      <point x="95" y="-8"/>
    </contour>
    <contour>
      <point x="88" y="176" type="curve"/>
      <point x="148" y="184" type="line"/>
      <point x="146" y="319"/>
      <point x="155" y="475"/>
      <point x="171" y="630" type="curve"/>
      <point x="63" y="618" type="line"/>
      <point x="81" y="467"/>
      <point x="92" y="307"/>
    </contour>
  </outline>
</glyph>
<glyph name="quotedbl" format="2">
  <advance width="402"/>
  <unicode hex="0022"/>
  <outline>
    <contour>
      <point x="93" y="428" type="line"/>
      <point x="114" y="428" type="line"/>
      <point x="164" y="606" type="line"/>
      <point x="173" y="640"/>
      <point x="158" y="664"/>
      <point x="130" y="664" type="curve" smooth="yes"/>
      <point x="101" y="664"/>
      <point x="83" y="640"/>
      <point x="84" y="606" type="curve"/>
    </contour>
    <contour>
      <point x="244" y="428" type="line"/>
      <point x="265" y="428" type="line"/>
      <point x="315" y="606" type="line"/>
      <point x="324" y="640"/>
      <point x="309" y="664"/>
      <point x="281" y="664" type="curve" smooth="yes"/>
      <point x="252" y="664"/>
      <point x="234" y="640"/>
      <point x="235" y="606" type="curve"/>
    </contour>
  </outline>
</glyph>
<glyph name="dollar" format="2">
  <advance width="505"/>
  <unicode hex="0024"/>
  <anchor x="225" y="0" name="bottom"/>
  <anchor x="250" y="616" name="top"/>
  <outline>
    <contour>
      <point x="217" y="-134" type="line"/>
      <point x="257" y="-134" type="line"/>
      <point x="257" y="766" type="line"/>
      <point x="217" y="766" type="line"/>
    </contour>
    <component base="S"/>
  </outline>
</glyph>
<glyph name="percent" format="2">
  <advance width="684"/>
  <unicode hex="0025"/>
  <outline>
    <contour>
      <point x="104" y="-2" type="line"/>
      <point x="153" y="-2" type="line"/>
      <point x="582" y="614" type="line"/>
      <point x="533" y="614" type="line"/>
    </contour>
    <contour>
      <point x="494" y="-16" type="curve" smooth="yes"/>
      <point x="568" y="-16"/>
      <point x="621" y="54"/>
      <point x="621" y="153" type="curve" smooth="yes"/>
      <point x="621" y="244"/>
      <point x="568" y="308"/>
      <point x="494" y="308" type="curve" smooth="yes"/>
      <point x="419" y="308"/>
      <point x="366" y="242"/>
      <point x="366" y="149" type="curve" smooth="yes"/>
      <point x="366" y="52"/>
      <point x="419" y="-16"/>
    </contour>
    <contour>
      <point x="501" y="10" type="curve" smooth="yes"/>
      <point x="458" y="10"/>
      <point x="428" y="73"/>
      <point x="428" y="161" type="curve" smooth="yes"/>
      <point x="428" y="232"/>
      <point x="453" y="282"/>
      <point x="488" y="282" type="curve" smooth="yes"/>
      <point x="530" y="282"/>
      <point x="559" y="223"/>
      <point x="559" y="139" type="curve" smooth="yes"/>
      <point x="559" y="63"/>
      <point x="535" y="10"/>
    </contour>
    <contour>
      <point x="191" y="304" type="curve" smooth="yes"/>
      <point x="265" y="304"/>
      <point x="318" y="374"/>
      <point x="318" y="473" type="curve" smooth="yes"/>
      <point x="318" y="563"/>
      <point x="265" y="627"/>
      <point x="191" y="627" type="curve" smooth="yes"/>
      <point x="116" y="627"/>
      <point x="63" y="562"/>
      <point x="63" y="469" type="curve" smooth="yes"/>
      <point x="63" y="372"/>
      <point x="116" y="304"/>
    </contour>
    <contour>
      <point x="197" y="330" type="curve" smooth="yes"/>
      <point x="155" y="330"/>
      <point x="125" y="393"/>
      <point x="125" y="481" type="curve" smooth="yes"/>
      <point x="125" y="551"/>
      <point x="150" y="601"/>
      <point x="185" y="601" type="curve" smooth="yes"/>
      <point x="227" y="601"/>
      <point x="256" y="542"/>
      <point x="256" y="459" type="curve" smooth="yes"/>
      <point x="256" y="383"/>
      <point x="232" y="330"/>
    </contour>
  </outline>
</glyph>
<glyph name="ampersand" format="2">
  <advance width="771"/>
  <unicode hex="0026"/>
  <outline>
    <contour>
      <point x="285" y="-11" type="curve" smooth="yes"/>
      <point x="452" y="-11"/>
      <point x="539" y="157"/>
      <point x="648" y="309" type="curve" smooth="yes"/>
      <point x="669" y="339"/>
      <point x="709" y="353"/>
      <point x="742" y="353" type="curve"/>
      <point x="742" y="384" type="line"/>
      <point x="542" y="384" type="line"/>
      <point x="542" y="354" type="line"/>
      <point x="584" y="347"/>
      <point x="595" y="340"/>
      <point x="595" y="326" type="curve" smooth="yes"/>
      <point x="595" y="312"/>
      <point x="583" y="290"/>
      <point x="562" y="254" type="curve" smooth="yes"/>
      <point x="527" y="193"/>
      <point x="425" y="43"/>
      <point x="326" y="43" type="curve" smooth="yes"/>
      <point x="234" y="43"/>
      <point x="164" y="106"/>
      <point x="164" y="199" type="curve" smooth="yes"/>
      <point x="164" y="359"/>
      <point x="436" y="380"/>
      <point x="436" y="532" type="curve" smooth="yes"/>
      <point x="436" y="584"/>
      <point x="383" y="627"/>
      <point x="306" y="627" type="curve" smooth="yes"/>
      <point x="228" y="627"/>
      <point x="172" y="568"/>
      <point x="172" y="484" type="curve" smooth="yes"/>
      <point x="172" y="417"/>
      <point x="232" y="305"/>
      <point x="317" y="213" type="curve" smooth="yes"/>
      <point x="440" y="80"/>
      <point x="564" y="-14"/>
      <point x="635" y="-14" type="curve" smooth="yes"/>
      <point x="682" y="-14"/>
      <point x="728" y="-5"/>
      <point x="750" y="8" type="curve"/>
      <point x="741" y="37" type="line"/>
      <point x="733" y="32"/>
      <point x="724" y="29"/>
      <point x="712" y="28" type="curve" smooth="yes"/>
      <point x="639" y="20"/>
      <point x="497" y="124"/>
      <point x="382" y="258" type="curve" smooth="yes"/>
      <point x="303" y="351"/>
      <point x="236" y="451"/>
      <point x="236" y="511" type="curve" smooth="yes"/>
      <point x="236" y="561"/>
      <point x="258" y="597"/>
      <point x="288" y="597" type="curve" smooth="yes"/>
      <point x="337" y="597"/>
      <point x="356" y="545"/>
      <point x="356" y="500" type="curve" smooth="yes"/>
      <point x="356" y="381"/>
      <point x="84" y="371"/>
      <point x="84" y="153" type="curve" smooth="yes"/>
      <point x="84" y="51"/>
      <point x="168" y="-11"/>
    </contour>
  </outline>
</glyph>
<glyph name="quotesingle" format="2">
  <advance width="258"/>
  <unicode hex="0027"/>
  <outline>
    <contour>
      <point x="84" y="428" type="line"/>
      <point x="105" y="428" type="line"/>
      <point x="171" y="606" type="line"/>
      <point x="180" y="640"/>
      <point x="165" y="664"/>
      <point x="137" y="664" type="curve" smooth="yes"/>
      <point x="108" y="664"/>
      <point x="90" y="640"/>
      <point x="91" y="606" type="curve"/>
    </contour>
  </outline>
</glyph>
<glyph name="parenleft" format="2">
  <advance width="285"/>
  <unicode hex="0028"/>
  <outline>
    <contour>
      <point x="146" y="281" type="curve" smooth="yes"/>
      <point x="146" y="437"/>
      <point x="200" y="607"/>
      <point x="264" y="692" type="curve"/>
      <point x="245" y="720" type="line"/>
      <point x="152" y="634"/>
      <point x="84" y="452"/>
      <point x="84" y="281" type="curve" smooth="yes"/>
      <point x="84" y="110"/>
      <point x="152" y="-72"/>
      <point x="245" y="-158" type="curve"/>
      <point x="264" y="-130" type="line"/>
      <point x="200" y="-45"/>
      <point x="146" y="125"/>
    </contour>
  </outline>
</glyph>
<glyph name="parenright" format="2">
  <advance width="285"/>
  <unicode hex="0029"/>
  <outline>
    <contour>
      <point x="139" y="281" type="curve" smooth="yes"/>
      <point x="139" y="125"/>
      <point x="85" y="-45"/>
      <point x="21" y="-130" type="curve"/>
      <point x="40" y="-158" type="line"/>
      <point x="133" y="-72"/>
      <point x="201" y="110"/>
      <point x="201" y="281" type="curve" smooth="yes"/>
      <point x="201" y="452"/>
      <point x="133" y="634"/>
      <point x="40" y="720" type="curve"/>
      <point x="21" y="692" type="line"/>
      <point x="85" y="607"/>
      <point x="139" y="437"/>
    </contour>
  </outline>
</glyph>
<glyph name="asterisk" format="2">
  <advance width="336"/>
  <unicode hex="002A"/>
  <outline>
    <contour>
      <point x="165" y="530" type="curve" smooth="yes"/>
      <point x="171" y="530" type="line"/>
      <point x="171" y="537"/>
      <point x="192" y="581"/>
      <point x="192" y="596" type="curve" smooth="yes"/>
      <point x="192" y="613"/>
      <point x="181" y="624"/>
      <point x="166" y="624" type="curve" smooth="yes"/>
      <point x="150" y="624"/>
      <point x="139" y="614"/>
      <point x="139" y="597" type="curve" smooth="yes"/>
      <point x="139" y="585"/>
      <point x="165" y="538"/>
    </contour>
    <contour>
      <point x="189" y="524" type="curve" smooth="yes"/>
      <point x="194" y="519" type="line"/>
      <point x="199" y="524"/>
      <point x="243" y="539"/>
      <point x="255" y="552" type="curve"/>
      <point x="266" y="563"/>
      <point x="267" y="579"/>
      <point x="256" y="590" type="curve" smooth="yes"/>
      <point x="245" y="600"/>
      <point x="229" y="600"/>
      <point x="218" y="589" type="curve" smooth="yes"/>
      <point x="209" y="581"/>
      <point x="194" y="529"/>
    </contour>
    <contour>
      <point x="200" y="501" type="curve" smooth="yes"/>
      <point x="200" y="494" type="line"/>
      <point x="207" y="494"/>
      <point x="249" y="473"/>
      <point x="266" y="473" type="curve" smooth="yes"/>
      <point x="282" y="473"/>
      <point x="294" y="485"/>
      <point x="294" y="500" type="curve" smooth="yes"/>
      <point x="294" y="515"/>
      <point x="282" y="526"/>
      <point x="267" y="526" type="curve" smooth="yes"/>
      <point x="254" y="526"/>
      <point x="208" y="501"/>
    </contour>
    <contour>
      <point x="194" y="479" type="curve" smooth="yes"/>
      <point x="189" y="473" type="line"/>
      <point x="194" y="468"/>
      <point x="209" y="424"/>
      <point x="220" y="411" type="curve" smooth="yes"/>
      <point x="233" y="400"/>
      <point x="248" y="399"/>
      <point x="260" y="410" type="curve" smooth="yes"/>
      <point x="270" y="422"/>
      <point x="270" y="437"/>
      <point x="259" y="449" type="curve" smooth="yes"/>
      <point x="249" y="458"/>
      <point x="199" y="472"/>
    </contour>
    <contour>
      <point x="172" y="467" type="curve" smooth="yes"/>
      <point x="165" y="467" type="line"/>
      <point x="165" y="459"/>
      <point x="144" y="417"/>
      <point x="144" y="400" type="curve" smooth="yes"/>
      <point x="144" y="384"/>
      <point x="155" y="372"/>
      <point x="171" y="372" type="curve" smooth="yes"/>
      <point x="186" y="372"/>
      <point x="197" y="383"/>
      <point x="197" y="399" type="curve" smooth="yes"/>
      <point x="197" y="411"/>
      <point x="172" y="458"/>
    </contour>
    <contour>
      <point x="148" y="472" type="curve" smooth="yes"/>
      <point x="143" y="477" type="line"/>
      <point x="138" y="472"/>
      <point x="94" y="457"/>
      <point x="82" y="446" type="curve"/>
      <point x="70" y="433"/>
      <point x="70" y="418"/>
      <point x="80" y="406" type="curve" smooth="yes"/>
      <point x="92" y="396"/>
      <point x="107" y="396"/>
      <point x="118" y="407" type="curve" smooth="yes"/>
      <point x="128" y="417"/>
      <point x="142" y="467"/>
    </contour>
    <contour>
      <point x="137" y="496" type="curve" smooth="yes"/>
      <point x="137" y="502" type="line"/>
      <point x="130" y="502"/>
      <point x="86" y="523"/>
      <point x="71" y="523" type="curve" smooth="yes"/>
      <point x="53" y="523"/>
      <point x="42" y="512"/>
      <point x="42" y="496" type="curve" smooth="yes"/>
      <point x="42" y="482"/>
      <point x="53" y="470"/>
      <point x="70" y="470" type="curve" smooth="yes"/>
      <point x="82" y="470"/>
      <point x="129" y="496"/>
    </contour>
    <contour>
      <point x="143" y="519" type="curve" smooth="yes"/>
      <point x="148" y="523" type="line"/>
      <point x="142" y="529"/>
      <point x="128" y="572"/>
      <point x="115" y="585" type="curve" smooth="yes"/>
      <point x="104" y="596"/>
      <point x="87" y="597"/>
      <point x="77" y="586" type="curve" smooth="yes"/>
      <point x="66" y="576"/>
      <point x="66" y="559"/>
      <point x="78" y="548" type="curve" smooth="yes"/>
      <point x="86" y="539"/>
      <point x="137" y="524"/>
    </contour>
  </outline>
</glyph>
<glyph name="plus" format="2">
  <advance width="612"/>
  <unicode hex="002B"/>
  <outline>
    <contour>
      <point x="280" y="28" type="line"/>
      <point x="330" y="28" type="line"/>
      <point x="330" y="256" type="line"/>
      <point x="549" y="256" type="line"/>
      <point x="549" y="306" type="line"/>
      <point x="330" y="306" type="line"/>
      <point x="330" y="528" type="line"/>
      <point x="280" y="528" type="line"/>
      <point x="280" y="306" type="line"/>
      <point x="63" y="306" type="line"/>
      <point x="63" y="256" type="line"/>
      <point x="280" y="256" type="line"/>
    </contour>
  </outline>
</glyph>
<glyph name="hyphen" format="2">
  <advance width="336"/>
  <unicode hex="002D"/>
  <outline>
    <contour>
      <point x="45" y="186" type="line"/>
      <point x="291" y="190" type="line"/>
      <point x="294" y="253" type="line"/>
      <point x="245" y="253" type="line"/>
      <point x="83" y="239" type="line"/>
      <point x="42" y="231" type="line"/>
    </contour>
  </outline>
</glyph>
<glyph name="period" format="2">
  <advance width="252"/>
  <unicode hex="002E"/>
  <outline>
    <contour>
      <point x="126" y="-6" type="curve" smooth="yes"/>
      <point x="163" y="-6"/>
      <point x="189" y="20"/>
      <point x="189" y="56" type="curve" smooth="yes"/>
      <point x="189" y="92"/>
      <point x="163" y="118"/>
      <point x="126" y="118" type="curve" smooth="yes"/>
      <point x="89" y="118"/>
      <point x="63" y="92"/>
      <point x="63" y="56" type="curve" smooth="yes"/>
      <point x="63" y="20"/>
      <point x="89" y="-6"/>
    </contour>
  </outline>
</glyph>
<glyph name="slash" format="2">
  <advance width="408"/>
  <unicode hex="002F"/>
  <outline>
    <contour>
      <point x="42" y="-162" type="line"/>
      <point x="95" y="-162" type="line"/>
      <point x="366" y="694" type="line"/>
      <point x="313" y="694" type="line"/>
    </contour>
  </outline>
</glyph>
<glyph name="zero" format="2">
  <advance width="551"/>
  <unicode hex="0030"/>
  <outline>
    <contour>
      <point x="273" y="-11" type="curve" smooth="yes"/>
      <point x="411" y="-11"/>
      <point x="509" y="127"/>
      <point x="509" y="321" type="curve" smooth="yes"/>
      <point x="509" y="500"/>
      <point x="411" y="626"/>
      <point x="273" y="626" type="curve" smooth="yes"/>
      <point x="138" y="626"/>
      <point x="42" y="500"/>
      <point x="42" y="321" type="curve" smooth="yes"/>
      <point x="42" y="127"/>
      <point x="138" y="-11"/>
    </contour>
    <contour>
      <point x="301" y="28" type="curve" smooth="yes"/>
      <point x="215" y="21"/>
      <point x="138" y="137"/>
      <point x="124" y="308" type="curve" smooth="yes"/>
      <point x="114" y="462"/>
      <point x="167" y="577"/>
      <point x="243" y="585" type="curve" smooth="yes"/>
      <point x="336" y="592"/>
      <point x="418" y="487"/>
      <point x="427" y="332" type="curve" smooth="yes"/>
      <point x="439" y="162"/>
      <point x="381" y="37"/>
    </contour>
  </outline>
</glyph>
<glyph name="one" format="2">
  <advance width="559"/>
  <unicode hex="0031"/>
  <outline>
    <contour>
      <point x="139" y="0" type="line"/>
      <point x="219" y="3"/>
      <point x="358" y="3"/>
      <point x="457" y="0" type="curve"/>
      <point x="457" y="29" type="line"/>
      <point x="405" y="33"/>
      <point x="370" y="37"/>
      <point x="360" y="44" type="curve" smooth="yes"/>
      <point x="342" y="56"/>
      <point x="329" y="63"/>
      <point x="328" y="105" type="curve" smooth="yes"/>
      <point x="327" y="138"/>
      <point x="328" y="392"/>
      <point x="328" y="465" type="curve" smooth="yes"/>
      <point x="328" y="516"/>
      <point x="330" y="588"/>
      <point x="334" y="628" type="curve"/>
      <point x="116" y="557" type="line"/>
      <point x="116" y="524" type="line"/>
      <point x="172" y="540"/>
      <point x="252" y="554"/>
      <point x="252" y="494" type="curve" smooth="yes"/>
      <point x="252" y="434"/>
      <point x="253" y="124"/>
      <point x="252" y="101" type="curve" smooth="yes"/>
      <point x="251" y="68"/>
      <point x="235" y="58"/>
      <point x="218" y="47" type="curve" smooth="yes"/>
      <point x="207" y="40"/>
      <point x="190" y="34"/>
      <point x="139" y="29" type="curve"/>
    </contour>
  </outline>
</glyph>
<glyph name="two" format="2">
  <advance width="499"/>
  <unicode hex="0032"/>
  <outline>
    <contour>
      <point x="32" y="-4" type="line"/>
      <point x="164" y="4"/>
      <point x="357" y="4"/>
      <point x="428" y="-4" type="curve"/>
      <point x="457" y="91" type="line"/>
      <point x="447" y="90" type="line"/>
      <point x="385" y="60"/>
      <point x="183" y="60"/>
      <point x="90" y="60" type="curve"/>
      <point x="89" y="43" type="line"/>
      <point x="324" y="251"/>
      <point x="430" y="339"/>
      <point x="430" y="480" type="curve" smooth="yes"/>
      <point x="430" y="567"/>
      <point x="362" y="628"/>
      <point x="267" y="628" type="curve" smooth="yes"/>
      <point x="191" y="628"/>
      <point x="103" y="579"/>
      <point x="54" y="509" type="curve"/>
      <point x="79" y="487" type="line"/>
      <point x="121" y="532"/>
      <point x="174" y="571"/>
      <point x="211" y="571" type="curve" smooth="yes"/>
      <point x="296" y="571"/>
      <point x="353" y="522"/>
      <point x="353" y="453" type="curve" smooth="yes"/>
      <point x="353" y="322"/>
      <point x="269" y="256"/>
      <point x="21" y="26" type="curve"/>
    </contour>
  </outline>
</glyph>
<glyph name="three" format="2">
  <advance width="491"/>
  <unicode hex="0033"/>
  <outline>
    <contour>
      <point x="54" y="-32" type="line"/>
      <point x="273" y="4"/>
      <point x="428" y="124"/>
      <point x="428" y="258" type="curve" smooth="yes"/>
      <point x="428" y="326"/>
      <point x="373" y="374"/>
      <point x="295" y="374" type="curve" smooth="yes"/>
      <point x="255" y="374"/>
      <point x="207" y="367"/>
      <point x="178" y="356" type="curve" smooth="yes"/>
      <point x="199" y="365"/>
      <point x="171" y="362"/>
      <point x="110" y="347" type="curve"/>
      <point x="129" y="316" type="line"/>
      <point x="158" y="325"/>
      <point x="195" y="334"/>
      <point x="214" y="334" type="curve" smooth="yes"/>
      <point x="296" y="334"/>
      <point x="347" y="290"/>
      <point x="347" y="228" type="curve" smooth="yes"/>
      <point x="347" y="125"/>
      <point x="225" y="37"/>
      <point x="42" y="7" type="curve"/>
    </contour>
    <contour>
      <point x="129" y="316" type="line"/>
      <point x="144" y="322"/>
      <point x="171" y="348"/>
      <point x="200" y="359" type="curve" smooth="yes"/>
      <point x="318" y="402"/>
      <point x="402" y="476"/>
      <point x="402" y="537" type="curve" smooth="yes"/>
      <point x="402" y="589"/>
      <point x="348" y="625"/>
      <point x="271" y="625" type="curve" smooth="yes"/>
      <point x="210" y="625"/>
      <point x="127" y="591"/>
      <point x="72" y="544" type="curve"/>
      <point x="93" y="514" type="line"/>
      <point x="135" y="542"/>
      <point x="191" y="569"/>
      <point x="229" y="569" type="curve" smooth="yes"/>
      <point x="280" y="569"/>
      <point x="313" y="544"/>
      <point x="313" y="508" type="curve" smooth="yes"/>
      <point x="313" y="448"/>
      <point x="231" y="382"/>
      <point x="110" y="347" type="curve"/>
    </contour>
  </outline>
</glyph>
<glyph name="four" format="2">
  <advance width="515"/>
  <unicode hex="0034"/>
  <outline>
    <contour>
      <point x="310" y="1" type="curve"/>
      <point x="387" y="1" type="line"/>
      <point x="387" y="167"/>
      <point x="387" y="411"/>
      <point x="392" y="616" type="curve"/>
      <point x="343" y="616" type="line"/>
      <point x="21" y="210" type="line"/>
      <point x="21" y="173" type="line"/>
      <point x="183" y="173"/>
      <point x="311" y="167"/>
      <point x="473" y="164" type="curve"/>
      <point x="473" y="219" type="line"/>
      <point x="322" y="216"/>
      <point x="204" y="213"/>
      <point x="53" y="213" type="curve"/>
      <point x="59" y="196" type="line"/>
      <point x="343" y="557" type="line"/>
      <point x="321" y="554" type="line"/>
      <point x="310" y="376"/>
      <point x="310" y="155"/>
    </contour>
  </outline>
</glyph>
<glyph name="five" format="2">
  <advance width="574"/>
  <unicode hex="0035"/>
  <outline>
    <contour>
      <point x="100" y="-35" type="line"/>
      <point x="279" y="4"/>
      <point x="410" y="115"/>
      <point x="410" y="247" type="curve" smooth="yes"/>
      <point x="410" y="343"/>
      <point x="309" y="418"/>
      <point x="161" y="458" type="curve"/>
      <point x="163" y="434" type="line"/>
      <point x="225" y="595" type="line"/>
      <point x="188" y="558" type="line"/>
      <point x="238" y="565"/>
      <point x="393" y="555"/>
      <point x="446" y="538" type="curve"/>
      <point x="456" y="532" type="line"/>
      <point x="490" y="625" type="line"/>
      <point x="393" y="621"/>
      <point x="243" y="619"/>
      <point x="199" y="625" type="curve"/>
      <point x="111" y="401" type="line"/>
      <point x="254" y="357"/>
      <point x="336" y="281"/>
      <point x="336" y="215" type="curve" smooth="yes"/>
      <point x="336" y="120"/>
      <point x="229" y="40"/>
      <point x="84" y="-2" type="curve"/>
    </contour>
  </outline>
</glyph>
<glyph name="six" format="2">
  <advance width="506"/>
  <unicode hex="0036"/>
  <outline>
    <contour>
      <point x="267" y="-11" type="curve" smooth="yes"/>
      <point x="382" y="-11"/>
      <point x="464" y="75"/>
      <point x="464" y="197" type="curve" smooth="yes"/>
      <point x="464" y="302"/>
      <point x="384" y="377"/>
      <point x="270" y="377" type="curve" smooth="yes"/>
      <point x="230" y="377"/>
      <point x="185" y="362"/>
      <point x="161" y="340" type="curve"/>
      <point x="176" y="321" type="line"/>
      <point x="192" y="330"/>
      <point x="215" y="337"/>
      <point x="233" y="337" type="curve" smooth="yes"/>
      <point x="317" y="337"/>
      <point x="378" y="268"/>
      <point x="378" y="173" type="curve" smooth="yes"/>
      <point x="378" y="89"/>
      <point x="330" y="30"/>
      <point x="266" y="30" type="curve" smooth="yes"/>
      <point x="189" y="30"/>
      <point x="128" y="133"/>
      <point x="128" y="279" type="curve" smooth="yes"/>
      <point x="128" y="413"/>
      <point x="237" y="541"/>
      <point x="386" y="588" type="curve"/>
      <point x="373" y="627" type="line"/>
      <point x="179" y="566"/>
      <point x="42" y="409"/>
      <point x="42" y="247" type="curve" smooth="yes"/>
      <point x="42" y="96"/>
      <point x="135" y="-11"/>
    </contour>
  </outline>
</glyph>
<glyph name="seven" format="2">
  <advance width="497"/>
  <unicode hex="0037"/>
  <outline>
    <contour>
      <point x="98" y="-44" type="line"/>
      <point x="149" y="-75" type="line"/>
      <point x="476" y="608" type="line"/>
      <point x="469" y="623" type="line"/>
      <point x="347" y="613"/>
      <point x="151" y="613"/>
      <point x="80" y="621" type="curve"/>
      <point x="42" y="516" type="line"/>
      <point x="51" y="512" type="line"/>
      <point x="117" y="539"/>
      <point x="213" y="553"/>
      <point x="413" y="539" type="curve"/>
      <point x="427" y="579" type="line"/>
    </contour>
  </outline>
</glyph>
<glyph name="eight" format="2">
  <advance width="534"/>
  <unicode hex="0038"/>
  <outline>
    <contour>
      <point x="260" y="-11" type="line"/>
      <point x="384" y="-11"/>
      <point x="471" y="67"/>
      <point x="471" y="177" type="curve"/>
      <point x="471" y="324"/>
      <point x="134" y="367"/>
      <point x="134" y="482" type="curve" smooth="yes"/>
      <point x="134" y="546"/>
      <point x="200" y="591"/>
      <point x="267" y="591" type="curve"/>
      <point x="267" y="625" type="line"/>
      <point x="164" y="625"/>
      <point x="73" y="552"/>
      <point x="73" y="450" type="curve" smooth="yes"/>
      <point x="73" y="295"/>
      <point x="412" y="243"/>
      <point x="412" y="146" type="curve"/>
      <point x="412" y="75"/>
      <point x="349" y="24"/>
      <point x="260" y="24" type="curve"/>
    </contour>
    <contour>
      <point x="260" y="-11" type="curve"/>
      <point x="260" y="24" type="line"/>
      <point x="186" y="24"/>
      <point x="134" y="80"/>
      <point x="134" y="160" type="curve" smooth="yes"/>
      <point x="134" y="207"/>
      <point x="185" y="269"/>
      <point x="258" y="309" type="curve"/>
      <point x="222" y="323" type="line"/>
      <point x="129" y="276"/>
      <point x="63" y="205"/>
      <point x="63" y="152" type="curve" smooth="yes"/>
      <point x="63" y="57"/>
      <point x="145" y="-11"/>
    </contour>
    <contour>
      <point x="267" y="625" type="curve"/>
      <point x="267" y="591" type="line"/>
      <point x="330" y="591"/>
      <point x="374" y="545"/>
      <point x="374" y="481" type="curve" smooth="yes"/>
      <point x="374" y="434"/>
      <point x="329" y="376"/>
      <point x="265" y="341" type="curve"/>
      <point x="302" y="327" type="line"/>
      <point x="386" y="369"/>
      <point x="446" y="436"/>
      <point x="446" y="489" type="curve" smooth="yes"/>
      <point x="446" y="569"/>
      <point x="372" y="625"/>
    </contour>
  </outline>
</glyph>
<glyph name="nine" format="2">
  <advance width="548"/>
  <unicode hex="0039"/>
  <outline>
    <contour>
      <point x="260" y="627" type="curve" smooth="yes"/>
      <point x="145" y="627"/>
      <point x="63" y="541"/>
      <point x="63" y="419" type="curve" smooth="yes"/>
      <point x="63" y="314"/>
      <point x="143" y="239"/>
      <point x="257" y="239" type="curve" smooth="yes"/>
      <point x="297" y="239"/>
      <point x="342" y="254"/>
      <point x="366" y="276" type="curve"/>
      <point x="351" y="295" type="line"/>
      <point x="335" y="286"/>
      <point x="312" y="279"/>
      <point x="294" y="279" type="curve" smooth="yes"/>
      <point x="210" y="279"/>
      <point x="149" y="348"/>
      <point x="149" y="443" type="curve" smooth="yes"/>
      <point x="149" y="527"/>
      <point x="197" y="586"/>
      <point x="261" y="586" type="curve" smooth="yes"/>
      <point x="338" y="586"/>
      <point x="398" y="483"/>
      <point x="398" y="337" type="curve" smooth="yes"/>
      <point x="398" y="203"/>
      <point x="290" y="71"/>
      <point x="141" y="24" type="curve"/>
      <point x="154" y="-11" type="line"/>
      <point x="348" y="50"/>
      <point x="485" y="207"/>
      <point x="485" y="369" type="curve" smooth="yes"/>
      <point x="485" y="520"/>
      <point x="392" y="627"/>
    </contour>
  </outline>
</glyph>
<glyph name="colon" format="2">
  <advance width="252"/>
  <unicode hex="003A"/>
  <outline>
    <contour>
      <point x="132" y="213" type="curve" smooth="yes"/>
      <point x="163" y="213"/>
      <point x="189" y="234"/>
      <point x="189" y="259" type="curve" smooth="yes"/>
      <point x="189" y="284"/>
      <point x="163" y="305"/>
      <point x="132" y="305" type="curve" smooth="yes"/>
      <point x="101" y="305"/>
      <point x="77" y="284"/>
      <point x="77" y="259" type="curve" smooth="yes"/>
      <point x="77" y="234"/>
      <point x="101" y="213"/>
    </contour>
    <contour>
      <point x="120" y="-5" type="curve" smooth="yes"/>
      <point x="152" y="-5"/>
      <point x="175" y="16"/>
      <point x="175" y="41" type="curve" smooth="yes"/>
      <point x="175" y="66"/>
      <point x="152" y="87"/>
      <point x="120" y="87" type="curve" smooth="yes"/>
      <point x="89" y="87"/>
      <point x="63" y="66"/>
      <point x="63" y="41" type="curve" smooth="yes"/>
      <point x="63" y="16"/>
      <point x="89" y="-5"/>
    </contour>
  </outline>
</glyph>
<glyph name="semicolon" format="2">
  <advance width="270"/>
  <unicode hex="003B"/>
  <outline>
    <contour>
      <point x="72" y="-147" type="curve"/>
      <point x="81" y="-176" type="line"/>
      <point x="147" y="-146"/>
      <point x="194" y="-68"/>
      <point x="194" y="12" type="curve" smooth="yes"/>
      <point x="194" y="59"/>
      <point x="164" y="92"/>
      <point x="122" y="92" type="curve" smooth="yes"/>
      <point x="88" y="92"/>
      <point x="63" y="73"/>
      <point x="63" y="44" type="curve" smooth="yes"/>
      <point x="63" y="17"/>
      <point x="76" y="-3"/>
      <point x="95" y="-3" type="curve" smooth="yes"/>
      <point x="112" y="-3"/>
      <point x="115" y="5"/>
      <point x="130" y="5" type="curve" smooth="yes"/>
      <point x="143" y="5"/>
      <point x="151" y="-12"/>
      <point x="151" y="-37" type="curve" smooth="yes"/>
      <point x="151" y="-88"/>
      <point x="118" y="-134"/>
    </contour>
    <contour>
      <point x="154" y="213" type="curve" smooth="yes"/>
      <point x="185" y="213"/>
      <point x="207" y="233"/>
      <point x="207" y="258" type="curve" smooth="yes"/>
      <point x="207" y="281"/>
      <point x="185" y="300"/>
      <point x="154" y="300" type="curve" smooth="yes"/>
      <point x="125" y="300"/>
      <point x="100" y="281"/>
      <point x="100" y="258" type="curve" smooth="yes"/>
      <point x="100" y="233"/>
      <point x="125" y="213"/>
    </contour>
  </outline>
</glyph>
<glyph name="less" format="2">
  <advance width="612"/>
  <unicode hex="003C"/>
  <outline>
    <contour>
      <point x="526" y="65" type="line"/>
      <point x="549" y="110" type="line"/>
      <point x="109" y="278" type="line"/>
      <point x="548" y="448" type="line"/>
      <point x="527" y="494" type="line"/>
      <point x="63" y="310" type="line"/>
      <point x="63" y="247" type="line"/>
    </contour>
  </outline>
</glyph>
<glyph name="equal" format="2">
  <advance width="612"/>
  <unicode hex="003D"/>
  <outline>
    <contour>
      <point x="63" y="323" type="line"/>
      <point x="549" y="323" type="line"/>
      <point x="549" y="373" type="line"/>
      <point x="63" y="373" type="line"/>
    </contour>
    <contour>
      <point x="63" y="193" type="line"/>
      <point x="549" y="193" type="line"/>
      <point x="549" y="243" type="line"/>
      <point x="63" y="243" type="line"/>
    </contour>
  </outline>
</glyph>
<glyph name="greater" format="2">
  <advance width="612"/>
  <unicode hex="003E"/>
  <outline>
    <contour>
      <point x="86" y="65" type="line"/>
      <point x="549" y="247" type="line"/>
      <point x="549" y="310" type="line"/>
      <point x="85" y="494" type="line"/>
      <point x="64" y="448" type="line"/>
      <point x="503" y="278" type="line"/>
      <point x="63" y="110" type="line"/>
    </contour>
  </outline>
</glyph>
<glyph name="question" format="2">
  <advance width="417"/>
  <unicode hex="003F"/>
  <outline>
    <contour>
      <point x="206" y="170" type="curve" smooth="yes"/>
      <point x="215" y="170"/>
      <point x="248" y="184"/>
      <point x="287" y="203" type="curve"/>
      <point x="285" y="216" type="line"/>
      <point x="253" y="217" type="line" smooth="yes"/>
      <point x="228" y="218"/>
      <point x="210" y="236"/>
      <point x="210" y="260" type="curve" smooth="yes"/>
      <point x="210" y="347"/>
      <point x="352" y="346"/>
      <point x="354" y="466" type="curve"/>
      <point x="354" y="527"/>
      <point x="311" y="571"/>
      <point x="250" y="571" type="curve" smooth="yes"/>
      <point x="221" y="571"/>
      <point x="177" y="554"/>
      <point x="138" y="530" type="curve" smooth="yes"/>
      <point x="106" y="508"/>
      <point x="84" y="471"/>
      <point x="84" y="440" type="curve" smooth="yes"/>
      <point x="84" y="409"/>
      <point x="156" y="423"/>
      <point x="156" y="454" type="curve" smooth="yes"/>
      <point x="156" y="470"/>
      <point x="149" y="466"/>
      <point x="149" y="481" type="curve" smooth="yes"/>
      <point x="149" y="508"/>
      <point x="172" y="527"/>
      <point x="200" y="527" type="curve" smooth="yes"/>
      <point x="250" y="527"/>
      <point x="279" y="500"/>
      <point x="278" y="460" type="curve" smooth="yes"/>
      <point x="273" y="317"/>
      <point x="138" y="317"/>
      <point x="138" y="233" type="curve" smooth="yes"/>
      <point x="138" y="196"/>
      <point x="170" y="170"/>
    </contour>
    <contour>
      <point x="215" y="-6" type="curve" smooth="yes"/>
      <point x="237" y="-6"/>
      <point x="255" y="12"/>
      <point x="255" y="34" type="curve" smooth="yes"/>
      <point x="255" y="56"/>
      <point x="237" y="74"/>
      <point x="215" y="74" type="curve" smooth="yes"/>
      <point x="193" y="74"/>
      <point x="175" y="56"/>
      <point x="175" y="34" type="curve" smooth="yes"/>
      <point x="175" y="12"/>
      <point x="193" y="-6"/>
    </contour>
  </outline>
</glyph>
<glyph name="at" format="2">
  <advance width="792"/>
  <unicode hex="0040"/>
  <outline>
    <contour>
      <point x="417" y="-118" type="curve" smooth="yes"/>
      <point x="513" y="-118"/>
      <point x="622" y="-72"/>
      <point x="679" y="-7" type="curve"/>
      <point x="662" y="14" type="line"/>
      <point x="610" y="-46"/>
      <point x="509" y="-88"/>
      <point x="417" y="-88" type="curve" smooth="yes"/>
      <point x="227" y="-88"/>
      <point x="93" y="47"/>
      <point x="93" y="238" type="curve" smooth="yes"/>
      <point x="93" y="437"/>
      <point x="227" y="578"/>
      <point x="417" y="578" type="curve" smooth="yes"/>
      <point x="583" y="578"/>
      <point x="699" y="466"/>
      <point x="699" y="308" type="curve" smooth="yes"/>
      <point x="699" y="183"/>
      <point x="644" y="95"/>
      <point x="565" y="95" type="curve" smooth="yes"/>
      <point x="527" y="95"/>
      <point x="503" y="110"/>
      <point x="507" y="130" type="curve" smooth="yes"/>
      <point x="562" y="393" type="line"/>
      <point x="548" y="416"/>
      <point x="494" y="432"/>
      <point x="432" y="432" type="curve" smooth="yes"/>
      <point x="304" y="432"/>
      <point x="214" y="333"/>
      <point x="214" y="193" type="curve" smooth="yes"/>
      <point x="214" y="114"/>
      <point x="271" y="58"/>
      <point x="352" y="58" type="curve" smooth="yes"/>
      <point x="381" y="58"/>
      <point x="421" y="79"/>
      <point x="449" y="109" type="curve"/>
      <point x="456" y="82"/>
      <point x="497" y="63"/>
      <point x="549" y="63" type="curve" smooth="yes"/>
      <point x="655" y="63"/>
      <point x="729" y="165"/>
      <point x="729" y="308" type="curve" smooth="yes"/>
      <point x="729" y="484"/>
      <point x="600" y="608"/>
      <point x="417" y="608" type="curve" smooth="yes"/>
      <point x="210" y="608"/>
      <point x="63" y="455"/>
      <point x="63" y="238" type="curve" smooth="yes"/>
      <point x="63" y="29"/>
      <point x="210" y="-118"/>
    </contour>
    <contour>
      <point x="285" y="211" type="curve" smooth="yes"/>
      <point x="285" y="319"/>
      <point x="338" y="396"/>
      <point x="412" y="396" type="curve" smooth="yes"/>
      <point x="442" y="396"/>
      <point x="475" y="387"/>
      <point x="492" y="374" type="curve"/>
      <point x="443" y="140" type="line"/>
      <point x="414" y="117"/>
      <point x="384" y="100"/>
      <point x="370" y="100" type="curve" smooth="yes"/>
      <point x="320" y="100"/>
      <point x="285" y="146"/>
    </contour>
  </outline>
</glyph>
<glyph name="A" format="2">
  <advance width="708"/>
  <unicode hex="0041"/>
  <anchor x="354" y="0" name="bottom"/>
  <anchor x="635" y="10" name="ogonek"/>
  <anchor x="363" y="616" name="top"/>
  <outline>
    <contour>
      <point x="417" y="0" type="line"/>
      <point x="687" y="0" type="line"/>
      <point x="687" y="25" type="line"/>
      <point x="617" y="39"/>
      <point x="596" y="64"/>
      <point x="566" y="135" type="curve" smooth="yes"/>
      <point x="498" y="306"/>
      <point x="431" y="477"/>
      <point x="363" y="648" type="curve"/>
      <point x="323" y="576" type="line"/>
      <point x="316" y="550" type="line"/>
      <point x="473" y="139" type="line" smooth="yes"/>
      <point x="510" y="42"/>
      <point x="499" y="43"/>
      <point x="417" y="25" type="curve"/>
    </contour>
    <contour>
      <point x="21" y="0" type="line"/>
      <point x="273" y="0" type="line"/>
      <point x="273" y="25" type="line"/>
      <point x="198" y="31"/>
      <point x="170" y="57"/>
      <point x="197" y="130" type="curve" smooth="yes"/>
      <point x="356" y="564" type="line"/>
      <point x="323" y="576" type="line"/>
      <point x="258" y="404"/>
      <point x="190" y="198"/>
      <point x="128" y="83" type="curve" smooth="yes"/>
      <point x="109" y="49"/>
      <point x="65" y="25"/>
      <point x="21" y="25" type="curve"/>
    </contour>
    <contour>
      <point x="217" y="258" type="line"/>
      <point x="471" y="258" type="line"/>
      <point x="457" y="298" type="line"/>
      <point x="234" y="298" type="line"/>
    </contour>
  </outline>
</glyph>
<glyph name="B" format="2">
  <advance width="603"/>
  <unicode hex="0042"/>
  <anchor x="306" y="0" name="bottom"/>
  <anchor x="162" y="154" name="center"/>
  <anchor x="306" y="616" name="top"/>
  <outline>
    <contour>
      <point x="36" y="25" type="curve"/>
      <point x="36" y="0" type="line"/>
      <point x="327" y="0" type="line"/>
      <point x="327" y="40" type="line"/>
      <point x="282" y="40"/>
      <point x="241" y="34"/>
      <point x="222" y="50" type="curve" smooth="yes"/>
      <point x="213" y="58"/>
      <point x="203" y="73"/>
      <point x="203" y="91" type="curve" smooth="yes"/>
      <point x="203" y="307"/>
      <point x="203" y="377"/>
      <point x="203" y="574" type="curve"/>
      <point x="220" y="576"/>
      <point x="284" y="576"/>
      <point x="307" y="576" type="curve"/>
      <point x="307" y="616" type="line"/>
      <point x="36" y="616" type="line"/>
      <point x="36" y="591" type="line"/>
      <point x="72" y="586"/>
      <point x="96" y="582"/>
      <point x="110" y="572" type="curve" smooth="yes"/>
      <point x="120" y="565"/>
      <point x="125" y="552"/>
      <point x="125" y="525" type="curve" smooth="yes"/>
      <point x="126" y="341"/>
      <point x="127" y="253"/>
      <point x="127" y="312" type="curve" smooth="yes"/>
      <point x="127" y="373"/>
      <point x="126" y="282"/>
      <point x="125" y="91" type="curve" smooth="yes"/>
      <point x="125" y="65"/>
      <point x="119" y="51"/>
      <point x="110" y="43" type="curve" smooth="yes"/>
      <point x="94" y="29"/>
      <point x="68" y="31"/>
    </contour>
    <contour>
      <point x="169" y="318" type="line"/>
      <point x="195" y="318"/>
      <point x="207" y="318"/>
      <point x="235" y="318" type="curve" smooth="yes"/>
      <point x="397" y="318"/>
      <point x="500" y="378"/>
      <point x="500" y="481" type="curve" smooth="yes"/>
      <point x="500" y="560"/>
      <point x="420" y="616"/>
      <point x="307" y="616" type="curve"/>
      <point x="307" y="576" type="line"/>
      <point x="368" y="576"/>
      <point x="411" y="529"/>
      <point x="411" y="462" type="curve" smooth="yes"/>
      <point x="411" y="387"/>
      <point x="342" y="348"/>
      <point x="228" y="348" type="curve" smooth="yes"/>
      <point x="168" y="348" type="line"/>
    </contour>
    <contour>
      <point x="327" y="0" type="line"/>
      <point x="452" y="0"/>
      <point x="540" y="79"/>
      <point x="540" y="191" type="curve" smooth="yes"/>
      <point x="540" y="280"/>
      <point x="455" y="333"/>
      <point x="334" y="338" type="curve" smooth="yes"/>
      <point x="150" y="346" type="line"/>
      <point x="150" y="314" type="line"/>
      <point x="172" y="314"/>
      <point x="184" y="314"/>
      <point x="221" y="314" type="curve" smooth="yes"/>
      <point x="356" y="314"/>
      <point x="449" y="263"/>
      <point x="449" y="171" type="curve" smooth="yes"/>
      <point x="449" y="94"/>
      <point x="397" y="40"/>
      <point x="327" y="40" type="curve"/>
    </contour>
  </outline>
</glyph>
<glyph name="C" format="2">
  <advance width="738"/>
  <unicode hex="0043"/>
  <anchor x="413" y="0" name="bottom"/>
  <anchor x="413" y="616" name="top"/>
  <outline>
    <contour>
      <point x="413" y="-11" type="curve" smooth="yes"/>
      <point x="488" y="-11"/>
      <point x="581" y="9"/>
      <point x="637" y="38" type="curve"/>
      <point x="655" y="106"/>
      <point x="671" y="174"/>
      <point x="675" y="201" type="curve"/>
      <point x="639" y="200" type="line"/>
      <point x="615" y="102"/>
      <point x="529" y="33"/>
      <point x="431" y="33" type="curve" smooth="yes"/>
      <point x="277" y="33"/>
      <point x="158" y="158"/>
      <point x="158" y="335" type="curve" smooth="yes"/>
      <point x="158" y="482"/>
      <point x="276" y="588"/>
      <point x="425" y="588" type="curve" smooth="yes"/>
      <point x="523" y="588"/>
      <point x="594" y="528"/>
      <point x="598" y="444" type="curve"/>
      <point x="629" y="444" type="line"/>
      <point x="631" y="489"/>
      <point x="638" y="551"/>
      <point x="645" y="595" type="curve"/>
      <point x="595" y="614"/>
      <point x="499" y="627"/>
      <point x="413" y="627" type="curve" smooth="yes"/>
      <point x="206" y="627"/>
      <point x="63" y="496"/>
      <point x="63" y="312" type="curve" smooth="yes"/>
      <point x="63" y="123"/>
      <point x="206" y="-11"/>
    </contour>
  </outline>
</glyph>
<glyph name="D" format="2">
  <advance width="729"/>
  <unicode hex="0044"/>
  <anchor x="302" y="0" name="bottom"/>
  <anchor x="194" y="308" name="center"/>
  <anchor x="301" y="616" name="top"/>
  <outline>
    <contour>
      <point x="36" y="25" type="curve"/>
      <point x="36" y="0" type="line"/>
      <point x="59" y="0"/>
      <point x="121" y="0"/>
      <point x="163" y="0" type="curve" smooth="yes"/>
      <point x="163" y="0"/>
      <point x="204" y="1"/>
      <point x="322" y="-3" type="curve"/>
      <point x="336" y="38" type="line"/>
      <point x="284" y="38"/>
      <point x="245" y="33"/>
      <point x="222" y="55" type="curve" smooth="yes"/>
      <point x="213" y="63"/>
      <point x="208" y="74"/>
      <point x="208" y="91" type="curve" smooth="yes"/>
      <point x="208" y="189"/>
      <point x="208" y="476"/>
      <point x="209" y="574" type="curve"/>
      <point x="255" y="577"/>
      <point x="287" y="578"/>
      <point x="333" y="578" type="curve"/>
      <point x="349" y="619" type="line"/>
      <point x="268" y="618"/>
      <point x="206" y="616"/>
      <point x="166" y="616" type="curve"/>
      <point x="120" y="616"/>
      <point x="67" y="616"/>
      <point x="36" y="616" type="curve"/>
      <point x="36" y="590" type="line"/>
      <point x="74" y="583"/>
      <point x="97" y="582"/>
      <point x="110" y="572" type="curve" smooth="yes"/>
      <point x="121" y="565"/>
      <point x="125" y="552"/>
      <point x="125" y="525" type="curve" smooth="yes"/>
      <point x="126" y="411"/>
      <point x="127" y="323"/>
      <point x="127" y="312" type="curve" smooth="yes"/>
      <point x="127" y="302"/>
      <point x="126" y="210"/>
      <point x="125" y="91" type="curve" smooth="yes"/>
      <point x="125" y="66"/>
      <point x="120" y="52"/>
      <point x="110" y="43" type="curve" smooth="yes"/>
      <point x="96" y="31"/>
      <point x="71" y="30"/>
    </contour>
    <contour>
      <point x="336" y="38" type="curve"/>
      <point x="322" y="-3" type="line"/>
      <point x="523" y="-2"/>
      <point x="666" y="135"/>
      <point x="666" y="327" type="curve" smooth="yes"/>
      <point x="666" y="498"/>
      <point x="535" y="619"/>
      <point x="349" y="619" type="curve"/>
      <point x="333" y="578" type="line"/>
      <point x="474" y="578"/>
      <point x="573" y="462"/>
      <point x="573" y="298" type="curve" smooth="yes"/>
      <point x="573" y="146"/>
      <point x="475" y="38"/>
    </contour>
  </outline>
</glyph>
<glyph name="E" format="2">
  <advance width="600"/>
  <unicode hex="0045"/>
  <anchor x="288" y="2" name="bottom"/>
  <anchor x="536" y="10" name="ogonek"/>
  <anchor x="294" y="616" name="top"/>
  <anchor x="38" y="616" name="topleft"/>
  <outline>
    <contour>
      <point x="534" y="-3" type="curve"/>
      <point x="546" y="44"/>
      <point x="556" y="110"/>
      <point x="558" y="157" type="curve"/>
      <point x="529" y="157" type="line"/>
      <point x="517" y="90"/>
      <point x="478" y="43"/>
      <point x="435" y="40" type="curve" smooth="yes"/>
      <point x="403" y="38"/>
      <point x="339" y="37"/>
      <point x="282" y="37" type="curve" smooth="yes"/>
      <point x="248" y="37"/>
      <point x="232" y="42"/>
      <point x="221" y="52" type="curve" smooth="yes"/>
      <point x="211" y="62"/>
      <point x="208" y="76"/>
      <point x="208" y="96" type="curve" smooth="yes"/>
      <point x="208" y="265"/>
      <point x="207" y="416"/>
      <point x="209" y="576" type="curve"/>
      <point x="246" y="578"/>
      <point x="275" y="578"/>
      <point x="297" y="578" type="curve" smooth="yes"/>
      <point x="325" y="578"/>
      <point x="360" y="578"/>
      <point x="392" y="576" type="curve" smooth="yes"/>
      <point x="417" y="574"/>
      <point x="440" y="544"/>
      <point x="448" y="499" type="curve"/>
      <point x="482" y="499" type="line"/>
      <point x="483" y="536"/>
      <point x="488" y="586"/>
      <point x="495" y="619" type="curve"/>
      <point x="430" y="617"/>
      <point x="287" y="616"/>
      <point x="166" y="616" type="curve" smooth="yes"/>
      <point x="117" y="616"/>
      <point x="65" y="617"/>
      <point x="36" y="618" type="curve"/>
      <point x="36" y="589" type="line"/>
      <point x="71" y="584"/>
      <point x="95" y="581"/>
      <point x="110" y="567" type="curve" smooth="yes"/>
      <point x="119" y="558"/>
      <point x="125" y="544"/>
      <point x="125" y="521" type="curve" smooth="yes"/>
      <point x="127" y="376"/>
      <point x="127" y="236"/>
      <point x="125" y="91" type="curve" smooth="yes"/>
      <point x="125" y="67"/>
      <point x="120" y="52"/>
      <point x="110" y="42" type="curve" smooth="yes"/>
      <point x="96" y="29"/>
      <point x="73" y="26"/>
      <point x="36" y="23" type="curve"/>
      <point x="36" y="-2" type="line"/>
      <point x="156" y="0" type="line" smooth="yes"/>
      <point x="299" y="2"/>
      <point x="457" y="-1"/>
    </contour>
    <contour>
      <point x="391" y="206" type="line"/>
      <point x="416" y="206" type="line"/>
      <point x="411" y="272"/>
      <point x="411" y="364"/>
      <point x="416" y="430" type="curve"/>
      <point x="390" y="430" type="line"/>
      <point x="389" y="424"/>
      <point x="384" y="410"/>
      <point x="379" y="396" type="curve"/>
      <point x="362" y="360"/>
      <point x="339" y="336"/>
      <point x="279" y="336" type="curve" smooth="yes"/>
      <point x="149" y="336" type="line"/>
      <point x="149" y="296" type="line"/>
      <point x="279" y="296" type="line" smooth="yes"/>
      <point x="346" y="296"/>
      <point x="368" y="274"/>
      <point x="380" y="242" type="curve" smooth="yes"/>
    </contour>
  </outline>
</glyph>
<glyph name="F" format="2">
  <advance width="507"/>
  <unicode hex="0046"/>
  <anchor x="261" y="0" name="bottom"/>
  <anchor x="301" y="616" name="top"/>
  <outline>
    <contour>
      <point x="36" y="-1" type="line"/>
      <point x="63" y="0"/>
      <point x="269" y="0"/>
      <point x="324" y="0" type="curve"/>
      <point x="324" y="29" type="line"/>
      <point x="272" y="35"/>
      <point x="239" y="35"/>
      <point x="221" y="54" type="curve" smooth="yes"/>
      <point x="212" y="64"/>
      <point x="207" y="79"/>
      <point x="207" y="103" type="curve" smooth="yes"/>
      <point x="205" y="260"/>
      <point x="206" y="421"/>
      <point x="209" y="578" type="curve"/>
      <point x="230" y="579"/>
      <point x="279" y="580"/>
      <point x="301" y="580" type="curve" smooth="yes"/>
      <point x="329" y="580"/>
      <point x="351" y="580"/>
      <point x="383" y="578" type="curve" smooth="yes"/>
      <point x="408" y="576"/>
      <point x="430" y="544"/>
      <point x="438" y="499" type="curve"/>
      <point x="470" y="499" type="line"/>
      <point x="472" y="536"/>
      <point x="479" y="586"/>
      <point x="486" y="619" type="curve"/>
      <point x="421" y="617"/>
      <point x="286" y="616"/>
      <point x="166" y="616" type="curve"/>
      <point x="117" y="616"/>
      <point x="66" y="617"/>
      <point x="37" y="618" type="curve"/>
      <point x="37" y="592" type="line"/>
      <point x="72" y="586"/>
      <point x="95" y="584"/>
      <point x="110" y="572" type="curve" smooth="yes"/>
      <point x="119" y="563"/>
      <point x="125" y="550"/>
      <point x="125" y="525" type="curve" smooth="yes"/>
      <point x="127" y="380"/>
      <point x="127" y="236"/>
      <point x="125" y="91" type="curve" smooth="yes"/>
      <point x="125" y="67"/>
      <point x="121" y="53"/>
      <point x="112" y="44" type="curve" smooth="yes"/>
      <point x="99" y="30"/>
      <point x="76" y="27"/>
      <point x="36" y="23" type="curve"/>
    </contour>
    <contour>
      <point x="387" y="206" type="line"/>
      <point x="411" y="206" type="line"/>
      <point x="405" y="272"/>
      <point x="405" y="364"/>
      <point x="411" y="430" type="curve"/>
      <point x="386" y="430" type="line"/>
      <point x="385" y="424"/>
      <point x="380" y="410"/>
      <point x="375" y="396" type="curve"/>
      <point x="358" y="360"/>
      <point x="335" y="336"/>
      <point x="293" y="336" type="curve" smooth="yes"/>
      <point x="159" y="336" type="line"/>
      <point x="159" y="296" type="line"/>
      <point x="293" y="296" type="line" smooth="yes"/>
      <point x="342" y="296"/>
      <point x="364" y="274"/>
      <point x="376" y="242" type="curve" smooth="yes"/>
    </contour>
  </outline>
</glyph>
<glyph name="G" format="2">
  <advance width="747"/>
  <unicode hex="0047"/>
  <anchor x="413" y="0" name="bottom"/>
  <anchor x="419" y="616" name="top"/>
  <outline>
    <contour>
      <point x="413" y="-11" type="curve" smooth="yes"/>
      <point x="497" y="-11"/>
      <point x="598" y="11"/>
      <point x="653" y="43" type="curve"/>
      <point x="649" y="56" type="line"/>
      <point x="631" y="57"/>
      <point x="621" y="67"/>
      <point x="621" y="79" type="curve"/>
      <point x="621" y="200" type="line"/>
      <point x="621" y="225"/>
      <point x="634" y="247"/>
      <point x="657" y="252" type="curve"/>
      <point x="693" y="258" type="line"/>
      <point x="693" y="287" type="line"/>
      <point x="441" y="287" type="line"/>
      <point x="441" y="253" type="line"/>
      <point x="494" y="244"/>
      <point x="538" y="225"/>
      <point x="538" y="188" type="curve"/>
      <point x="538" y="76" type="line"/>
      <point x="538" y="55"/>
      <point x="503" y="33"/>
      <point x="458" y="33" type="curve" smooth="yes"/>
      <point x="276" y="33"/>
      <point x="158" y="141"/>
      <point x="158" y="333" type="curve" smooth="yes"/>
      <point x="158" y="482"/>
      <point x="272" y="588"/>
      <point x="427" y="588" type="curve" smooth="yes"/>
      <point x="523" y="588"/>
      <point x="593" y="528"/>
      <point x="598" y="444" type="curve"/>
      <point x="629" y="444" type="line"/>
      <point x="631" y="495"/>
      <point x="638" y="558"/>
      <point x="645" y="595" type="curve"/>
      <point x="595" y="614"/>
      <point x="501" y="627"/>
      <point x="419" y="627" type="curve" smooth="yes"/>
      <point x="214" y="627"/>
      <point x="63" y="495"/>
      <point x="63" y="308" type="curve" smooth="yes"/>
      <point x="63" y="121"/>
      <point x="212" y="-11"/>
    </contour>
  </outline>
</glyph>
<glyph name="H" format="2">
  <advance width="828"/>
  <unicode hex="0048"/>
  <anchor x="396" y="0" name="bottom"/>
  <anchor x="396" y="462" name="center"/>
  <anchor x="396" y="616" name="top"/>
  <anchor x="38" y="616" name="topleft"/>
  <outline>
    <contour>
      <point x="36" y="0" type="line"/>
      <point x="306" y="0" type="line"/>
      <point x="306" y="25" type="line"/>
      <point x="275" y="33"/>
      <point x="232" y="39"/>
      <point x="221" y="51" type="curve" smooth="yes"/>
      <point x="211" y="61"/>
      <point x="206" y="77"/>
      <point x="206" y="104" type="curve" smooth="yes"/>
      <point x="205" y="178"/>
      <point x="205" y="252"/>
      <point x="204" y="326" type="curve" smooth="yes"/>
      <point x="203" y="388"/>
      <point x="205" y="450"/>
      <point x="206" y="512" type="curve" smooth="yes"/>
      <point x="206" y="539"/>
      <point x="212" y="556"/>
      <point x="221" y="565" type="curve" smooth="yes"/>
      <point x="232" y="577"/>
      <point x="275" y="583"/>
      <point x="306" y="591" type="curve"/>
      <point x="306" y="616" type="line"/>
      <point x="36" y="616" type="line"/>
      <point x="36" y="591" type="line"/>
      <point x="58" y="583"/>
      <point x="101" y="576"/>
      <point x="112" y="564" type="curve" smooth="yes"/>
      <point x="121" y="553"/>
      <point x="125" y="538"/>
      <point x="125" y="512" type="curve" smooth="yes"/>
      <point x="126" y="450"/>
      <point x="127" y="389"/>
      <point x="127" y="327" type="curve" smooth="yes"/>
      <point x="127" y="253"/>
      <point x="126" y="178"/>
      <point x="125" y="104" type="curve" smooth="yes"/>
      <point x="125" y="78"/>
      <point x="121" y="63"/>
      <point x="112" y="52" type="curve" smooth="yes"/>
      <point x="101" y="40"/>
      <point x="58" y="33"/>
      <point x="36" y="25" type="curve"/>
    </contour>
    <contour>
      <point x="522" y="0" type="line"/>
      <point x="792" y="0" type="line"/>
      <point x="792" y="25" type="line"/>
      <point x="771" y="33"/>
      <point x="729" y="39"/>
      <point x="718" y="51" type="curve" smooth="yes"/>
      <point x="708" y="61"/>
      <point x="703" y="77"/>
      <point x="703" y="104" type="curve" smooth="yes"/>
      <point x="702" y="179"/>
      <point x="702" y="255"/>
      <point x="701" y="330" type="curve" smooth="yes"/>
      <point x="700" y="391"/>
      <point x="702" y="451"/>
      <point x="703" y="512" type="curve" smooth="yes"/>
      <point x="703" y="539"/>
      <point x="707" y="554"/>
      <point x="718" y="565" type="curve" smooth="yes"/>
      <point x="729" y="577"/>
      <point x="771" y="583"/>
      <point x="792" y="591" type="curve"/>
      <point x="792" y="616" type="line"/>
      <point x="522" y="616" type="line"/>
      <point x="522" y="591" type="line"/>
      <point x="554" y="583"/>
      <point x="598" y="576"/>
      <point x="609" y="564" type="curve" smooth="yes"/>
      <point x="618" y="553"/>
      <point x="622" y="538"/>
      <point x="622" y="512" type="curve" smooth="yes"/>
      <point x="623" y="451"/>
      <point x="624" y="390"/>
      <point x="624" y="329" type="curve" smooth="yes"/>
      <point x="624" y="254"/>
      <point x="623" y="179"/>
      <point x="622" y="104" type="curve" smooth="yes"/>
      <point x="622" y="78"/>
      <point x="618" y="63"/>
      <point x="609" y="52" type="curve" smooth="yes"/>
      <point x="598" y="40"/>
      <point x="554" y="33"/>
      <point x="522" y="25" type="curve"/>
    </contour>
    <contour>
      <point x="172" y="304" type="line"/>
      <point x="655" y="304" type="line"/>
      <point x="655" y="349" type="line"/>
      <point x="172" y="349" type="line"/>
    </contour>
  </outline>
</glyph>
<glyph name="I" format="2">
  <advance width="324"/>
  <unicode hex="0049"/>
  <anchor x="166" y="0" name="bottom"/>
  <anchor x="277" y="10" name="ogonek"/>
  <anchor x="163" y="616" name="top"/>
  <anchor x="38" y="616" name="topleft"/>
  <outline>
    <contour>
      <point x="36" y="25" type="curve"/>
      <point x="36" y="0" type="line"/>
      <point x="288" y="0" type="line"/>
      <point x="288" y="25" type="line"/>
      <point x="249" y="31"/>
      <point x="226" y="32"/>
      <point x="214" y="41" type="curve" smooth="yes"/>
      <point x="203" y="49"/>
      <point x="199" y="63"/>
      <point x="199" y="91" type="curve" smooth="yes"/>
      <point x="197" y="217"/>
      <point x="199" y="327"/>
      <point x="199" y="525" type="curve" smooth="yes"/>
      <point x="199" y="555"/>
      <point x="208" y="570"/>
      <point x="223" y="577" type="curve" smooth="yes"/>
      <point x="240" y="586"/>
      <point x="264" y="586"/>
      <point x="288" y="591" type="curve"/>
      <point x="288" y="616" type="line"/>
      <point x="36" y="616" type="line"/>
      <point x="36" y="593" type="line"/>
      <point x="73" y="587"/>
      <point x="97" y="586"/>
      <point x="110" y="575" type="curve" smooth="yes"/>
      <point x="120" y="566"/>
      <point x="125" y="552"/>
      <point x="125" y="525" type="curve" smooth="yes"/>
      <point x="127" y="382"/>
      <point x="127" y="234"/>
      <point x="125" y="91" type="curve" smooth="yes"/>
      <point x="125" y="62"/>
      <point x="121" y="47"/>
      <point x="111" y="39" type="curve" smooth="yes"/>
      <point x="96" y="27"/>
      <point x="71" y="30"/>
    </contour>
  </outline>
</glyph>
<glyph name="J" format="2">
  <advance width="304"/>
  <unicode hex="004A"/>
  <anchor x="153" y="0" name="bottom"/>
  <anchor x="160" y="616" name="top"/>
  <outline>
    <contour>
      <point x="14" y="-232" type="curve" smooth="yes"/>
      <point x="48" y="-232"/>
      <point x="103" y="-190"/>
      <point x="121" y="-164" type="curve" smooth="yes"/>
      <point x="168" y="-96"/>
      <point x="201" y="29"/>
      <point x="199" y="148" type="curve" smooth="yes"/>
      <point x="197" y="341"/>
      <point x="197" y="332"/>
      <point x="199" y="525" type="curve" smooth="yes"/>
      <point x="199" y="555"/>
      <point x="204" y="569"/>
      <point x="217" y="577" type="curve" smooth="yes"/>
      <point x="231" y="584"/>
      <point x="254" y="585"/>
      <point x="288" y="591" type="curve"/>
      <point x="288" y="616" type="line"/>
      <point x="36" y="616" type="line"/>
      <point x="36" y="591" type="line"/>
      <point x="71" y="587"/>
      <point x="95" y="586"/>
      <point x="110" y="574" type="curve" smooth="yes"/>
      <point x="121" y="565"/>
      <point x="126" y="551"/>
      <point x="126" y="525" type="curve" smooth="yes"/>
      <point x="126" y="81" type="line" smooth="yes"/>
      <point x="126" y="33"/>
      <point x="126" y="-90"/>
      <point x="95" y="-138" type="curve" smooth="yes"/>
      <point x="88" y="-150"/>
      <point x="78" y="-157"/>
      <point x="66" y="-157" type="curve" smooth="yes"/>
      <point x="47" y="-158"/>
      <point x="45" y="-135"/>
      <point x="26" y="-134" type="curve" smooth="yes"/>
      <point x="-7" y="-134"/>
      <point x="-30" y="-163"/>
      <point x="-30" y="-205" type="curve" smooth="yes"/>
      <point x="-30" y="-220"/>
      <point x="-12" y="-232"/>
    </contour>
  </outline>
</glyph>
<glyph name="K" format="2">
  <advance width="648"/>
  <unicode hex="004B"/>
  <anchor x="351" y="0" name="bottom"/>
  <anchor x="329" y="616" name="top"/>
  <outline>
    <contour>
      <point x="36" y="25" type="curve"/>
      <point x="36" y="0" type="line"/>
      <point x="288" y="0" type="line"/>
      <point x="288" y="18" type="line"/>
      <point x="253" y="27"/>
      <point x="233" y="29"/>
      <point x="222" y="36" type="curve" smooth="yes"/>
      <point x="210" y="44"/>
      <point x="202" y="58"/>
      <point x="202" y="91" type="curve" smooth="yes"/>
      <point x="201" y="156"/>
      <point x="202" y="424"/>
      <point x="203" y="525" type="curve" smooth="yes"/>
      <point x="203" y="556"/>
      <point x="209" y="572"/>
      <point x="222" y="581" type="curve" smooth="yes"/>
      <point x="235" y="590"/>
      <point x="256" y="594"/>
      <point x="288" y="598" type="curve"/>
      <point x="288" y="616" type="line"/>
      <point x="36" y="616" type="line"/>
      <point x="36" y="592" type="line"/>
      <point x="87" y="585"/>
      <point x="110" y="583"/>
      <point x="119" y="565" type="curve" smooth="yes"/>
      <point x="123" y="556"/>
      <point x="125" y="543"/>
      <point x="125" y="525" type="curve" smooth="yes"/>
      <point x="127" y="382"/>
      <point x="127" y="234"/>
      <point x="125" y="91" type="curve" smooth="yes"/>
      <point x="125" y="66"/>
      <point x="120" y="52"/>
      <point x="110" y="44" type="curve" smooth="yes"/>
      <point x="96" y="33"/>
      <point x="72" y="33"/>
    </contour>
    <contour>
      <point x="179" y="240" type="line"/>
      <point x="435" y="503" type="line"/>
      <point x="471" y="540"/>
      <point x="516" y="574"/>
      <point x="544" y="586" type="curve" smooth="yes"/>
      <point x="558" y="592"/>
      <point x="588" y="597"/>
      <point x="594" y="598" type="curve"/>
      <point x="594" y="616" type="line"/>
      <point x="360" y="616" type="line"/>
      <point x="360" y="598" type="line"/>
      <point x="384" y="593"/>
      <point x="408" y="580"/>
      <point x="408" y="557" type="curve" smooth="yes"/>
      <point x="408" y="543"/>
      <point x="399" y="526"/>
      <point x="381" y="505" type="curve"/>
      <point x="156" y="267" type="line"/>
    </contour>
    <contour>
      <point x="648" y="0" type="line"/>
      <point x="648" y="18" type="line"/>
      <point x="585" y="34"/>
      <point x="553" y="48"/>
      <point x="503" y="99" type="curve"/>
      <point x="268" y="362" type="line"/>
      <point x="211" y="301" type="line"/>
      <point x="283" y="217"/>
      <point x="411" y="72"/>
      <point x="440" y="40" type="curve" smooth="yes"/>
      <point x="469" y="8"/>
      <point x="495" y="-4"/>
      <point x="538" y="-3" type="curve" smooth="yes"/>
    </contour>
  </outline>
</glyph>
<glyph name="L" format="2">
  <advance width="636"/>
  <unicode hex="004C"/>
  <anchor x="319" y="0" name="bottom"/>
  <anchor x="324" y="308" name="center"/>
  <anchor x="170" y="616" name="top"/>
  <anchor x="287" y="616" name="topright"/>
  <outline>
    <contour>
      <point x="36" y="23" type="curve"/>
      <point x="36" y="-3" type="line"/>
      <point x="126" y="-1"/>
      <point x="206" y="0"/>
      <point x="286" y="0" type="curve"/>
      <point x="286" y="41" type="line"/>
      <point x="224" y="43"/>
      <point x="207" y="43"/>
      <point x="207" y="105" type="curve" smooth="yes"/>
      <point x="205" y="234"/>
      <point x="204" y="318"/>
      <point x="207" y="517" type="curve" smooth="yes"/>
      <point x="207" y="553"/>
      <point x="209" y="567"/>
      <point x="230" y="577" type="curve" smooth="yes"/>
      <point x="241" y="582"/>
      <point x="259" y="585"/>
      <point x="288" y="588" type="curve"/>
      <point x="288" y="616" type="line"/>
      <point x="38" y="616" type="line"/>
      <point x="38" y="592" type="line"/>
      <point x="73" y="587"/>
      <point x="96" y="585"/>
      <point x="109" y="576" type="curve" smooth="yes"/>
      <point x="120" y="568"/>
      <point x="124" y="554"/>
      <point x="125" y="525" type="curve" smooth="yes"/>
      <point x="128" y="382"/>
      <point x="127" y="234"/>
      <point x="124" y="91" type="curve" smooth="yes"/>
      <point x="123" y="63"/>
      <point x="120" y="49"/>
      <point x="110" y="40" type="curve" smooth="yes"/>
      <point x="97" y="30"/>
      <point x="75" y="29"/>
    </contour>
    <contour>
      <point x="286" y="0" type="line"/>
      <point x="348" y="2"/>
      <point x="459" y="1"/>
      <point x="528" y="-3" type="curve"/>
      <point x="564" y="102"/>
      <point x="594" y="177"/>
      <point x="594" y="177" type="curve"/>
      <point x="567" y="189" type="line"/>
      <point x="526" y="98"/>
      <point x="446" y="47"/>
      <point x="374" y="45" type="curve"/>
      <point x="330" y="44"/>
      <point x="307" y="41"/>
      <point x="286" y="41" type="curve"/>
    </contour>
  </outline>
</glyph>
<glyph name="M" format="2">
  <advance width="903"/>
  <unicode hex="004D"/>
  <anchor x="432" y="46" name="bottom"/>
  <anchor x="445" y="616" name="top"/>
  <outline>
    <contour>
      <point x="424" y="-16" type="line"/>
      <point x="721" y="586" type="line"/>
      <point x="691" y="616" type="line"/>
      <point x="438" y="107" type="line"/>
      <point x="456" y="117" type="line"/>
      <point x="232" y="616" type="line"/>
      <point x="55" y="616" type="line"/>
      <point x="55" y="591" type="line"/>
      <point x="103" y="587" type="line" smooth="yes"/>
      <point x="132" y="584"/>
      <point x="162" y="565"/>
      <point x="173" y="540" type="curve" smooth="yes"/>
    </contour>
    <contour>
      <point x="37" y="0" type="line"/>
      <point x="271" y="0" type="line"/>
      <point x="271" y="25" type="line"/>
      <point x="235" y="33"/>
      <point x="187" y="40"/>
      <point x="176" y="52" type="curve" smooth="yes"/>
      <point x="167" y="63"/>
      <point x="162" y="79"/>
      <point x="163" y="105" type="curve" smooth="yes"/>
      <point x="183" y="561" type="line"/>
      <point x="143" y="591" type="line"/>
      <point x="123" y="105" type="line" smooth="yes"/>
      <point x="122" y="78"/>
      <point x="117" y="60"/>
      <point x="108" y="51" type="curve" smooth="yes"/>
      <point x="97" y="39"/>
      <point x="60" y="33"/>
      <point x="37" y="25" type="curve"/>
    </contour>
    <contour>
      <point x="613" y="0" type="line"/>
      <point x="865" y="0" type="line"/>
      <point x="865" y="25" type="line"/>
      <point x="825" y="33"/>
      <point x="801" y="41"/>
      <point x="791" y="51" type="curve" smooth="yes"/>
      <point x="777" y="65"/>
      <point x="778" y="82"/>
      <point x="778" y="104" type="curve" smooth="yes"/>
      <point x="776" y="216"/>
      <point x="774" y="401"/>
      <point x="774" y="529" type="curve" smooth="yes"/>
      <point x="774" y="544"/>
      <point x="778" y="556"/>
      <point x="787" y="566" type="curve" smooth="yes"/>
      <point x="799" y="578"/>
      <point x="817" y="586"/>
      <point x="847" y="591" type="curve"/>
      <point x="847" y="616" type="line"/>
      <point x="691" y="616" type="line"/>
      <point x="698" y="104" type="line" smooth="yes"/>
      <point x="698" y="80"/>
      <point x="698" y="63"/>
      <point x="685" y="50" type="curve" smooth="yes"/>
      <point x="669" y="34"/>
      <point x="632" y="27"/>
      <point x="613" y="25" type="curve"/>
    </contour>
  </outline>
</glyph>
<glyph name="N" format="2">
  <advance width="771"/>
  <unicode hex="004E"/>
  <anchor x="387" y="0" name="bottom"/>
  <anchor x="375" y="616" name="top"/>
  <outline>
    <contour>
      <point x="640" y="-11" type="line"/>
      <point x="666" y="-11" type="line"/>
      <point x="666" y="157"/>
      <point x="666" y="443"/>
      <point x="666" y="512" type="curve"/>
      <point x="626" y="512" type="line"/>
      <point x="626" y="97" type="line"/>
      <point x="647" y="106" type="line"/>
      <point x="168" y="616" type="line"/>
      <point x="36" y="616" type="line"/>
      <point x="36" y="591" type="line"/>
      <point x="59" y="587"/>
      <point x="80" y="579"/>
      <point x="94" y="566" type="curve" smooth="yes"/>
      <point x="113" y="548"/>
      <point x="147" y="514"/>
      <point x="147" y="514" type="curve"/>
    </contour>
    <contour>
      <point x="36" y="0" type="line"/>
      <point x="270" y="0" type="line"/>
      <point x="270" y="25" type="line"/>
      <point x="234" y="28"/>
      <point x="193" y="35"/>
      <point x="179" y="52" type="curve" smooth="yes"/>
      <point x="166" y="68"/>
      <point x="166" y="78"/>
      <point x="166" y="104" type="curve"/>
      <point x="126" y="104" type="line"/>
      <point x="126" y="77"/>
      <point x="125" y="65"/>
      <point x="111" y="51" type="curve" smooth="yes"/>
      <point x="94" y="34"/>
      <point x="57" y="33"/>
      <point x="36" y="25" type="curve"/>
    </contour>
    <contour>
      <point x="126" y="104" type="line"/>
      <point x="166" y="104" type="line"/>
      <point x="166" y="561" type="line"/>
      <point x="126" y="591" type="line"/>
    </contour>
    <contour>
      <point x="626" y="512" type="curve"/>
      <point x="666" y="512" type="line"/>
      <point x="666" y="542"/>
      <point x="671" y="558"/>
      <point x="683" y="567" type="curve" smooth="yes"/>
      <point x="695" y="577"/>
      <point x="715" y="581"/>
      <point x="738" y="588" type="curve"/>
      <point x="738" y="616" type="line"/>
      <point x="522" y="616" type="line"/>
      <point x="522" y="591" type="line"/>
      <point x="568" y="584"/>
      <point x="595" y="582"/>
      <point x="610" y="568" type="curve" smooth="yes"/>
      <point x="621" y="557"/>
      <point x="626" y="541"/>
    </contour>
  </outline>
</glyph>
<glyph name="O" format="2">
  <advance width="810"/>
  <unicode hex="004F"/>
  <anchor x="387" y="0" name="bottom"/>
  <anchor x="387" y="308" name="center"/>
  <anchor x="537" y="10" name="ogonek"/>
  <anchor x="378" y="616" name="top"/>
  <anchor x="29" y="616" name="topleft"/>
  <anchor x="583" y="485" name="topright"/>
  <outline>
    <contour>
      <point x="402" y="-11" type="curve" smooth="yes"/>
      <point x="597" y="-11"/>
      <point x="747" y="121"/>
      <point x="747" y="308" type="curve" smooth="yes"/>
      <point x="747" y="494"/>
      <point x="597" y="626"/>
      <point x="402" y="626" type="curve" smooth="yes"/>
      <point x="219" y="626"/>
      <point x="63" y="494"/>
      <point x="63" y="308" type="curve" smooth="yes"/>
      <point x="63" y="121"/>
      <point x="219" y="-11"/>
    </contour>
    <contour>
      <point x="159" y="318" type="curve" smooth="yes"/>
      <point x="159" y="474"/>
      <point x="268" y="585"/>
      <point x="385" y="585" type="curve" smooth="yes"/>
      <point x="534" y="585"/>
      <point x="651" y="466"/>
      <point x="651" y="298" type="curve" smooth="yes"/>
      <point x="651" y="141"/>
      <point x="548" y="30"/>
      <point x="419" y="30" type="curve" smooth="yes"/>
      <point x="283" y="30"/>
      <point x="159" y="149"/>
    </contour>
  </outline>
</glyph>
<glyph name="P" format="2">
  <advance width="528"/>
  <unicode hex="0050"/>
  <anchor x="270" y="0" name="bottom"/>
  <anchor x="232" y="616" name="top"/>
  <outline>
    <contour>
      <point x="238" y="272" type="line"/>
      <point x="249" y="271"/>
      <point x="259" y="271"/>
      <point x="269" y="271" type="curve" smooth="yes"/>
      <point x="398" y="271"/>
      <point x="486" y="337"/>
      <point x="486" y="448" type="curve" smooth="yes"/>
      <point x="486" y="552"/>
      <point x="409" y="620"/>
      <point x="297" y="618" type="curve"/>
      <point x="278" y="584" type="line"/>
      <point x="352" y="584"/>
      <point x="400" y="528"/>
      <point x="400" y="436" type="curve" smooth="yes"/>
      <point x="400" y="346"/>
      <point x="337" y="295"/>
      <point x="238" y="295" type="curve"/>
    </contour>
    <contour>
      <point x="36" y="0" type="line"/>
      <point x="306" y="0" type="line"/>
      <point x="306" y="25" type="line"/>
      <point x="255" y="36"/>
      <point x="234" y="39"/>
      <point x="222" y="51" type="curve" smooth="yes"/>
      <point x="212" y="61"/>
      <point x="209" y="78"/>
      <point x="208" y="111" type="curve" smooth="yes"/>
      <point x="206" y="188"/>
      <point x="206" y="379"/>
      <point x="209" y="583" type="curve"/>
      <point x="278" y="584" type="line"/>
      <point x="297" y="618" type="line"/>
      <point x="258" y="617"/>
      <point x="197" y="616"/>
      <point x="165" y="616" type="curve"/>
      <point x="126" y="616"/>
      <point x="61" y="617"/>
      <point x="18" y="618" type="curve"/>
      <point x="18" y="587" type="line"/>
      <point x="63" y="580"/>
      <point x="93" y="576"/>
      <point x="110" y="556" type="curve" smooth="yes"/>
      <point x="120" y="545"/>
      <point x="125" y="531"/>
      <point x="125" y="507" type="curve" smooth="yes"/>
      <point x="127" y="369"/>
      <point x="127" y="235"/>
      <point x="125" y="101" type="curve" smooth="yes"/>
      <point x="125" y="75"/>
      <point x="121" y="60"/>
      <point x="112" y="49" type="curve" smooth="yes"/>
      <point x="101" y="35"/>
      <point x="59" y="30"/>
      <point x="36" y="25" type="curve"/>
    </contour>
  </outline>
</glyph>
<glyph name="Q" format="2">
  <advance width="810"/>
  <unicode hex="0051"/>
  <anchor x="387" y="0" name="bottom"/>
  <anchor x="387" y="616" name="top"/>
  <outline>
    <contour>
      <point x="390" y="-11" type="curve" smooth="yes"/>
      <point x="578" y="-11"/>
      <point x="711" y="121"/>
      <point x="711" y="308" type="curve" smooth="yes"/>
      <point x="711" y="494"/>
      <point x="578" y="626"/>
      <point x="390" y="626" type="curve" smooth="yes"/>
      <point x="198" y="626"/>
      <point x="63" y="494"/>
      <point x="63" y="308" type="curve" smooth="yes"/>
      <point x="63" y="121"/>
      <point x="198" y="-11"/>
    </contour>
    <contour>
      <point x="159" y="318" type="curve" smooth="yes"/>
      <point x="159" y="474"/>
      <point x="245" y="584"/>
      <point x="367" y="584" type="curve" smooth="yes"/>
      <point x="512" y="584"/>
      <point x="615" y="466"/>
      <point x="615" y="298" type="curve" smooth="yes"/>
      <point x="615" y="141"/>
      <point x="529" y="30"/>
      <point x="407" y="30" type="curve" smooth="yes"/>
      <point x="262" y="30"/>
      <point x="159" y="149"/>
    </contour>
    <contour>
      <point x="822" y="-232" type="curve" smooth="yes"/>
      <point x="948" y="-232"/>
      <point x="1066" y="-202"/>
      <point x="1140" y="-153" type="curve"/>
      <point x="1129" y="-133" type="line"/>
      <point x="1055" y="-163"/>
      <point x="966" y="-179"/>
      <point x="878" y="-179" type="curve" smooth="yes"/>
      <point x="712" y="-179"/>
      <point x="546" y="-98"/>
      <point x="467" y="29" type="curve"/>
      <point x="340" y="11" type="line"/>
      <point x="439" y="-144"/>
      <point x="639" y="-232"/>
    </contour>
  </outline>
</glyph>
<glyph name="R" format="2">
  <advance width="648"/>
  <unicode hex="0052"/>
  <anchor x="389" y="0" name="bottom"/>
  <anchor x="232" y="616" name="top"/>
  <outline>
    <contour>
      <point x="198" y="282" type="line"/>
      <point x="363" y="282"/>
      <point x="480" y="354"/>
      <point x="480" y="458" type="curve" smooth="yes"/>
      <point x="480" y="550"/>
      <point x="397" y="620"/>
      <point x="289" y="618" type="curve"/>
      <point x="270" y="576" type="line"/>
      <point x="340" y="576"/>
      <point x="394" y="526"/>
      <point x="394" y="446" type="curve" smooth="yes"/>
      <point x="394" y="362"/>
      <point x="314" y="322"/>
      <point x="198" y="322" type="curve"/>
    </contour>
    <contour>
      <point x="36" y="0" type="line"/>
      <point x="306" y="0" type="line"/>
      <point x="306" y="27" type="line"/>
      <point x="267" y="31"/>
      <point x="229" y="41"/>
      <point x="218" y="53" type="curve" smooth="yes"/>
      <point x="208" y="63"/>
      <point x="206" y="79"/>
      <point x="206" y="106" type="curve" smooth="yes"/>
      <point x="206" y="374"/>
      <point x="205" y="454"/>
      <point x="209" y="574" type="curve"/>
      <point x="270" y="576" type="line"/>
      <point x="289" y="618" type="line"/>
      <point x="240" y="617"/>
      <point x="212" y="616"/>
      <point x="163" y="616" type="curve"/>
      <point x="124" y="615"/>
      <point x="83" y="617"/>
      <point x="37" y="618" type="curve"/>
      <point x="37" y="592" type="line"/>
      <point x="72" y="585"/>
      <point x="103" y="579"/>
      <point x="114" y="567" type="curve" smooth="yes"/>
      <point x="123" y="556"/>
      <point x="125" y="538"/>
      <point x="125" y="512" type="curve" smooth="yes"/>
      <point x="127" y="376"/>
      <point x="127" y="238"/>
      <point x="125" y="104" type="curve" smooth="yes"/>
      <point x="125" y="69"/>
      <point x="121" y="53"/>
      <point x="110" y="44" type="curve" smooth="yes"/>
      <point x="98" y="34"/>
      <point x="78" y="32"/>
      <point x="36" y="25" type="curve"/>
    </contour>
    <contour>
      <point x="648" y="0" type="line"/>
      <point x="648" y="18" type="line"/>
      <point x="576" y="26"/>
      <point x="454" y="156"/>
      <point x="358" y="337" type="curve"/>
      <point x="282" y="305" type="line"/>
      <point x="367" y="123"/>
      <point x="474" y="-5"/>
      <point x="546" y="-3" type="curve" smooth="yes"/>
    </contour>
  </outline>
</glyph>
<glyph name="S" format="2">
  <advance width="505"/>
  <unicode hex="0053"/>
  <anchor x="225" y="0" name="bottom"/>
  <anchor x="250" y="616" name="top"/>
  <outline>
    <contour>
      <point x="226" y="-9" type="curve" smooth="yes"/>
      <point x="353" y="-9"/>
      <point x="442" y="69"/>
      <point x="442" y="176" type="curve" smooth="yes"/>
      <point x="442" y="341"/>
      <point x="132" y="354"/>
      <point x="135" y="492" type="curve" smooth="yes"/>
      <point x="136" y="545"/>
      <point x="182" y="581"/>
      <point x="250" y="581" type="curve" smooth="yes"/>
      <point x="325" y="581"/>
      <point x="372" y="517"/>
      <point x="366" y="453" type="curve"/>
      <point x="405" y="453" type="line"/>
      <point x="404" y="508"/>
      <point x="405" y="576"/>
      <point x="409" y="593" type="curve"/>
      <point x="359" y="611"/>
      <point x="291" y="624"/>
      <point x="250" y="624" type="curve" smooth="yes"/>
      <point x="137" y="624"/>
      <point x="64" y="550"/>
      <point x="64" y="446" type="curve" smooth="yes"/>
      <point x="64" y="272"/>
      <point x="368" y="279"/>
      <point x="368" y="136" type="curve" smooth="yes"/>
      <point x="368" y="75"/>
      <point x="307" y="33"/>
      <point x="226" y="35" type="curve" smooth="yes"/>
      <point x="151" y="37"/>
      <point x="102" y="104"/>
      <point x="104" y="197" type="curve"/>
      <point x="63" y="197" type="line"/>
      <point x="66" y="171"/>
      <point x="67" y="104"/>
      <point x="66" y="36" type="curve"/>
      <point x="131" y="10"/>
      <point x="197" y="-9"/>
    </contour>
  </outline>
</glyph>
<glyph name="T" format="2">
  <advance width="612"/>
  <unicode hex="0054"/>
  <anchor x="306" y="0" name="bottom"/>
  <anchor x="306" y="308" name="center"/>
  <anchor x="306" y="616" name="top"/>
  <outline>
    <contour>
      <point x="144" y="0" type="line"/>
      <point x="468" y="0" type="line"/>
      <point x="468" y="28" type="line"/>
      <point x="393" y="42"/>
      <point x="349" y="46"/>
      <point x="347" y="100" type="curve" smooth="yes"/>
      <point x="342" y="262"/>
      <point x="342" y="428"/>
      <point x="347" y="590" type="curve"/>
      <point x="323" y="561" type="line"/>
      <point x="387" y="561"/>
      <point x="456" y="561"/>
      <point x="485" y="561" type="curve" smooth="yes"/>
      <point x="521" y="561"/>
      <point x="568" y="559"/>
      <point x="573" y="447" type="curve"/>
      <point x="612" y="451" type="line"/>
      <point x="611" y="515"/>
      <point x="606" y="579"/>
      <point x="595" y="643" type="curve"/>
      <point x="583" y="643" type="line"/>
      <point x="528" y="616" type="line"/>
      <point x="371" y="613"/>
      <point x="218" y="613"/>
      <point x="76" y="616" type="curve"/>
      <point x="28" y="653" type="line"/>
      <point x="20" y="648" type="line"/>
      <point x="8" y="581"/>
      <point x="2" y="515"/>
      <point x="0" y="448" type="curve"/>
      <point x="39" y="446" type="line"/>
      <point x="44" y="561"/>
      <point x="79" y="561"/>
      <point x="143" y="561" type="curve" smooth="yes"/>
      <point x="293" y="561" type="line"/>
      <point x="263" y="590" type="line"/>
      <point x="265" y="462"/>
      <point x="265" y="146"/>
      <point x="263" y="100" type="curve" smooth="yes"/>
      <point x="261" y="54"/>
      <point x="220" y="41"/>
      <point x="144" y="28" type="curve"/>
    </contour>
  </outline>
</glyph>
<glyph name="U" format="2">
  <advance width="713"/>
  <unicode hex="0055"/>
  <anchor x="357" y="0" name="bottom"/>
  <anchor x="497" y="10" name="ogonek"/>
  <anchor x="375" y="616" name="top"/>
  <anchor x="625" y="544" name="topright"/>
  <outline>
    <contour>
      <point x="354" y="-11" type="curve" smooth="yes"/>
      <point x="501" y="-11"/>
      <point x="607" y="78"/>
      <point x="609" y="204" type="curve" smooth="yes"/>
      <point x="611" y="339"/>
      <point x="608" y="431"/>
      <point x="609" y="514" type="curve" smooth="yes"/>
      <point x="610" y="578"/>
      <point x="633" y="588"/>
      <point x="681" y="588" type="curve"/>
      <point x="681" y="616" type="line"/>
      <point x="483" y="616" type="line"/>
      <point x="483" y="592" type="line"/>
      <point x="534" y="582"/>
      <point x="566" y="553"/>
      <point x="567" y="481" type="curve" smooth="yes"/>
      <point x="568" y="387"/>
      <point x="569" y="303"/>
      <point x="567" y="208" type="curve" smooth="yes"/>
      <point x="565" y="111"/>
      <point x="489" y="42"/>
      <point x="383" y="42" type="curve" smooth="yes"/>
      <point x="285" y="42"/>
      <point x="204" y="102"/>
      <point x="188" y="188" type="curve" smooth="yes"/>
      <point x="186" y="197"/>
      <point x="185" y="327"/>
      <point x="185" y="503" type="curve" smooth="yes"/>
      <point x="185" y="570"/>
      <point x="218" y="588"/>
      <point x="267" y="592" type="curve"/>
      <point x="267" y="616" type="line"/>
      <point x="33" y="616" type="line"/>
      <point x="33" y="585" type="line"/>
      <point x="63" y="579"/>
      <point x="105" y="567"/>
      <point x="105" y="511" type="curve" smooth="yes"/>
      <point x="105" y="486"/>
      <point x="105" y="367"/>
      <point x="105" y="202" type="curve" smooth="yes"/>
      <point x="105" y="77"/>
      <point x="208" y="-11"/>
    </contour>
  </outline>
</glyph>
<glyph name="V" format="2">
  <advance width="702"/>
  <unicode hex="0056"/>
  <anchor x="349" y="0" name="bottom"/>
  <anchor x="390" y="616" name="top"/>
  <outline>
    <contour>
      <point x="338" y="-24" type="line"/>
      <point x="351" y="-24" type="line"/>
      <point x="420" y="153"/>
      <point x="550" y="444"/>
      <point x="577" y="505" type="curve" smooth="yes"/>
      <point x="604" y="566"/>
      <point x="640" y="579"/>
      <point x="702" y="588" type="curve"/>
      <point x="702" y="616" type="line"/>
      <point x="452" y="616" type="line"/>
      <point x="452" y="593" type="line"/>
      <point x="503" y="586"/>
      <point x="538" y="573"/>
      <point x="538" y="543" type="curve" smooth="yes"/>
      <point x="538" y="521"/>
      <point x="525" y="488"/>
      <point x="510" y="452" type="curve" smooth="yes"/>
      <point x="349" y="70" type="line"/>
      <point x="378" y="93" type="line"/>
      <point x="319" y="227"/>
      <point x="221" y="480"/>
      <point x="214" y="496" type="curve" smooth="yes"/>
      <point x="207" y="512"/>
      <point x="202" y="528"/>
      <point x="202" y="543" type="curve" smooth="yes"/>
      <point x="202" y="558"/>
      <point x="202" y="582"/>
      <point x="288" y="591" type="curve"/>
      <point x="288" y="616" type="line"/>
      <point x="0" y="616" type="line"/>
      <point x="0" y="588" type="line"/>
      <point x="48" y="580"/>
      <point x="94" y="571"/>
      <point x="128" y="489" type="curve" smooth="yes"/>
    </contour>
  </outline>
</glyph>
<glyph name="W" format="2">
  <advance width="936"/>
  <unicode hex="0057"/>
  <anchor x="468" y="0" name="bottom"/>
  <anchor x="468" y="616" name="top"/>
  <outline>
    <contour>
      <point x="308" y="-24" type="line"/>
      <point x="321" y="-24" type="line"/>
      <point x="363" y="108"/>
      <point x="463" y="321"/>
      <point x="505" y="438" type="curve"/>
      <point x="482" y="487" type="line"/>
      <point x="312" y="75" type="line"/>
      <point x="344" y="98" type="line"/>
      <point x="194" y="496" type="line" smooth="yes"/>
      <point x="169" y="562"/>
      <point x="150" y="582"/>
      <point x="234" y="591" type="curve"/>
      <point x="234" y="616" type="line"/>
      <point x="0" y="616" type="line"/>
      <point x="0" y="588" type="line"/>
      <point x="30" y="579"/>
      <point x="78" y="572"/>
      <point x="110" y="489" type="curve" smooth="yes"/>
    </contour>
    <contour>
      <point x="626" y="-24" type="line"/>
      <point x="639" y="-24" type="line"/>
      <point x="706" y="153"/>
      <point x="825" y="444"/>
      <point x="848" y="505" type="curve" smooth="yes"/>
      <point x="871" y="566"/>
      <point x="871" y="576"/>
      <point x="936" y="588" type="curve"/>
      <point x="936" y="616" type="line"/>
      <point x="738" y="616" type="line"/>
      <point x="738" y="591" type="line"/>
      <point x="822" y="570"/>
      <point x="818" y="533"/>
      <point x="785" y="452" type="curve" smooth="yes"/>
      <point x="632" y="70" type="line"/>
      <point x="667" y="99" type="line"/>
      <point x="618" y="233"/>
      <point x="534" y="480"/>
      <point x="529" y="496" type="curve" smooth="yes"/>
      <point x="505" y="572"/>
      <point x="507" y="582"/>
      <point x="574" y="591" type="curve"/>
      <point x="574" y="616" type="line"/>
      <point x="340" y="616" type="line"/>
      <point x="340" y="591" type="line"/>
      <point x="386" y="584"/>
      <point x="418" y="572"/>
      <point x="447" y="489" type="curve" smooth="yes"/>
    </contour>
  </outline>
</glyph>
<glyph name="X" format="2">
  <advance width="636"/>
  <unicode hex="0058"/>
  <anchor x="318" y="0" name="bottom"/>
  <anchor x="343" y="616" name="top"/>
  <outline>
    <contour>
      <point x="357" y="0" type="line"/>
      <point x="615" y="0" type="line"/>
      <point x="615" y="28" type="line"/>
      <point x="574" y="33"/>
      <point x="570" y="26"/>
      <point x="508" y="114" type="curve" smooth="yes"/>
      <point x="341" y="351"/>
      <point x="345" y="351"/>
      <point x="225" y="512" type="curve" smooth="yes"/>
      <point x="204" y="541"/>
      <point x="197" y="555"/>
      <point x="197" y="566" type="curve" smooth="yes"/>
      <point x="197" y="581"/>
      <point x="212" y="586"/>
      <point x="263" y="591" type="curve"/>
      <point x="263" y="616" type="line"/>
      <point x="21" y="616" type="line"/>
      <point x="21" y="588" type="line"/>
      <point x="55" y="588"/>
      <point x="71" y="587"/>
      <point x="136" y="494" type="curve" smooth="yes"/>
      <point x="282" y="286"/>
      <point x="288" y="286"/>
      <point x="413" y="105" type="curve" smooth="yes"/>
      <point x="433" y="76"/>
      <point x="444" y="58"/>
      <point x="444" y="47" type="curve" smooth="yes"/>
      <point x="444" y="30"/>
      <point x="420" y="29"/>
      <point x="357" y="25" type="curve"/>
    </contour>
    <contour>
      <point x="21" y="0" type="line"/>
      <point x="219" y="0" type="line"/>
      <point x="219" y="25" type="line"/>
      <point x="187" y="28"/>
      <point x="165" y="32"/>
      <point x="165" y="54" type="curve" smooth="yes"/>
      <point x="165" y="67"/>
      <point x="171" y="80"/>
      <point x="194" y="112" type="curve" smooth="yes"/>
      <point x="332" y="308" type="line"/>
      <point x="298" y="333" type="line"/>
      <point x="128" y="101" type="line" smooth="yes"/>
      <point x="66" y="17"/>
      <point x="52" y="30"/>
      <point x="21" y="28" type="curve"/>
    </contour>
    <contour>
      <point x="343" y="315" type="line"/>
      <point x="491" y="504" type="line" smooth="yes"/>
      <point x="552" y="582"/>
      <point x="577" y="585"/>
      <point x="615" y="588" type="curve"/>
      <point x="615" y="616" type="line"/>
      <point x="417" y="616" type="line"/>
      <point x="417" y="591" type="line"/>
      <point x="444" y="588"/>
      <point x="462" y="586"/>
      <point x="462" y="567" type="curve" smooth="yes"/>
      <point x="462" y="550"/>
      <point x="445" y="517"/>
      <point x="403" y="463" type="curve" smooth="yes"/>
      <point x="308" y="340" type="line"/>
    </contour>
  </outline>
</glyph>
<glyph name="Z" format="2">
  <advance width="663"/>
  <unicode hex="005A"/>
  <anchor x="330" y="0" name="bottom"/>
  <anchor x="330" y="308" name="center"/>
  <anchor x="329" y="615" name="top"/>
  <outline>
    <contour>
      <point x="50" y="0" type="line"/>
      <point x="177" y="0"/>
      <point x="372" y="1"/>
      <point x="401" y="1" type="curve" smooth="yes"/>
      <point x="431" y="1"/>
      <point x="501" y="1"/>
      <point x="542" y="-2" type="curve"/>
      <point x="568" y="57"/>
      <point x="590" y="143"/>
      <point x="600" y="210" type="curve"/>
      <point x="566" y="210" type="line"/>
      <point x="555" y="154"/>
      <point x="512" y="43"/>
      <point x="365" y="41" type="curve" smooth="yes"/>
      <point x="152" y="38" type="line"/>
      <point x="157" y="24" type="line"/>
      <point x="572" y="594" type="line"/>
      <point x="560" y="621" type="line"/>
      <point x="483" y="616"/>
      <point x="329" y="615"/>
      <point x="281" y="615" type="curve" smooth="yes"/>
      <point x="223" y="615"/>
      <point x="123" y="611"/>
      <point x="82" y="617" type="curve"/>
      <point x="73" y="554"/>
      <point x="67" y="490"/>
      <point x="66" y="427" type="curve"/>
      <point x="94" y="427" type="line"/>
      <point x="104" y="479"/>
      <point x="93" y="576"/>
      <point x="228" y="576" type="curve" smooth="yes"/>
      <point x="303" y="576"/>
      <point x="419" y="574"/>
      <point x="477" y="572" type="curve"/>
      <point x="467" y="596" type="line"/>
      <point x="42" y="12" type="line"/>
    </contour>
  </outline>
</glyph>
<glyph name="bracketleft" format="2">
  <advance width="327"/>
  <unicode hex="005B"/>
  <outline>
    <contour>
      <point x="187" y="656" type="line"/>
      <point x="306" y="656" type="line"/>
      <point x="306" y="692" type="line"/>
      <point x="115" y="692" type="line"/>
      <point x="130" y="416"/>
      <point x="130" y="140"/>
      <point x="115" y="-136" type="curve"/>
      <point x="306" y="-136" type="line"/>
      <point x="306" y="-100" type="line"/>
      <point x="187" y="-100" type="line"/>
    </contour>
  </outline>
</glyph>
<glyph name="backslash" format="2">
  <advance width="390"/>
  <unicode hex="005C"/>
  <outline>
    <contour>
      <point x="301" y="-102" type="line"/>
      <point x="348" y="-85" type="line"/>
      <point x="90" y="751" type="line"/>
      <point x="42" y="736" type="line"/>
    </contour>
  </outline>
</glyph>
<glyph name="bracketright" format="2">
  <advance width="327"/>
  <unicode hex="005D"/>
  <outline>
    <contour>
      <point x="140" y="656" type="line"/>
      <point x="140" y="-100" type="line"/>
      <point x="21" y="-100" type="line"/>
      <point x="21" y="-136" type="line"/>
      <point x="212" y="-136" type="line"/>
      <point x="197" y="140"/>
      <point x="197" y="416"/>
      <point x="212" y="692" type="curve"/>
      <point x="21" y="692" type="line"/>
      <point x="21" y="656" type="line"/>
    </contour>
  </outline>
</glyph>
<glyph name="asciicircum" format="2">
  <advance width="450"/>
  <unicode hex="005E"/>
  <outline>
    <contour>
      <point x="110" y="327" type="line"/>
      <point x="225" y="538" type="line"/>
      <point x="340" y="327" type="line"/>
      <point x="387" y="345" type="line"/>
      <point x="241" y="616" type="line"/>
      <point x="209" y="616" type="line"/>
      <point x="63" y="345" type="line"/>
    </contour>
  </outline>
</glyph>
<glyph name="a" format="2">
  <advance width="450"/>
  <unicode hex="0061"/>
  <anchor x="204" y="0" name="bottom"/>
  <anchor x="362" y="10" name="ogonek"/>
  <anchor x="221" y="385" name="top"/>
  <outline>
    <contour>
      <point x="359" y="-6" type="curve" smooth="yes"/>
      <point x="368" y="-6"/>
      <point x="401" y="8"/>
      <point x="440" y="27" type="curve"/>
      <point x="438" y="40" type="line"/>
      <point x="406" y="41" type="line" smooth="yes"/>
      <point x="381" y="42"/>
      <point x="363" y="60"/>
      <point x="363" y="84" type="curve" smooth="yes"/>
      <point x="363" y="51"/>
      <point x="365" y="133"/>
      <point x="367" y="290" type="curve"/>
      <point x="367" y="351"/>
      <point x="324" y="395"/>
      <point x="239" y="395" type="curve" smooth="yes"/>
      <point x="210" y="395"/>
      <point x="149" y="378"/>
      <point x="110" y="354" type="curve" smooth="yes"/>
      <point x="78" y="332"/>
      <point x="56" y="295"/>
      <point x="56" y="264" type="curve" smooth="yes"/>
      <point x="56" y="233"/>
      <point x="128" y="247"/>
      <point x="128" y="278" type="curve" smooth="yes"/>
      <point x="128" y="294"/>
      <point x="121" y="290"/>
      <point x="121" y="305" type="curve" smooth="yes"/>
      <point x="121" y="332"/>
      <point x="165" y="351"/>
      <point x="193" y="351" type="curve" smooth="yes"/>
      <point x="243" y="351"/>
      <point x="297" y="324"/>
      <point x="295" y="284" type="curve" smooth="yes"/>
      <point x="292" y="218" type="line"/>
      <point x="291" y="205"/>
      <point x="291" y="138"/>
      <point x="291" y="57" type="curve" smooth="yes"/>
      <point x="295" y="20"/>
      <point x="323" y="-6"/>
    </contour>
    <contour>
      <point x="125" y="-6" type="curve" smooth="yes"/>
      <point x="189" y="-6"/>
      <point x="272" y="24"/>
      <point x="312" y="66" type="curve"/>
      <point x="312" y="85" type="line"/>
      <point x="281" y="61"/>
      <point x="215" y="44"/>
      <point x="187" y="44" type="curve" smooth="yes"/>
      <point x="158" y="44"/>
      <point x="121" y="71"/>
      <point x="121" y="110" type="curve"/>
      <point x="42" y="94" type="line"/>
      <point x="42" y="35"/>
      <point x="73" y="-6"/>
    </contour>
    <contour>
      <point x="42" y="94" type="curve"/>
      <point x="121" y="110" type="line"/>
      <point x="121" y="131"/>
      <point x="228" y="158"/>
      <point x="323" y="175" type="curve"/>
      <point x="324" y="206" type="line"/>
      <point x="182" y="183"/>
      <point x="42" y="137"/>
    </contour>
  </outline>
</glyph>
<glyph name="b" format="2">
  <advance width="540"/>
  <unicode hex="0062"/>
  <anchor x="248" y="0" name="bottom"/>
  <anchor x="128" y="555" name="center"/>
  <anchor x="287" y="384" name="top"/>
  <outline>
    <contour>
      <point x="156" y="24" type="line"/>
      <point x="158" y="551" type="line"/>
      <point x="161" y="658" type="line"/>
      <point x="146" y="668" type="line"/>
      <point x="14" y="637" type="line"/>
      <point x="14" y="616" type="line"/>
      <point x="55" y="601"/>
      <point x="84" y="578"/>
      <point x="84" y="560" type="curve" smooth="yes"/>
      <point x="84" y="255"/>
      <point x="84" y="40"/>
      <point x="84" y="40" type="curve"/>
    </contour>
    <contour>
      <point x="498" y="221" type="curve"/>
      <point x="424" y="188" type="line"/>
      <point x="423" y="96"/>
      <point x="348" y="26"/>
      <point x="269" y="26" type="curve" smooth="yes"/>
      <point x="219" y="26"/>
      <point x="154" y="67"/>
      <point x="130" y="125" type="curve"/>
      <point x="84" y="40" type="line"/>
      <point x="121" y="10"/>
      <point x="196" y="-11"/>
      <point x="248" y="-11" type="curve" smooth="yes"/>
      <point x="384" y="-11"/>
      <point x="498" y="88"/>
    </contour>
    <contour>
      <point x="424" y="188" type="curve"/>
      <point x="498" y="221" type="line"/>
      <point x="498" y="326"/>
      <point x="407" y="395"/>
      <point x="305" y="395" type="curve" smooth="yes"/>
      <point x="252" y="395"/>
      <point x="169" y="360"/>
      <point x="120" y="310" type="curve"/>
      <point x="120" y="291" type="line"/>
      <point x="150" y="317"/>
      <point x="215" y="335"/>
      <point x="260" y="335" type="curve" smooth="yes"/>
      <point x="346" y="335"/>
      <point x="424" y="277"/>
    </contour>
  </outline>
</glyph>
<glyph name="c" format="2">
  <advance width="438"/>
  <unicode hex="0063"/>
  <anchor x="222" y="0" name="bottom"/>
  <anchor x="225" y="384" name="top"/>
  <outline>
    <contour>
      <point x="117" y="210" type="curve" smooth="yes"/>
      <point x="117" y="302"/>
      <point x="177" y="367"/>
      <point x="237" y="367" type="curve"/>
      <point x="251" y="395" type="line"/>
      <point x="139" y="395"/>
      <point x="42" y="309"/>
      <point x="42" y="188" type="curve" smooth="yes"/>
      <point x="42" y="71"/>
      <point x="135" y="-11"/>
      <point x="240" y="-11" type="curve" smooth="yes"/>
      <point x="311" y="-11"/>
      <point x="404" y="36"/>
      <point x="438" y="103" type="curve"/>
      <point x="420" y="116" type="line"/>
      <point x="392" y="79"/>
      <point x="315" y="52"/>
      <point x="261" y="52" type="curve" smooth="yes"/>
      <point x="187" y="52"/>
      <point x="117" y="117"/>
    </contour>
    <contour>
      <point x="251" y="395" type="curve"/>
      <point x="237" y="367" type="line"/>
      <point x="300" y="367"/>
      <point x="363" y="315"/>
      <point x="365" y="247" type="curve"/>
      <point x="399" y="247" type="line"/>
      <point x="397" y="296"/>
      <point x="398" y="349"/>
      <point x="402" y="371" type="curve"/>
      <point x="349" y="382"/>
      <point x="303" y="395"/>
    </contour>
  </outline>
</glyph>
<glyph name="d" format="2">
  <advance width="540"/>
  <unicode hex="0064"/>
  <anchor x="233" y="0" name="bottom"/>
  <anchor x="371" y="555" name="center"/>
  <anchor x="159" y="384" name="top"/>
  <anchor x="436" y="694" name="topright"/>
  <outline>
    <contour>
      <point x="119" y="220" type="curve"/>
      <point x="42" y="189" type="line"/>
      <point x="42" y="72"/>
      <point x="117" y="-11"/>
      <point x="223" y="-11" type="curve" smooth="yes"/>
      <point x="279" y="-11"/>
      <point x="359" y="22"/>
      <point x="416" y="69" type="curve"/>
      <point x="416" y="88" type="line"/>
      <point x="378" y="65"/>
      <point x="318" y="49"/>
      <point x="270" y="49" type="curve" smooth="yes"/>
      <point x="182" y="49"/>
      <point x="119" y="120"/>
    </contour>
    <contour>
      <point x="456" y="85" type="curve"/>
      <point x="384" y="58" type="line"/>
      <point x="385" y="58" type="line"/>
      <point x="384" y="-6" type="line"/>
      <point x="397" y="-12" type="line"/>
      <point x="528" y="21" type="line"/>
      <point x="528" y="42" type="line"/>
      <point x="474" y="57"/>
      <point x="456" y="75"/>
    </contour>
    <contour>
      <point x="42" y="189" type="curve"/>
      <point x="119" y="220" type="line"/>
      <point x="119" y="301"/>
      <point x="178" y="358"/>
      <point x="261" y="358" type="curve" smooth="yes"/>
      <point x="321" y="358"/>
      <point x="381" y="320"/>
      <point x="406" y="267" type="curve"/>
      <point x="432" y="356" type="line"/>
      <point x="400" y="379"/>
      <point x="338" y="395"/>
      <point x="282" y="395" type="curve" smooth="yes"/>
      <point x="141" y="395"/>
      <point x="42" y="310"/>
    </contour>
    <contour>
      <point x="384" y="58" type="line"/>
      <point x="456" y="85" type="line"/>
      <point x="456" y="557" type="line"/>
      <point x="458" y="658" type="line"/>
      <point x="443" y="668" type="line"/>
      <point x="314" y="637" type="line"/>
      <point x="314" y="616" type="line"/>
      <point x="355" y="599"/>
      <point x="384" y="577"/>
      <point x="384" y="563" type="curve" smooth="yes"/>
    </contour>
  </outline>
</glyph>
<glyph name="e" format="2">
  <advance width="441"/>
  <unicode hex="0065"/>
  <anchor x="221" y="0" name="bottom"/>
  <anchor x="295" y="10" name="ogonek"/>
  <anchor x="228" y="384" name="top"/>
  <outline>
    <contour>
      <point x="117" y="210" type="curve" smooth="yes"/>
      <point x="117" y="302"/>
      <point x="179" y="362"/>
      <point x="239" y="362" type="curve" smooth="yes"/>
      <point x="284" y="362"/>
      <point x="336" y="325"/>
      <point x="339" y="266" type="curve"/>
      <point x="94" y="260" type="line"/>
      <point x="90" y="231" type="line"/>
      <point x="408" y="225" type="line"/>
      <point x="420" y="239" type="line"/>
      <point x="420" y="330"/>
      <point x="340" y="395"/>
      <point x="253" y="395" type="curve" smooth="yes"/>
      <point x="141" y="395"/>
      <point x="42" y="309"/>
      <point x="42" y="188" type="curve" smooth="yes"/>
      <point x="42" y="71"/>
      <point x="133" y="-11"/>
      <point x="234" y="-11" type="curve" smooth="yes"/>
      <point x="296" y="-11"/>
      <point x="383" y="33"/>
      <point x="418" y="95" type="curve"/>
      <point x="400" y="108" type="line"/>
      <point x="377" y="75"/>
      <point x="307" y="52"/>
      <point x="255" y="52" type="curve" smooth="yes"/>
      <point x="186" y="52"/>
      <point x="117" y="117"/>
    </contour>
  </outline>
</glyph>
<glyph name="f" format="2">
  <advance width="339"/>
  <unicode hex="0066"/>
  <anchor x="168" y="0" name="bottom"/>
  <anchor x="168" y="694" name="top"/>
  <outline>
    <contour>
      <point x="33" y="18" type="curve"/>
      <point x="33" y="0" type="line"/>
      <point x="303" y="0" type="line"/>
      <point x="303" y="18" type="line"/>
      <point x="238" y="31"/>
      <point x="184" y="31"/>
      <point x="182" y="69" type="curve" smooth="yes"/>
      <point x="177" y="163"/>
      <point x="177" y="304"/>
      <point x="182" y="449" type="curve" smooth="yes"/>
      <point x="183" y="471"/>
      <point x="183" y="500"/>
      <point x="185" y="528" type="curve" smooth="yes"/>
      <point x="190" y="577"/>
      <point x="222" y="624"/>
      <point x="266" y="624" type="curve" smooth="yes"/>
      <point x="289" y="624"/>
      <point x="316" y="617"/>
      <point x="325" y="606" type="curve" smooth="yes"/>
      <point x="334" y="593"/>
      <point x="338" y="576"/>
      <point x="349" y="567" type="curve" smooth="yes"/>
      <point x="372" y="546"/>
      <point x="434" y="615"/>
      <point x="412" y="638" type="curve" smooth="yes"/>
      <point x="394" y="656"/>
      <point x="361" y="665"/>
      <point x="320" y="665" type="curve" smooth="yes"/>
      <point x="262" y="665"/>
      <point x="178" y="631"/>
      <point x="150" y="590" type="curve" smooth="yes"/>
      <point x="116" y="540"/>
      <point x="110" y="492"/>
      <point x="106" y="387" type="curve" smooth="yes"/>
      <point x="105" y="355"/>
      <point x="105" y="221"/>
      <point x="106" y="69" type="curve" smooth="yes"/>
      <point x="106" y="30"/>
      <point x="72" y="32"/>
    </contour>
    <contour>
      <point x="33" y="349" type="line"/>
      <point x="339" y="334" type="line"/>
      <point x="339" y="389" type="line"/>
      <point x="112" y="384" type="line"/>
      <point x="33" y="359" type="line"/>
    </contour>
  </outline>
</glyph>
<glyph name="g" format="2">
  <advance width="456"/>
  <unicode hex="0067"/>
  <anchor x="213" y="-196" name="bottom"/>
  <anchor x="212" y="384" name="top"/>
  <outline>
    <contour>
      <point x="259" y="374" type="line"/>
      <point x="309" y="342" type="line"/>
      <point x="456" y="332" type="line"/>
      <point x="456" y="389" type="line"/>
    </contour>
    <contour>
      <point x="42" y="43" type="curve" smooth="yes"/>
      <point x="42" y="5"/>
      <point x="81" y="-22"/>
      <point x="135" y="-22" type="curve" smooth="yes"/>
      <point x="168" y="-22"/>
      <point x="273" y="-22"/>
      <point x="322" y="-22" type="curve" smooth="yes"/>
      <point x="367" y="-22"/>
      <point x="399" y="-40"/>
      <point x="399" y="-66" type="curve" smooth="yes"/>
      <point x="399" y="-136"/>
      <point x="335" y="-183"/>
      <point x="227" y="-183" type="curve" smooth="yes"/>
      <point x="160" y="-183"/>
      <point x="90" y="-139"/>
      <point x="90" y="-86" type="curve" smooth="yes"/>
      <point x="90" y="-48"/>
      <point x="107" y="0"/>
      <point x="138" y="9" type="curve"/>
      <point x="110" y="15" type="line"/>
      <point x="57" y="-7"/>
      <point x="24" y="-72"/>
      <point x="24" y="-119" type="curve" smooth="yes"/>
      <point x="24" y="-175"/>
      <point x="75" y="-221"/>
      <point x="153" y="-221" type="curve" smooth="yes"/>
      <point x="344" y="-221"/>
      <point x="447" y="-143"/>
      <point x="447" y="-29" type="curve" smooth="yes"/>
      <point x="447" y="14"/>
      <point x="409" y="44"/>
      <point x="356" y="44" type="curve" smooth="yes"/>
      <point x="174" y="44" type="line" smooth="yes"/>
      <point x="136" y="44"/>
      <point x="109" y="58"/>
      <point x="109" y="77" type="curve" smooth="yes"/>
      <point x="109" y="90"/>
      <point x="128" y="122"/>
      <point x="154" y="142" type="curve"/>
      <point x="130" y="151" type="line"/>
      <point x="78" y="125"/>
      <point x="42" y="76"/>
    </contour>
    <contour>
      <point x="129" y="276" type="curve" smooth="yes"/>
      <point x="129" y="330"/>
      <point x="185" y="368"/>
      <point x="225" y="368" type="curve" smooth="yes"/>
      <point x="273" y="368"/>
      <point x="325" y="315"/>
      <point x="325" y="239" type="curve" smooth="yes"/>
      <point x="325" y="184"/>
      <point x="278" y="145"/>
      <point x="238" y="145" type="curve" smooth="yes"/>
      <point x="190" y="145"/>
      <point x="129" y="199"/>
    </contour>
    <contour>
      <point x="51" y="253" type="curve" smooth="yes"/>
      <point x="51" y="175"/>
      <point x="141" y="120"/>
      <point x="230" y="120" type="curve" smooth="yes"/>
      <point x="338" y="120"/>
      <point x="401" y="178"/>
      <point x="401" y="261" type="curve" smooth="yes"/>
      <point x="401" y="338"/>
      <point x="339" y="393"/>
      <point x="234" y="393" type="curve" smooth="yes"/>
      <point x="143" y="393"/>
      <point x="51" y="335"/>
    </contour>
  </outline>
</glyph>
<glyph name="h" format="2">
  <advance width="546"/>
  <unicode hex="0068"/>
  <anchor x="255" y="0" name="bottom"/>
  <anchor x="134" y="555" name="center"/>
  <anchor x="129" y="640" name="top"/>
  <outline>
    <contour>
      <point x="30" y="18" type="curve"/>
      <point x="30" y="0" type="line"/>
      <point x="228" y="0" type="line"/>
      <point x="228" y="18" type="line"/>
      <point x="181" y="32"/>
      <point x="156" y="39"/>
      <point x="156" y="68" type="curve" smooth="yes"/>
      <point x="156" y="557" type="line"/>
      <point x="158" y="658" type="line"/>
      <point x="143" y="668" type="line"/>
      <point x="12" y="637" type="line"/>
      <point x="12" y="616" type="line"/>
      <point x="33" y="608"/>
      <point x="84" y="595"/>
      <point x="84" y="563" type="curve" smooth="yes"/>
      <point x="84" y="68" type="line" smooth="yes"/>
      <point x="84" y="39"/>
      <point x="60" y="32"/>
    </contour>
    <contour>
      <point x="336" y="0" type="line"/>
      <point x="516" y="0" type="line"/>
      <point x="516" y="18" type="line"/>
      <point x="478" y="32"/>
      <point x="462" y="37"/>
      <point x="462" y="68" type="curve" smooth="yes"/>
      <point x="462" y="273" type="line" smooth="yes"/>
      <point x="462" y="355"/>
      <point x="410" y="395"/>
      <point x="340" y="395" type="curve" smooth="yes"/>
      <point x="290" y="395"/>
      <point x="201" y="365"/>
      <point x="135" y="305" type="curve"/>
      <point x="135" y="286" type="line"/>
      <point x="195" y="329"/>
      <point x="260" y="335"/>
      <point x="295" y="335" type="curve" smooth="yes"/>
      <point x="347" y="335"/>
      <point x="386" y="306"/>
      <point x="390" y="246" type="curve" smooth="yes"/>
      <point x="394" y="187"/>
      <point x="394" y="127"/>
      <point x="390" y="68" type="curve" smooth="yes"/>
      <point x="388" y="38"/>
      <point x="363" y="32"/>
      <point x="336" y="18" type="curve"/>
    </contour>
  </outline>
</glyph>
<glyph name="k" format="2">
  <advance width="480"/>
  <unicode hex="006B"/>
  <anchor x="246" y="0" name="bottom"/>
  <anchor x="282" y="568" name="top"/>
  <outline>
    <contour>
      <point x="30" y="18" type="curve"/>
      <point x="30" y="0" type="line"/>
      <point x="210" y="0" type="line"/>
      <point x="210" y="18" type="line"/>
      <point x="175" y="32"/>
      <point x="156" y="39"/>
      <point x="156" y="68" type="curve" smooth="yes"/>
      <point x="156" y="557" type="line"/>
      <point x="158" y="658" type="line"/>
      <point x="143" y="665" type="line"/>
      <point x="12" y="637" type="line"/>
      <point x="12" y="616" type="line"/>
      <point x="33" y="608"/>
      <point x="84" y="595"/>
      <point x="84" y="563" type="curve" smooth="yes"/>
      <point x="84" y="68" type="line" smooth="yes"/>
      <point x="84" y="39"/>
      <point x="67" y="32"/>
    </contour>
    <contour>
      <point x="123" y="178" type="curve"/>
      <point x="135" y="145" type="line"/>
      <point x="212" y="195"/>
      <point x="280" y="256"/>
      <point x="337" y="326" type="curve" smooth="yes"/>
      <point x="351" y="343"/>
      <point x="376" y="351"/>
      <point x="426" y="361" type="curve"/>
      <point x="426" y="384" type="line"/>
      <point x="246" y="384" type="line"/>
      <point x="246" y="361" type="line"/>
      <point x="295" y="356"/>
      <point x="302" y="354"/>
      <point x="266" y="304" type="curve" smooth="yes"/>
      <point x="228" y="252"/>
      <point x="181" y="210"/>
    </contour>
    <contour>
      <point x="254" y="264" type="line"/>
      <point x="194" y="213" type="line"/>
      <point x="317" y="54" type="line" smooth="yes"/>
      <point x="328" y="40"/>
      <point x="321" y="23"/>
      <point x="282" y="20" type="curve"/>
      <point x="282" y="0" type="line"/>
      <point x="480" y="0" type="line"/>
      <point x="480" y="23" type="line"/>
      <point x="450" y="26"/>
      <point x="424" y="38"/>
      <point x="411" y="55" type="curve" smooth="yes"/>
    </contour>
  </outline>
</glyph>
<glyph name="l" format="2">
  <advance width="241"/>
  <unicode hex="006C"/>
  <anchor x="121" y="0" name="bottom"/>
  <anchor x="121" y="192" name="center"/>
  <anchor x="121" y="640" name="top"/>
  <anchor x="173" y="694" name="topright"/>
  <outline>
    <contour>
      <point x="12" y="18" type="curve"/>
      <point x="12" y="0" type="line"/>
      <point x="228" y="0" type="line"/>
      <point x="228" y="18" type="line"/>
      <point x="181" y="32"/>
      <point x="157" y="39"/>
      <point x="157" y="68" type="curve" smooth="yes"/>
      <point x="157" y="557" type="line"/>
      <point x="160" y="658" type="line"/>
      <point x="143" y="668" type="line"/>
      <point x="12" y="637" type="line"/>
      <point x="12" y="616" type="line"/>
      <point x="33" y="608"/>
      <point x="84" y="595"/>
      <point x="84" y="563" type="curve" smooth="yes"/>
      <point x="84" y="68" type="line" smooth="yes"/>
      <point x="84" y="39"/>
      <point x="60" y="32"/>
    </contour>
  </outline>
</glyph>
<glyph name="m" format="2">
  <advance width="837"/>
  <unicode hex="006D"/>
  <anchor x="384" y="0" name="bottom"/>
  <anchor x="384" y="384" name="top"/>
  <outline>
    <contour>
      <point x="339" y="0" type="line"/>
      <point x="519" y="0" type="line"/>
      <point x="519" y="18" type="line"/>
      <point x="483" y="32"/>
      <point x="465" y="37"/>
      <point x="465" y="68" type="curve" smooth="yes"/>
      <point x="465" y="273" type="line" smooth="yes"/>
      <point x="465" y="355"/>
      <point x="431" y="395"/>
      <point x="343" y="395" type="curve" smooth="yes"/>
      <point x="293" y="395"/>
      <point x="213" y="365"/>
      <point x="147" y="305" type="curve"/>
      <point x="147" y="286" type="line"/>
      <point x="207" y="329"/>
      <point x="262" y="335"/>
      <point x="297" y="335" type="curve" smooth="yes"/>
      <point x="368" y="335"/>
      <point x="390" y="306"/>
      <point x="393" y="246" type="curve" smooth="yes"/>
      <point x="396" y="187"/>
      <point x="396" y="127"/>
      <point x="393" y="68" type="curve" smooth="yes"/>
      <point x="391" y="38"/>
      <point x="366" y="24"/>
      <point x="339" y="18" type="curve"/>
    </contour>
    <contour>
      <point x="33" y="0" type="line"/>
      <point x="249" y="0" type="line"/>
      <point x="249" y="18" type="line"/>
      <point x="202" y="32"/>
      <point x="175" y="38"/>
      <point x="175" y="68" type="curve" smooth="yes"/>
      <point x="175" y="315" type="line"/>
      <point x="174" y="315" type="line"/>
      <point x="175" y="394" type="line"/>
      <point x="164" y="403" type="line"/>
      <point x="33" y="362" type="line"/>
      <point x="33" y="341" type="line"/>
      <point x="62" y="333"/>
      <point x="102" y="319"/>
      <point x="103" y="298" type="curve" smooth="yes"/>
      <point x="106" y="223"/>
      <point x="106" y="143"/>
      <point x="103" y="68" type="curve" smooth="yes"/>
      <point x="102" y="37"/>
      <point x="77" y="32"/>
      <point x="33" y="18" type="curve"/>
    </contour>
    <contour>
      <point x="609" y="0" type="line"/>
      <point x="825" y="0" type="line"/>
      <point x="825" y="18" type="line"/>
      <point x="779" y="32"/>
      <point x="753" y="37"/>
      <point x="753" y="68" type="curve" smooth="yes"/>
      <point x="753" y="273" type="line" smooth="yes"/>
      <point x="753" y="355"/>
      <point x="701" y="395"/>
      <point x="631" y="395" type="curve" smooth="yes"/>
      <point x="581" y="395"/>
      <point x="503" y="365"/>
      <point x="437" y="305" type="curve"/>
      <point x="437" y="286" type="line"/>
      <point x="497" y="329"/>
      <point x="555" y="335"/>
      <point x="586" y="335" type="curve" smooth="yes"/>
      <point x="638" y="335"/>
      <point x="676" y="306"/>
      <point x="680" y="246" type="curve" smooth="yes"/>
      <point x="684" y="187"/>
      <point x="684" y="127"/>
      <point x="680" y="68" type="curve" smooth="yes"/>
      <point x="678" y="38"/>
      <point x="663" y="24"/>
      <point x="609" y="18" type="curve"/>
    </contour>
  </outline>
</glyph>
<glyph name="n" format="2">
  <advance width="549"/>
  <unicode hex="006E"/>
  <anchor x="245" y="0" name="bottom"/>
  <anchor x="242" y="384" name="top"/>
  <outline>
    <contour>
      <point x="339" y="0" type="line"/>
      <point x="537" y="0" type="line"/>
      <point x="537" y="18" type="line"/>
      <point x="489" y="32"/>
      <point x="465" y="37"/>
      <point x="465" y="68" type="curve" smooth="yes"/>
      <point x="465" y="273" type="line" smooth="yes"/>
      <point x="465" y="355"/>
      <point x="415" y="395"/>
      <point x="345" y="395" type="curve" smooth="yes"/>
      <point x="295" y="395"/>
      <point x="220" y="365"/>
      <point x="154" y="305" type="curve"/>
      <point x="154" y="286" type="line"/>
      <point x="214" y="329"/>
      <point x="265" y="335"/>
      <point x="300" y="335" type="curve" smooth="yes"/>
      <point x="352" y="335"/>
      <point x="389" y="306"/>
      <point x="393" y="246" type="curve" smooth="yes"/>
      <point x="397" y="189"/>
      <point x="397" y="125"/>
      <point x="393" y="68" type="curve" smooth="yes"/>
      <point x="391" y="38"/>
      <point x="367" y="24"/>
      <point x="339" y="18" type="curve"/>
    </contour>
    <contour>
      <point x="33" y="0" type="line"/>
      <point x="231" y="0" type="line"/>
      <point x="231" y="18" type="line"/>
      <point x="197" y="32"/>
      <point x="177" y="38"/>
      <point x="177" y="68" type="curve" smooth="yes"/>
      <point x="177" y="315" type="line"/>
      <point x="179" y="315" type="line"/>
      <point x="180" y="397" type="line"/>
      <point x="165" y="403" type="line"/>
      <point x="33" y="362" type="line"/>
      <point x="33" y="341" type="line"/>
      <point x="61" y="333"/>
      <point x="101" y="319"/>
      <point x="104" y="298" type="curve" smooth="yes"/>
      <point x="106" y="284"/>
      <point x="104" y="129"/>
      <point x="104" y="68" type="curve" smooth="yes"/>
      <point x="104" y="36"/>
      <point x="81" y="32"/>
      <point x="33" y="18" type="curve"/>
    </contour>
  </outline>
</glyph>
<glyph name="o" format="2">
  <advance width="534"/>
  <unicode hex="006F"/>
  <anchor x="249" y="0" name="bottom"/>
  <anchor x="249" y="192" name="center"/>
  <anchor x="336" y="10" name="ogonek"/>
  <anchor x="244" y="384" name="top"/>
  <anchor x="349" y="291" name="topright"/>
  <outline>
    <contour>
      <point x="263" y="-8" type="curve" smooth="yes"/>
      <point x="397" y="-8"/>
      <point x="492" y="77"/>
      <point x="492" y="196" type="curve" smooth="yes"/>
      <point x="492" y="311"/>
      <point x="397" y="392"/>
      <point x="263" y="392" type="curve" smooth="yes"/>
      <point x="134" y="392"/>
      <point x="42" y="306"/>
      <point x="42" y="185" type="curve" smooth="yes"/>
      <point x="42" y="72"/>
      <point x="134" y="-8"/>
    </contour>
    <contour>
      <point x="124" y="208" type="curve" smooth="yes"/>
      <point x="124" y="295"/>
      <point x="178" y="356"/>
      <point x="255" y="356" type="curve" smooth="yes"/>
      <point x="346" y="356"/>
      <point x="410" y="281"/>
      <point x="410" y="174" type="curve" smooth="yes"/>
      <point x="410" y="88"/>
      <point x="352" y="28"/>
      <point x="271" y="28" type="curve" smooth="yes"/>
      <point x="185" y="28"/>
      <point x="124" y="103"/>
    </contour>
  </outline>
</glyph>
<glyph name="p" format="2">
  <advance width="540"/>
  <unicode hex="0070"/>
  <anchor x="255" y="0" name="bottom"/>
  <anchor x="272" y="384" name="top"/>
  <outline>
    <contour>
      <point x="419" y="174" type="curve"/>
      <point x="498" y="205" type="line"/>
      <point x="498" y="316"/>
      <point x="409" y="395"/>
      <point x="311" y="395" type="curve" smooth="yes"/>
      <point x="266" y="395"/>
      <point x="177" y="362"/>
      <point x="120" y="315" type="curve"/>
      <point x="120" y="296" type="line"/>
      <point x="158" y="319"/>
      <point x="229" y="335"/>
      <point x="266" y="335" type="curve" smooth="yes"/>
      <point x="344" y="335"/>
      <point x="419" y="268"/>
    </contour>
    <contour>
      <point x="30" y="-232" type="line"/>
      <point x="264" y="-232" type="line"/>
      <point x="264" y="-214" type="line"/>
      <point x="210" y="-204"/>
      <point x="156" y="-201"/>
      <point x="156" y="-164" type="curve" smooth="yes"/>
      <point x="156" y="316" type="line"/>
      <point x="155" y="316" type="line"/>
      <point x="156" y="395" type="line"/>
      <point x="143" y="403" type="line"/>
      <point x="12" y="363" type="line"/>
      <point x="12" y="342" type="line"/>
      <point x="59" y="327"/>
      <point x="84" y="310"/>
      <point x="84" y="299" type="curve" smooth="yes"/>
      <point x="84" y="-164" type="line" smooth="yes"/>
      <point x="84" y="-197"/>
      <point x="66" y="-204"/>
      <point x="30" y="-214" type="curve"/>
    </contour>
    <contour>
      <point x="498" y="205" type="curve"/>
      <point x="419" y="174" type="line"/>
      <point x="419" y="87"/>
      <point x="345" y="26"/>
      <point x="267" y="26" type="curve" smooth="yes"/>
      <point x="224" y="26"/>
      <point x="155" y="64"/>
      <point x="130" y="117" type="curve"/>
      <point x="104" y="28" type="line"/>
      <point x="136" y="5"/>
      <point x="206" y="-11"/>
      <point x="246" y="-11" type="curve" smooth="yes"/>
      <point x="383" y="-11"/>
      <point x="498" y="78"/>
    </contour>
  </outline>
</glyph>
<glyph name="q" format="2">
  <advance width="540"/>
  <unicode hex="0071"/>
  <anchor x="249" y="0" name="bottom"/>
  <anchor x="249" y="384" name="top"/>
  <outline>
    <contour>
      <point x="385" y="377" type="curve"/>
      <point x="383" y="-164" type="line"/>
      <point x="457" y="-164" type="line"/>
      <point x="456" y="-39"/>
      <point x="456" y="269"/>
      <point x="457" y="394" type="curve"/>
      <point x="433" y="383"/>
      <point x="409" y="371"/>
    </contour>
    <contour>
      <point x="42" y="168" type="curve"/>
      <point x="116" y="201" type="line"/>
      <point x="117" y="288"/>
      <point x="184" y="358"/>
      <point x="253" y="358" type="curve" smooth="yes"/>
      <point x="303" y="358"/>
      <point x="379" y="314"/>
      <point x="402" y="259" type="curve"/>
      <point x="448" y="344" type="line"/>
      <point x="413" y="372"/>
      <point x="326" y="395"/>
      <point x="274" y="395" type="curve" smooth="yes"/>
      <point x="151" y="395"/>
      <point x="42" y="294"/>
    </contour>
    <contour>
      <point x="116" y="201" type="curve"/>
      <point x="42" y="168" type="line"/>
      <point x="42" y="68"/>
      <point x="108" y="-11"/>
      <point x="199" y="-11" type="curve" smooth="yes"/>
      <point x="267" y="-11"/>
      <point x="362" y="27"/>
      <point x="408" y="74" type="curve"/>
      <point x="408" y="93" type="line"/>
      <point x="380" y="68"/>
      <point x="305" y="49"/>
      <point x="262" y="49" type="curve" smooth="yes"/>
      <point x="187" y="49"/>
      <point x="116" y="116"/>
    </contour>
    <contour>
      <point x="383" y="-164" type="line"/>
      <point x="383" y="-201"/>
      <point x="340" y="-202"/>
      <point x="276" y="-214" type="curve"/>
      <point x="276" y="-232" type="line"/>
      <point x="510" y="-232" type="line"/>
      <point x="510" y="-214" type="line"/>
      <point x="480" y="-202"/>
      <point x="457" y="-201"/>
      <point x="457" y="-164" type="curve"/>
    </contour>
  </outline>
</glyph>
<glyph name="r" format="2">
  <advance width="361"/>
  <unicode hex="0072"/>
  <anchor x="141" y="0" name="bottom"/>
  <anchor x="177" y="384" name="top"/>
  <outline>
    <contour>
      <point x="148" y="267" type="curve"/>
      <point x="150" y="228" type="line"/>
      <point x="194" y="285"/>
      <point x="227" y="320"/>
      <point x="259" y="320" type="curve" smooth="yes"/>
      <point x="271" y="320"/>
      <point x="280" y="307"/>
      <point x="293" y="294" type="curve" smooth="yes"/>
      <point x="315" y="272"/>
      <point x="378" y="351"/>
      <point x="356" y="373" type="curve" smooth="yes"/>
      <point x="344" y="384"/>
      <point x="325" y="393"/>
      <point x="303" y="393" type="curve" smooth="yes"/>
      <point x="264" y="393"/>
      <point x="221" y="363"/>
    </contour>
    <contour>
      <point x="33" y="0" type="line"/>
      <point x="267" y="0" type="line"/>
      <point x="267" y="18" type="line"/>
      <point x="205" y="32"/>
      <point x="176" y="38"/>
      <point x="176" y="68" type="curve" smooth="yes"/>
      <point x="176" y="295" type="line"/>
      <point x="177" y="295" type="line"/>
      <point x="180" y="394" type="line"/>
      <point x="165" y="403" type="line"/>
      <point x="33" y="362" type="line"/>
      <point x="33" y="341" type="line"/>
      <point x="62" y="333"/>
      <point x="101" y="319"/>
      <point x="102" y="298" type="curve" smooth="yes"/>
      <point x="106" y="223"/>
      <point x="106" y="143"/>
      <point x="104" y="68" type="curve" smooth="yes"/>
      <point x="103" y="37"/>
      <point x="77" y="32"/>
      <point x="33" y="18" type="curve"/>
    </contour>
  </outline>
</glyph>
<glyph name="s" format="2">
  <advance width="390"/>
  <unicode hex="0073"/>
  <anchor x="167" y="0" name="bottom"/>
  <anchor x="182" y="384" name="top"/>
  <outline>
    <contour>
      <point x="182" y="-9" type="curve" smooth="yes"/>
      <point x="279" y="-9"/>
      <point x="348" y="39"/>
      <point x="348" y="108" type="curve" smooth="yes"/>
      <point x="348" y="226"/>
      <point x="114" y="222"/>
      <point x="116" y="310" type="curve" smooth="yes"/>
      <point x="117" y="344"/>
      <point x="152" y="368"/>
      <point x="200" y="368" type="curve" smooth="yes"/>
      <point x="258" y="368"/>
      <point x="300" y="334"/>
      <point x="302" y="285" type="curve"/>
      <point x="328" y="285" type="line"/>
      <point x="327" y="325"/>
      <point x="328" y="363"/>
      <point x="331" y="376" type="curve"/>
      <point x="299" y="388"/>
      <point x="245" y="396"/>
      <point x="200" y="396" type="curve" smooth="yes"/>
      <point x="112" y="396"/>
      <point x="50" y="347"/>
      <point x="50" y="278" type="curve" smooth="yes"/>
      <point x="50" y="154"/>
      <point x="280" y="171"/>
      <point x="280" y="80" type="curve" smooth="yes"/>
      <point x="280" y="41"/>
      <point x="241" y="15"/>
      <point x="185" y="19" type="curve" smooth="yes"/>
      <point x="123" y="23"/>
      <point x="75" y="68"/>
      <point x="69" y="128" type="curve"/>
      <point x="42" y="128" type="line"/>
      <point x="46" y="109"/>
      <point x="47" y="61"/>
      <point x="45" y="12" type="curve"/>
      <point x="88" y="0"/>
      <point x="145" y="-9"/>
    </contour>
  </outline>
</glyph>
<glyph name="t" format="2">
  <advance width="300"/>
  <unicode hex="0074"/>
  <anchor x="174" y="0" name="bottom"/>
  <anchor x="156" y="192" name="center"/>
  <anchor x="156" y="405" name="top"/>
  <anchor x="242" y="703" name="topright"/>
  <outline>
    <contour>
      <point x="170" y="-11" type="curve" smooth="yes"/>
      <point x="211" y="-11"/>
      <point x="265" y="5"/>
      <point x="300" y="27" type="curve"/>
      <point x="290" y="48" type="line"/>
      <point x="271" y="40"/>
      <point x="242" y="34"/>
      <point x="222" y="34" type="curve" smooth="yes"/>
      <point x="189" y="34"/>
      <point x="163" y="52"/>
      <point x="161" y="78" type="curve" smooth="yes"/>
      <point x="159" y="108"/>
      <point x="158" y="153"/>
      <point x="158" y="186" type="curve" smooth="yes"/>
      <point x="158" y="316"/>
      <point x="166" y="433"/>
      <point x="171" y="468" type="curve"/>
      <point x="152" y="474" type="line"/>
      <point x="90" y="381" type="line"/>
      <point x="84" y="237"/>
      <point x="80" y="98"/>
      <point x="86" y="46" type="curve" smooth="yes"/>
      <point x="90" y="13"/>
      <point x="125" y="-11"/>
    </contour>
    <contour>
      <point x="12" y="349" type="line"/>
      <point x="294" y="334" type="line"/>
      <point x="294" y="389" type="line"/>
      <point x="94" y="384" type="line"/>
      <point x="12" y="359" type="line"/>
    </contour>
    <contour>
      <point x="12" y="359" type="curve"/>
      <point x="126" y="361" type="line"/>
      <point x="152" y="474" type="line"/>
      <point x="116" y="423"/>
      <point x="60" y="375"/>
    </contour>
  </outline>
</glyph>
<glyph name="u" format="2">
  <advance width="548"/>
  <unicode hex="0075"/>
  <anchor x="232" y="0" name="bottom"/>
  <anchor x="387" y="10" name="ogonek"/>
  <anchor x="237" y="384" name="top"/>
  <anchor x="381" y="326" name="topright"/>
  <outline>
    <contour>
      <point x="160" y="394" type="curve"/>
      <point x="147" y="403" type="line"/>
      <point x="12" y="369" type="line"/>
      <point x="12" y="351" type="line"/>
      <point x="60" y="337"/>
      <point x="86" y="332"/>
      <point x="86" y="301" type="curve" smooth="yes"/>
      <point x="83" y="111" type="line" smooth="yes"/>
      <point x="82" y="40"/>
      <point x="142" y="-11"/>
      <point x="229" y="-11" type="curve" smooth="yes"/>
      <point x="276" y="-11"/>
      <point x="347" y="30"/>
      <point x="400" y="89" type="curve"/>
      <point x="400" y="108" type="line"/>
      <point x="366" y="73"/>
      <point x="310" y="49"/>
      <point x="264" y="49" type="curve" smooth="yes"/>
      <point x="202" y="49"/>
      <point x="157" y="89"/>
      <point x="155" y="145" type="curve" smooth="yes"/>
      <point x="153" y="201"/>
      <point x="157" y="265"/>
      <point x="158" y="321" type="curve" smooth="yes"/>
      <point x="158" y="345"/>
      <point x="160" y="370"/>
    </contour>
    <contour>
      <point x="447" y="394" type="line"/>
      <point x="434" y="403" type="line"/>
      <point x="300" y="369" type="line"/>
      <point x="300" y="351" type="line"/>
      <point x="346" y="337"/>
      <point x="369" y="331"/>
      <point x="371" y="301" type="curve" smooth="yes"/>
      <point x="374" y="246"/>
      <point x="373" y="148"/>
      <point x="368" y="64" type="curve"/>
      <point x="371" y="64" type="line"/>
      <point x="370" y="-5" type="line"/>
      <point x="383" y="-11" type="line"/>
      <point x="516" y="17" type="line"/>
      <point x="516" y="38" type="line"/>
      <point x="483" y="41"/>
      <point x="442" y="55"/>
      <point x="442" y="76" type="curve" smooth="yes"/>
      <point x="445" y="321" type="line"/>
    </contour>
  </outline>
</glyph>
<glyph name="v" format="2">
  <advance width="468"/>
  <unicode hex="0076"/>
  <anchor x="224" y="0" name="bottom"/>
  <anchor x="238" y="384" name="top"/>
  <outline>
    <contour>
      <point x="68" y="308" type="curve" smooth="yes"/>
      <point x="230" y="0" type="line"/>
      <point x="258" y="0" type="line"/>
      <point x="402" y="302" type="line" smooth="yes"/>
      <point x="411" y="321"/>
      <point x="420" y="335"/>
      <point x="431" y="345" type="curve" smooth="yes"/>
      <point x="441" y="353"/>
      <point x="453" y="358"/>
      <point x="468" y="361" type="curve"/>
      <point x="468" y="384" type="line"/>
      <point x="324" y="384" type="line"/>
      <point x="324" y="361" type="line"/>
      <point x="335" y="359"/>
      <point x="354" y="358"/>
      <point x="365" y="351" type="curve" smooth="yes"/>
      <point x="371" y="348"/>
      <point x="375" y="343"/>
      <point x="375" y="336" type="curve" smooth="yes"/>
      <point x="375" y="330"/>
      <point x="373" y="319"/>
      <point x="366" y="304" type="curve" smooth="yes"/>
      <point x="259" y="72" type="line"/>
      <point x="279" y="72" type="line"/>
      <point x="146" y="318" type="line" smooth="yes"/>
      <point x="141" y="327"/>
      <point x="141" y="333"/>
      <point x="141" y="337" type="curve" smooth="yes"/>
      <point x="141" y="344"/>
      <point x="145" y="349"/>
      <point x="152" y="353" type="curve" smooth="yes"/>
      <point x="165" y="359"/>
      <point x="187" y="360"/>
      <point x="198" y="361" type="curve"/>
      <point x="198" y="384" type="line"/>
      <point x="0" y="384" type="line"/>
      <point x="0" y="361" type="line"/>
      <point x="25" y="359"/>
      <point x="36" y="356"/>
      <point x="45" y="348" type="curve" smooth="yes"/>
      <point x="53" y="340"/>
      <point x="58" y="327"/>
    </contour>
  </outline>
</glyph>
<glyph name="z" format="2">
  <advance width="464"/>
  <unicode hex="007A"/>
  <anchor x="231" y="0" name="bottom"/>
  <anchor x="231" y="192" name="center"/>
  <anchor x="258" y="384" name="top"/>
  <outline>
    <contour>
      <point x="47" y="-5" type="line"/>
      <point x="158" y="1"/>
      <point x="311" y="0"/>
      <point x="422" y="0" type="curve"/>
      <point x="422" y="121" type="line"/>
      <point x="394" y="121" type="line"/>
      <point x="385" y="66"/>
      <point x="377" y="35"/>
      <point x="352" y="35" type="curve" smooth="yes"/>
      <point x="91" y="35" type="line"/>
      <point x="145" y="16" type="line"/>
      <point x="414" y="354" type="line"/>
      <point x="414" y="391" type="line"/>
      <point x="323" y="386"/>
      <point x="271" y="383"/>
      <point x="143" y="383" type="curve" smooth="yes"/>
      <point x="131" y="383"/>
      <point x="118" y="387"/>
      <point x="122" y="420" type="curve"/>
      <point x="92" y="429" type="line"/>
      <point x="42" y="263" type="line"/>
      <point x="72" y="254" type="line"/>
      <point x="85" y="306"/>
      <point x="123" y="348"/>
      <point x="144" y="348" type="curve" smooth="yes"/>
      <point x="364" y="349" type="line"/>
      <point x="327" y="366" type="line"/>
      <point x="47" y="13" type="line"/>
    </contour>
  </outline>
</glyph>
<glyph name="braceleft" format="2">
  <advance width="375"/>
  <unicode hex="007B"/>
  <outline>
    <contour>
      <point x="333" y="-144" type="curve"/>
      <point x="333" y="-108" type="line"/>
      <point x="277" y="-108"/>
      <point x="237" y="-70"/>
      <point x="237" y="-16" type="curve" smooth="yes"/>
      <point x="237" y="157" type="line" smooth="yes"/>
      <point x="237" y="201"/>
      <point x="202" y="252"/>
      <point x="153" y="279" type="curve"/>
      <point x="202" y="306"/>
      <point x="237" y="357"/>
      <point x="237" y="401" type="curve" smooth="yes"/>
      <point x="237" y="574" type="line" smooth="yes"/>
      <point x="237" y="628"/>
      <point x="277" y="666"/>
      <point x="333" y="666" type="curve"/>
      <point x="333" y="702" type="line"/>
      <point x="242" y="702"/>
      <point x="178" y="649"/>
      <point x="178" y="574" type="curve" smooth="yes"/>
      <point x="178" y="385" type="line" smooth="yes"/>
      <point x="178" y="329"/>
      <point x="137" y="289"/>
      <point x="63" y="289" type="curve"/>
      <point x="63" y="269" type="line"/>
      <point x="137" y="269"/>
      <point x="178" y="229"/>
      <point x="178" y="173" type="curve" smooth="yes"/>
      <point x="178" y="-16" type="line" smooth="yes"/>
      <point x="178" y="-91"/>
      <point x="242" y="-144"/>
    </contour>
  </outline>
</glyph>
<glyph name="bar" format="2">
  <advance width="246"/>
  <unicode hex="007C"/>
  <outline>
    <contour>
      <point x="105" y="-232" type="line"/>
      <point x="141" y="-232" type="line"/>
      <point x="141" y="693" type="line"/>
      <point x="105" y="694" type="line"/>
    </contour>
  </outline>
</glyph>
<glyph name="braceright" format="2">
  <advance width="375"/>
  <unicode hex="007D"/>
  <outline>
    <contour>
      <point x="42" y="-144" type="line"/>
      <point x="133" y="-144"/>
      <point x="197" y="-91"/>
      <point x="197" y="-16" type="curve" smooth="yes"/>
      <point x="197" y="173" type="line" smooth="yes"/>
      <point x="197" y="229"/>
      <point x="238" y="269"/>
      <point x="312" y="269" type="curve"/>
      <point x="312" y="289" type="line"/>
      <point x="238" y="289"/>
      <point x="197" y="329"/>
      <point x="197" y="385" type="curve" smooth="yes"/>
      <point x="197" y="574" type="line" smooth="yes"/>
      <point x="197" y="649"/>
      <point x="133" y="702"/>
      <point x="42" y="702" type="curve"/>
      <point x="42" y="666" type="line"/>
      <point x="98" y="666"/>
      <point x="138" y="628"/>
      <point x="138" y="574" type="curve" smooth="yes"/>
      <point x="138" y="401" type="line" smooth="yes"/>
      <point x="138" y="357"/>
      <point x="173" y="306"/>
      <point x="222" y="279" type="curve"/>
      <point x="173" y="252"/>
      <point x="138" y="201"/>
      <point x="138" y="157" type="curve" smooth="yes"/>
      <point x="138" y="-16" type="line" smooth="yes"/>
      <point x="138" y="-70"/>
      <point x="98" y="-108"/>
      <point x="42" y="-108" type="curve"/>
    </contour>
  </outline>
</glyph>
<glyph name="asciitilde" format="2">
  <advance width="618"/>
  <unicode hex="007E"/>
  <outline>
    <contour>
      <point x="400" y="212" type="curve" smooth="yes"/>
      <point x="462" y="212"/>
      <point x="519" y="265"/>
      <point x="534" y="341" type="curve"/>
      <point x="486" y="347" type="line"/>
      <point x="474" y="296"/>
      <point x="439" y="258"/>
      <point x="406" y="258" type="curve" smooth="yes"/>
      <point x="333" y="258"/>
      <point x="307" y="368"/>
      <point x="218" y="368" type="curve" smooth="yes"/>
      <point x="156" y="368"/>
      <point x="99" y="315"/>
      <point x="84" y="239" type="curve"/>
      <point x="132" y="233" type="line"/>
      <point x="144" y="284"/>
      <point x="179" y="322"/>
      <point x="212" y="322" type="curve" smooth="yes"/>
      <point x="285" y="322"/>
      <point x="311" y="212"/>
    </contour>
  </outline>
</glyph>
<glyph name="exclamdown" format="2">
  <advance width="234"/>
  <unicode hex="00A1"/>
  <outline>
    <contour>
      <point x="116" y="468" type="curve" smooth="yes"/>
      <point x="93" y="468"/>
      <point x="78" y="449"/>
      <point x="74" y="426" type="curve" smooth="yes"/>
      <point x="70" y="403"/>
      <point x="89" y="384"/>
      <point x="116" y="384" type="curve" smooth="yes"/>
      <point x="139" y="384"/>
      <point x="158" y="403"/>
      <point x="158" y="426" type="curve" smooth="yes"/>
      <point x="158" y="449"/>
      <point x="139" y="468"/>
    </contour>
    <contour>
      <point x="146" y="284" type="curve"/>
      <point x="86" y="276" type="line"/>
      <point x="88" y="142"/>
      <point x="79" y="-14"/>
      <point x="63" y="-170" type="curve"/>
      <point x="171" y="-158" type="line"/>
      <point x="154" y="-6"/>
      <point x="149" y="154"/>
    </contour>
  </outline>
</glyph>
<glyph name="cent" format="2">
  <advance width="603"/>
  <unicode hex="00A2"/>
  <anchor x="343" y="75" name="bottom"/>
  <anchor x="343" y="575" name="top"/>
  <outline>
    <contour>
      <point x="343" y="58" type="curve" smooth="yes"/>
      <point x="398" y="58"/>
      <point x="469" y="75"/>
      <point x="510" y="101" type="curve"/>
      <point x="526" y="168"/>
      <point x="541" y="239"/>
      <point x="540" y="246" type="curve"/>
      <point x="498" y="245" type="line"/>
      <point x="484" y="167"/>
      <point x="424" y="110"/>
      <point x="356" y="110" type="curve" smooth="yes"/>
      <point x="250" y="110"/>
      <point x="168" y="207"/>
      <point x="168" y="347" type="curve" smooth="yes"/>
      <point x="168" y="462"/>
      <point x="248" y="544"/>
      <point x="351" y="544" type="curve" smooth="yes"/>
      <point x="420" y="544"/>
      <point x="468" y="497"/>
      <point x="467" y="427" type="curve"/>
      <point x="506" y="427" type="line"/>
      <point x="506" y="465"/>
      <point x="512" y="523"/>
      <point x="518" y="563" type="curve"/>
      <point x="482" y="580"/>
      <point x="408" y="592"/>
      <point x="343" y="592" type="curve" smooth="yes"/>
      <point x="190" y="592"/>
      <point x="84" y="482"/>
      <point x="84" y="328" type="curve" smooth="yes"/>
      <point x="84" y="171"/>
      <point x="190" y="58"/>
    </contour>
    <contour>
      <point x="305" y="-134" type="line"/>
      <point x="345" y="-134" type="line"/>
      <point x="345" y="766" type="line"/>
      <point x="305" y="766" type="line"/>
    </contour>
  </outline>
</glyph>
<glyph name="sterling" format="2">
  <advance width="495"/>
  <unicode hex="00A3"/>
  <outline>
    <contour>
      <point x="47" y="-2" type="line"/>
      <point x="179" y="6"/>
      <point x="365" y="8"/>
      <point x="436" y="0" type="curve"/>
      <point x="474" y="105" type="line"/>
      <point x="465" y="109" type="line"/>
      <point x="407" y="81"/>
      <point x="320" y="50"/>
      <point x="120" y="82" type="curve"/>
      <point x="301" y="310"/>
      <point x="110" y="436"/>
      <point x="160" y="521" type="curve" smooth="yes"/>
      <point x="226" y="634"/>
      <point x="343" y="584"/>
      <point x="378" y="489" type="curve"/>
      <point x="464" y="534" type="line"/>
      <point x="410" y="603"/>
      <point x="378" y="628"/>
      <point x="309" y="628" type="curve" smooth="yes"/>
      <point x="229" y="628"/>
      <point x="147" y="605"/>
      <point x="103" y="527" type="curve" smooth="yes"/>
      <point x="31" y="401"/>
      <point x="207" y="260"/>
      <point x="40" y="13" type="curve"/>
    </contour>
    <contour>
      <point x="21" y="275" type="line"/>
      <point x="348" y="275" type="line"/>
      <point x="348" y="348" type="line"/>
      <point x="21" y="330" type="line"/>
    </contour>
  </outline>
</glyph>
<glyph name="currency" format="2">
  <advance width="498"/>
  <unicode hex="00A4"/>
  <outline>
    <contour>
      <point x="77" y="97" type="line"/>
      <point x="140" y="159" type="line"/>
      <point x="203" y="110"/>
      <point x="294" y="110"/>
      <point x="359" y="160" type="curve"/>
      <point x="421" y="98" type="line"/>
      <point x="456" y="133" type="line"/>
      <point x="394" y="195" type="line"/>
      <point x="446" y="262"/>
      <point x="446" y="357"/>
      <point x="394" y="426" type="curve"/>
      <point x="456" y="488" type="line"/>
      <point x="421" y="523" type="line"/>
      <point x="359" y="461" type="line"/>
      <point x="294" y="511"/>
      <point x="203" y="511"/>
      <point x="138" y="461" type="curve"/>
      <point x="77" y="522" type="line"/>
      <point x="42" y="487" type="line"/>
      <point x="104" y="426" type="line"/>
      <point x="51" y="358"/>
      <point x="51" y="261"/>
      <point x="104" y="194" type="curve"/>
      <point x="42" y="132" type="line"/>
    </contour>
    <contour>
      <point x="155" y="211" type="curve" smooth="yes"/>
      <point x="98" y="269"/>
      <point x="99" y="351"/>
      <point x="156" y="409" type="curve" smooth="yes"/>
      <point x="211" y="464"/>
      <point x="288" y="464"/>
      <point x="342" y="409" type="curve" smooth="yes"/>
      <point x="400" y="351"/>
      <point x="400" y="269"/>
      <point x="342" y="211" type="curve" smooth="yes"/>
      <point x="287" y="156"/>
      <point x="210" y="156"/>
    </contour>
  </outline>
</glyph>
<glyph name="brokenbar" format="2">
  <advance width="264"/>
  <unicode hex="00A6"/>
  <outline>
    <contour>
      <point x="105" y="310" type="line"/>
      <point x="159" y="310" type="line"/>
      <point x="159" y="693" type="line"/>
      <point x="105" y="693" type="line"/>
    </contour>
    <contour>
      <point x="105" y="-165" type="line"/>
      <point x="159" y="-165" type="line"/>
      <point x="159" y="218" type="line"/>
      <point x="105" y="218" type="line"/>
    </contour>
  </outline>
</glyph>
<glyph name="section" format="2">
  <advance width="540"/>
  <unicode hex="00A7"/>
  <outline>
    <contour>
      <point x="271" y="89" type="line"/>
      <point x="393" y="89"/>
      <point x="477" y="165"/>
      <point x="477" y="273" type="curve" smooth="yes"/>
      <point x="477" y="424"/>
      <point x="178" y="429"/>
      <point x="180" y="555" type="curve" smooth="yes"/>
      <point x="181" y="602"/>
      <point x="231" y="636"/>
      <point x="297" y="636" type="curve" smooth="yes"/>
      <point x="354" y="636"/>
      <point x="389" y="558"/>
      <point x="384" y="499" type="curve"/>
      <point x="423" y="499" type="line"/>
      <point x="422" y="536"/>
      <point x="424" y="618"/>
      <point x="427" y="646" type="curve"/>
      <point x="385" y="663"/>
      <point x="325" y="675"/>
      <point x="297" y="675" type="curve" smooth="yes"/>
      <point x="191" y="675"/>
      <point x="113" y="607"/>
      <point x="113" y="510" type="curve" smooth="yes"/>
      <point x="113" y="351"/>
      <point x="408" y="366"/>
      <point x="408" y="235" type="curve" smooth="yes"/>
      <point x="408" y="166"/>
      <point x="348" y="122"/>
      <point x="261" y="129" type="curve"/>
    </contour>
    <contour>
      <point x="270" y="404" type="line"/>
      <point x="151" y="404"/>
      <point x="63" y="327"/>
      <point x="63" y="219" type="curve" smooth="yes"/>
      <point x="63" y="68"/>
      <point x="363" y="63"/>
      <point x="360" y="-63" type="curve" smooth="yes"/>
      <point x="359" y="-111"/>
      <point x="309" y="-145"/>
      <point x="244" y="-145" type="curve" smooth="yes"/>
      <point x="189" y="-145"/>
      <point x="151" y="-67"/>
      <point x="157" y="-8" type="curve"/>
      <point x="116" y="-8" type="line"/>
      <point x="117" y="-67"/>
      <point x="116" y="-149"/>
      <point x="113" y="-155" type="curve"/>
      <point x="155" y="-172"/>
      <point x="217" y="-184"/>
      <point x="244" y="-184" type="curve" smooth="yes"/>
      <point x="351" y="-184"/>
      <point x="429" y="-116"/>
      <point x="429" y="-19" type="curve" smooth="yes"/>
      <point x="429" y="140"/>
      <point x="134" y="125"/>
      <point x="134" y="257" type="curve" smooth="yes"/>
      <point x="134" y="326"/>
      <point x="197" y="369"/>
      <point x="281" y="362" type="curve"/>
    </contour>
  </outline>
</glyph>
<glyph name="logicalnot" format="2">
  <advance width="612"/>
  <unicode hex="00AC"/>
  <outline>
    <contour>
      <point x="499" y="39" type="line"/>
      <point x="549" y="39" type="line"/>
      <point x="549" y="310" type="line"/>
      <point x="63" y="310" type="line"/>
      <point x="63" y="260" type="line"/>
      <point x="499" y="260" type="line"/>
    </contour>
  </outline>
</glyph>
<glyph name="registered" format="2">
  <advance width="605"/>
  <unicode hex="00AE"/>
  <anchor x="350.21029999999996" y="364.0" name="bottom"/>
  <anchor x="280.70640000000003" y="636.7031999999999" name="top"/>
  <outline>
    <contour>
      <point x="303" y="228" type="curve" smooth="yes"/>
      <point x="446" y="228"/>
      <point x="563" y="345"/>
      <point x="563" y="489" type="curve" smooth="yes"/>
      <point x="563" y="632"/>
      <point x="446" y="749"/>
      <point x="303" y="749" type="curve" smooth="yes"/>
      <point x="159" y="749"/>
      <point x="42" y="632"/>
      <point x="42" y="489" type="curve" smooth="yes"/>
      <point x="42" y="345"/>
      <point x="159" y="228"/>
    </contour>
    <contour>
      <point x="303" y="264" type="curve" smooth="yes"/>
      <point x="179" y="264"/>
      <point x="77" y="365"/>
      <point x="77" y="489" type="curve" smooth="yes"/>
      <point x="77" y="612"/>
      <point x="179" y="714"/>
      <point x="303" y="714" type="curve" smooth="yes"/>
      <point x="426" y="714"/>
      <point x="527" y="612"/>
      <point x="527" y="489" type="curve" smooth="yes"/>
      <point x="527" y="365"/>
      <point x="426" y="264"/>
    </contour>
    <component base="R" xScale="0.4427" yScale="0.4427" xOffset="178" yOffset="364"/>
  </outline>
</glyph>
<glyph name="degree" format="2">
  <advance width="354"/>
  <unicode hex="00B0"/>
  <outline>
    <contour>
      <point x="177" y="421" type="curve" smooth="yes"/>
      <point x="257" y="421"/>
      <point x="312" y="478"/>
      <point x="312" y="558" type="curve" smooth="yes"/>
      <point x="312" y="638"/>
      <point x="257" y="694"/>
      <point x="177" y="694" type="curve" smooth="yes"/>
      <point x="97" y="694"/>
      <point x="42" y="638"/>
      <point x="42" y="558" type="curve" smooth="yes"/>
      <point x="42" y="478"/>
      <point x="97" y="421"/>
    </contour>
    <contour>
      <point x="177" y="461" type="curve" smooth="yes"/>
      <point x="121" y="461"/>
      <point x="82" y="501"/>
      <point x="82" y="558" type="curve" smooth="yes"/>
      <point x="82" y="614"/>
      <point x="121" y="654"/>
      <point x="177" y="654" type="curve" smooth="yes"/>
      <point x="233" y="654"/>
      <point x="272" y="614"/>
      <point x="272" y="558" type="curve" smooth="yes"/>
      <point x="272" y="501"/>
      <point x="233" y="461"/>
    </contour>
  </outline>
</glyph>
<glyph name="plusminus" format="2">
  <advance width="612"/>
  <unicode hex="00B1"/>
  <outline>
    <contour>
      <point x="280" y="172" type="line"/>
      <point x="330" y="172" type="line"/>
      <point x="330" y="327" type="line"/>
      <point x="549" y="327" type="line"/>
      <point x="549" y="377" type="line"/>
      <point x="330" y="377" type="line"/>
      <point x="330" y="528" type="line"/>
      <point x="280" y="528" type="line"/>
      <point x="280" y="377" type="line"/>
      <point x="63" y="377" type="line"/>
      <point x="63" y="327" type="line"/>
      <point x="280" y="327" type="line"/>
    </contour>
    <contour>
      <point x="68" y="41" type="line"/>
      <point x="544" y="41" type="line"/>
      <point x="544" y="91" type="line"/>
      <point x="68" y="91" type="line"/>
    </contour>
  </outline>
</glyph>
<glyph name="paragraph" format="2">
  <advance width="537"/>
  <unicode hex="00B6"/>
  <outline>
    <contour>
      <point x="215" y="-232" type="curve" smooth="yes"/>
      <point x="237" y="-232"/>
      <point x="273" y="-213"/>
      <point x="301" y="-187" type="curve" smooth="yes"/>
      <point x="364" y="-127"/>
      <point x="407" y="15"/>
      <point x="405" y="148" type="curve" smooth="yes"/>
      <point x="403" y="310" type="line"/>
      <point x="405" y="519" type="line" smooth="yes"/>
      <point x="405" y="547"/>
      <point x="416" y="569"/>
      <point x="432" y="577" type="curve" smooth="yes"/>
      <point x="439" y="581"/>
      <point x="457" y="585"/>
      <point x="495" y="590" type="curve"/>
      <point x="495" y="616" type="line"/>
      <point x="456" y="620"/>
      <point x="403" y="623"/>
      <point x="367" y="623" type="curve" smooth="yes"/>
      <point x="184" y="623"/>
      <point x="63" y="533"/>
      <point x="63" y="383" type="curve" smooth="yes"/>
      <point x="63" y="255"/>
      <point x="166" y="148"/>
      <point x="327" y="141" type="curve"/>
      <point x="327" y="81" type="line" smooth="yes"/>
      <point x="327" y="4"/>
      <point x="321" y="-74"/>
      <point x="313" y="-101" type="curve"/>
      <point x="313" y="-100" type="line"/>
      <point x="303" y="-133"/>
      <point x="284" y="-157"/>
      <point x="267" y="-157" type="curve" smooth="yes"/>
      <point x="248" y="-158"/>
      <point x="246" y="-135"/>
      <point x="227" y="-134" type="curve" smooth="yes"/>
      <point x="194" y="-134"/>
      <point x="171" y="-163"/>
      <point x="171" y="-203" type="curve" smooth="yes"/>
      <point x="171" y="-220"/>
      <point x="189" y="-232"/>
    </contour>
    <contour>
      <point x="327" y="177" type="curve"/>
      <point x="311" y="178"/>
      <point x="283" y="180"/>
      <point x="278" y="182" type="curve"/>
      <point x="278" y="582" type="line"/>
      <point x="289" y="585"/>
      <point x="317" y="585"/>
      <point x="328" y="585" type="curve"/>
      <point x="328" y="570"/>
      <point x="327" y="291"/>
    </contour>
  </outline>
</glyph>
<glyph name="periodcentered" format="2">
  <advance width="252"/>
  <unicode hex="00B7"/>
  <outline>
    <contour>
      <point x="126" y="199" type="curve" smooth="yes"/>
      <point x="163" y="199"/>
      <point x="189" y="225"/>
      <point x="189" y="262" type="curve" smooth="yes"/>
      <point x="189" y="299"/>
      <point x="163" y="325"/>
      <point x="126" y="325" type="curve" smooth="yes"/>
      <point x="89" y="325"/>
      <point x="63" y="299"/>
      <point x="63" y="262" type="curve" smooth="yes"/>
      <point x="63" y="225"/>
      <point x="89" y="199"/>
    </contour>
  </outline>
</glyph>
<glyph name="questiondown" format="2">
  <advance width="417"/>
  <unicode hex="00BF"/>
  <outline>
    <contour>
      <point x="211" y="284" type="curve" smooth="yes"/>
      <point x="202" y="284"/>
      <point x="169" y="270"/>
      <point x="130" y="251" type="curve"/>
      <point x="132" y="238" type="line"/>
      <point x="164" y="237" type="line" smooth="yes"/>
      <point x="189" y="236"/>
      <point x="207" y="218"/>
      <point x="207" y="194" type="curve" smooth="yes"/>
      <point x="207" y="107"/>
      <point x="65" y="108"/>
      <point x="63" y="-12" type="curve"/>
      <point x="63" y="-73"/>
      <point x="106" y="-117"/>
      <point x="167" y="-117" type="curve" smooth="yes"/>
      <point x="196" y="-117"/>
      <point x="240" y="-100"/>
      <point x="279" y="-76" type="curve" smooth="yes"/>
      <point x="311" y="-54"/>
      <point x="333" y="-17"/>
      <point x="333" y="14" type="curve" smooth="yes"/>
      <point x="333" y="45"/>
      <point x="261" y="31"/>
      <point x="261" y="0" type="curve" smooth="yes"/>
      <point x="261" y="-16"/>
      <point x="268" y="-12"/>
      <point x="268" y="-27" type="curve" smooth="yes"/>
      <point x="268" y="-54"/>
      <point x="245" y="-73"/>
      <point x="217" y="-73" type="curve" smooth="yes"/>
      <point x="167" y="-73"/>
      <point x="138" y="-46"/>
      <point x="139" y="-6" type="curve" smooth="yes"/>
      <point x="144" y="137"/>
      <point x="279" y="137"/>
      <point x="279" y="221" type="curve" smooth="yes"/>
      <point x="279" y="258"/>
      <point x="247" y="284"/>
    </contour>
    <contour>
      <point x="202" y="460" type="curve" smooth="yes"/>
      <point x="180" y="460"/>
      <point x="162" y="442"/>
      <point x="162" y="420" type="curve" smooth="yes"/>
      <point x="162" y="398"/>
      <point x="180" y="380"/>
      <point x="202" y="380" type="curve" smooth="yes"/>
      <point x="224" y="380"/>
      <point x="242" y="398"/>
      <point x="242" y="420" type="curve" smooth="yes"/>
      <point x="242" y="442"/>
      <point x="224" y="460"/>
    </contour>
  </outline>
</glyph>
<glyph name="multiply" format="2">
  <advance width="618"/>
  <unicode hex="00D7"/>
  <outline>
    <contour>
      <point x="126" y="93" type="line"/>
      <point x="307" y="242" type="line"/>
      <point x="494" y="89" type="line"/>
      <point x="534" y="128" type="line"/>
      <point x="347" y="281" type="line"/>
      <point x="531" y="431" type="line"/>
      <point x="491" y="470" type="line"/>
      <point x="308" y="321" type="line"/>
      <point x="123" y="472" type="line"/>
      <point x="84" y="432" type="line"/>
      <point x="268" y="281" type="line"/>
      <point x="86" y="132" type="line"/>
    </contour>
  </outline>
</glyph>
<glyph name="Oslash" format="2">
  <advance width="756"/>
  <unicode hex="00D8"/>
  <anchor x="378" y="0" name="bottom"/>
  <anchor x="378" y="616" name="top"/>
  <anchor x="387" y="308" name="center"/>
  <anchor x="537" y="10" name="ogonek"/>
  <anchor x="29" y="616" name="topleft"/>
  <anchor x="583" y="485" name="topright"/>
  <outline>
    <contour>
      <point x="647" y="606" type="line"/>
      <point x="79" y="38" type="line"/>
      <point x="107" y="10" type="line"/>
      <point x="675" y="578" type="line"/>
    </contour>
    <component base="O"/>
  </outline>
</glyph>
<glyph name="Thorn" format="2">
  <advance width="507"/>
  <unicode hex="00DE"/>
  <anchor x="270" y="0" name="bottom"/>
  <anchor x="270" y="616" name="top"/>
  <outline>
    <contour>
      <point x="36" y="0" type="line"/>
      <point x="288" y="0" type="line"/>
      <point x="288" y="25" type="line"/>
      <point x="255" y="36"/>
      <point x="234" y="39"/>
      <point x="222" y="51" type="curve" smooth="yes"/>
      <point x="213" y="60"/>
      <point x="208" y="81"/>
      <point x="208" y="111" type="curve" smooth="yes"/>
      <point x="208" y="113"/>
      <point x="206" y="302"/>
      <point x="209" y="506" type="curve" smooth="yes"/>
      <point x="209" y="532"/>
      <point x="213" y="556"/>
      <point x="222" y="567" type="curve" smooth="yes"/>
      <point x="233" y="581"/>
      <point x="275" y="586"/>
      <point x="306" y="591" type="curve"/>
      <point x="306" y="616" type="line"/>
      <point x="36" y="616" type="line"/>
      <point x="36" y="591" type="line"/>
      <point x="79" y="580"/>
      <point x="101" y="576"/>
      <point x="112" y="565" type="curve" smooth="yes"/>
      <point x="121" y="556"/>
      <point x="125" y="538"/>
      <point x="126" y="505" type="curve" smooth="yes"/>
      <point x="126" y="474"/>
      <point x="127" y="156"/>
      <point x="125" y="101" type="curve" smooth="yes"/>
      <point x="124" y="75"/>
      <point x="121" y="60"/>
      <point x="112" y="49" type="curve" smooth="yes"/>
      <point x="101" y="35"/>
      <point x="59" y="30"/>
      <point x="36" y="25" type="curve"/>
    </contour>
    <contour>
      <point x="269" y="140" type="curve" smooth="yes"/>
      <point x="398" y="140"/>
      <point x="486" y="206"/>
      <point x="486" y="317" type="curve" smooth="yes"/>
      <point x="486" y="421"/>
      <point x="409" y="489"/>
      <point x="297" y="487" type="curve"/>
      <point x="278" y="453" type="line"/>
      <point x="352" y="453"/>
      <point x="400" y="397"/>
      <point x="400" y="305" type="curve" smooth="yes"/>
      <point x="400" y="215"/>
      <point x="337" y="164"/>
      <point x="238" y="164" type="curve"/>
      <point x="238" y="141" type="line"/>
      <point x="249" y="140"/>
      <point x="259" y="140"/>
    </contour>
    <contour>
      <point x="175" y="452" type="line"/>
      <point x="278" y="453" type="line"/>
      <point x="297" y="487" type="line"/>
      <point x="175" y="486" type="line"/>
    </contour>
  </outline>
</glyph>
<glyph name="germandbls" format="2">
  <advance width="519"/>
  <unicode hex="00DF"/>
  <anchor x="264" y="0" name="bottom"/>
  <anchor x="264" y="694" name="top"/>
  <outline>
    <contour>
      <point x="30" y="0" type="line"/>
      <point x="161" y="0" type="line"/>
      <point x="159" y="69" type="line" smooth="yes"/>
      <point x="155" y="188"/>
      <point x="155" y="367"/>
      <point x="158" y="499" type="curve" smooth="yes"/>
      <point x="160" y="574"/>
      <point x="198" y="627"/>
      <point x="241" y="627" type="curve"/>
      <point x="278" y="665" type="line"/>
      <point x="172" y="665"/>
      <point x="88" y="583"/>
      <point x="85" y="467" type="curve" smooth="yes"/>
      <point x="83" y="392"/>
      <point x="84" y="238"/>
      <point x="84" y="69" type="curve" smooth="yes"/>
      <point x="84" y="46"/>
      <point x="68" y="35"/>
      <point x="30" y="18" type="curve"/>
    </contour>
    <contour>
      <point x="349" y="-6" type="curve" smooth="yes"/>
      <point x="426" y="-6"/>
      <point x="498" y="47"/>
      <point x="498" y="129" type="curve" smooth="yes"/>
      <point x="498" y="247"/>
      <point x="313" y="261"/>
      <point x="313" y="339" type="curve" smooth="yes"/>
      <point x="313" y="430"/>
      <point x="421" y="394"/>
      <point x="414" y="550" type="curve" smooth="yes"/>
      <point x="411" y="613"/>
      <point x="356" y="665"/>
      <point x="278" y="665" type="curve"/>
      <point x="241" y="627" type="line"/>
      <point x="300" y="627"/>
      <point x="340" y="580"/>
      <point x="343" y="524" type="curve" smooth="yes"/>
      <point x="350" y="388"/>
      <point x="244" y="420"/>
      <point x="244" y="309" type="curve" smooth="yes"/>
      <point x="244" y="189"/>
      <point x="427" y="194"/>
      <point x="427" y="103" type="curve" smooth="yes"/>
      <point x="427" y="50"/>
      <point x="385" y="19"/>
      <point x="352" y="22" type="curve" smooth="yes"/>
      <point x="314" y="25"/>
      <point x="274" y="64"/>
      <point x="268" y="122" type="curve"/>
      <point x="241" y="122" type="line"/>
      <point x="245" y="110"/>
      <point x="246" y="62"/>
      <point x="244" y="6" type="curve"/>
      <point x="276" y="-3"/>
      <point x="324" y="-6"/>
    </contour>
    <contour>
      <point x="11" y="349" type="line"/>
      <point x="139" y="334" type="line"/>
      <point x="139" y="389" type="line"/>
      <point x="80" y="384" type="line"/>
      <point x="11" y="359" type="line"/>
    </contour>
  </outline>
</glyph>
<glyph name="divide" format="2">
  <advance width="612"/>
  <unicode hex="00F7"/>
  <outline>
    <contour>
      <point x="63" y="256" type="line"/>
      <point x="549" y="256" type="line"/>
      <point x="549" y="306" type="line"/>
      <point x="63" y="306" type="line"/>
    </contour>
    <contour>
      <point x="300" y="56" type="curve" smooth="yes"/>
      <point x="333" y="56"/>
      <point x="350" y="73"/>
      <point x="350" y="107" type="curve" smooth="yes"/>
      <point x="350" y="141"/>
      <point x="333" y="158"/>
      <point x="300" y="158" type="curve" smooth="yes"/>
      <point x="265" y="158"/>
      <point x="248" y="141"/>
      <point x="248" y="107" type="curve" smooth="yes"/>
      <point x="248" y="73"/>
      <point x="265" y="56"/>
    </contour>
    <contour>
      <point x="300" y="398" type="curve" smooth="yes"/>
      <point x="333" y="398"/>
      <point x="350" y="415"/>
      <point x="350" y="449" type="curve" smooth="yes"/>
      <point x="350" y="483"/>
      <point x="333" y="500"/>
      <point x="300" y="500" type="curve" smooth="yes"/>
      <point x="265" y="500"/>
      <point x="248" y="483"/>
      <point x="248" y="449" type="curve" smooth="yes"/>
      <point x="248" y="415"/>
      <point x="265" y="398"/>
    </contour>
  </outline>
</glyph>
<glyph name="thorn" format="2">
  <advance width="504"/>
  <unicode hex="00FE"/>
  <anchor x="255" y="0" name="bottom"/>
  <anchor x="255" y="694" name="top"/>
  <outline>
    <contour>
      <point x="383" y="174" type="curve"/>
      <point x="462" y="205" type="line"/>
      <point x="462" y="316"/>
      <point x="391" y="395"/>
      <point x="293" y="395" type="curve" smooth="yes"/>
      <point x="248" y="395"/>
      <point x="177" y="362"/>
      <point x="120" y="315" type="curve"/>
      <point x="120" y="296" type="line"/>
      <point x="158" y="319"/>
      <point x="211" y="335"/>
      <point x="248" y="335" type="curve" smooth="yes"/>
      <point x="326" y="335"/>
      <point x="383" y="268"/>
    </contour>
    <contour>
      <point x="30" y="-232" type="line"/>
      <point x="246" y="-232" type="line"/>
      <point x="246" y="-214" type="line"/>
      <point x="192" y="-204"/>
      <point x="156" y="-201"/>
      <point x="156" y="-164" type="curve" smooth="yes"/>
      <point x="156" y="316" type="line"/>
      <point x="155" y="316" type="line"/>
      <point x="156" y="660" type="line"/>
      <point x="143" y="668" type="line"/>
      <point x="12" y="628" type="line"/>
      <point x="12" y="607" type="line"/>
      <point x="59" y="592"/>
      <point x="84" y="575"/>
      <point x="84" y="564" type="curve" smooth="yes"/>
      <point x="84" y="-164" type="line" smooth="yes"/>
      <point x="84" y="-197"/>
      <point x="68" y="-200"/>
      <point x="30" y="-214" type="curve"/>
    </contour>
    <contour>
      <point x="462" y="205" type="curve"/>
      <point x="383" y="174" type="line"/>
      <point x="383" y="87"/>
      <point x="327" y="26"/>
      <point x="249" y="26" type="curve" smooth="yes"/>
      <point x="206" y="26"/>
      <point x="155" y="64"/>
      <point x="130" y="117" type="curve"/>
      <point x="104" y="28" type="line"/>
      <point x="136" y="5"/>
      <point x="188" y="-11"/>
      <point x="228" y="-11" type="curve" smooth="yes"/>
      <point x="365" y="-11"/>
      <point x="462" y="78"/>
    </contour>
  </outline>
</glyph>
<glyph name="Dcroat" format="2">
  <advance width="702"/>
  <unicode hex="0110"/>
  <anchor x="302" y="0" name="bottom"/>
  <anchor x="194" y="308" name="center"/>
  <anchor x="301" y="616" name="top"/>
  <outline>
    <contour>
      <point x="27" y="305" type="line"/>
      <point x="43" y="260" type="line"/>
      <point x="270" y="343" type="line"/>
      <point x="255" y="388" type="line"/>
    </contour>
    <component base="D"/>
  </outline>
</glyph>
<glyph name="Hbar" format="2">
  <advance width="756"/>
  <unicode hex="0126"/>
  <anchor x="396" y="0" name="bottom"/>
  <anchor x="396" y="462" name="center"/>
  <anchor x="396" y="616" name="top"/>
  <anchor x="38" y="616" name="topleft"/>
  <outline>
    <contour>
      <point x="55" y="509" type="line"/>
      <point x="55" y="464" type="line"/>
      <point x="703" y="464" type="line"/>
      <point x="703" y="509" type="line"/>
    </contour>
    <component base="H"/>
  </outline>
</glyph>
<glyph name="idotless" format="2">
  <advance width="270"/>
  <unicode hex="0131"/>
  <anchor x="135" y="0" name="bottom"/>
  <anchor x="234" y="0" name="ogonek"/>
  <anchor x="135" y="384" name="top"/>
  <outline>
    <contour>
      <point x="54" y="18" type="curve"/>
      <point x="54" y="0" type="line"/>
      <point x="234" y="0" type="line"/>
      <point x="234" y="18" type="line"/>
      <point x="195" y="32"/>
      <point x="180" y="39"/>
      <point x="180" y="68" type="curve" smooth="yes"/>
      <point x="180" y="148"/>
      <point x="178" y="234"/>
      <point x="180" y="314" type="curve" smooth="yes"/>
      <point x="182" y="393" type="line"/>
      <point x="166" y="403" type="line"/>
      <point x="36" y="362" type="line"/>
      <point x="36" y="341" type="line"/>
      <point x="64" y="333"/>
      <point x="104" y="320"/>
      <point x="105" y="298" type="curve" smooth="yes"/>
      <point x="109" y="223"/>
      <point x="109" y="143"/>
      <point x="105" y="68" type="curve" smooth="yes"/>
      <point x="103" y="39"/>
      <point x="88" y="32"/>
    </contour>
  </outline>
</glyph>
<glyph name="lslash" format="2">
  <advance width="216"/>
  <unicode hex="0142"/>
  <anchor x="121" y="0" name="bottom"/>
  <anchor x="121" y="192" name="center"/>
  <anchor x="121" y="640" name="top"/>
  <anchor x="173" y="694" name="topright"/>
  <outline>
    <contour>
      <point x="6" y="335" type="line"/>
      <point x="20" y="297" type="line"/>
      <point x="207" y="365" type="line"/>
      <point x="194" y="403" type="line"/>
    </contour>
    <component base="l"/>
  </outline>
</glyph>
<glyph name="oe" format="2">
  <advance width="738"/>
  <unicode hex="0153"/>
  <anchor x="369" y="0" name="bottom"/>
  <anchor x="369" y="384" name="top"/>
  <outline>
    <contour>
      <point x="243" y="-11" type="curve" smooth="yes"/>
      <point x="370" y="-11"/>
      <point x="451" y="75"/>
      <point x="451" y="196" type="curve" smooth="yes"/>
      <point x="451" y="313"/>
      <point x="370" y="395"/>
      <point x="243" y="395" type="curve" smooth="yes"/>
      <point x="121" y="395"/>
      <point x="35" y="308"/>
      <point x="35" y="185" type="curve" smooth="yes"/>
      <point x="35" y="70"/>
      <point x="121" y="-11"/>
    </contour>
    <contour>
      <point x="123" y="208" type="curve" smooth="yes"/>
      <point x="123" y="296"/>
      <point x="169" y="359"/>
      <point x="235" y="359" type="curve" smooth="yes"/>
      <point x="315" y="359"/>
      <point x="371" y="282"/>
      <point x="371" y="174" type="curve" smooth="yes"/>
      <point x="371" y="87"/>
      <point x="321" y="25"/>
      <point x="251" y="25" type="curve" smooth="yes"/>
      <point x="176" y="25"/>
      <point x="123" y="101"/>
    </contour>
    <contour>
      <point x="454" y="210" type="curve" smooth="yes"/>
      <point x="454" y="302"/>
      <point x="496" y="362"/>
      <point x="556" y="362" type="curve" smooth="yes"/>
      <point x="601" y="362"/>
      <point x="635" y="325"/>
      <point x="638" y="266" type="curve"/>
      <point x="431" y="260" type="line"/>
      <point x="427" y="231" type="line"/>
      <point x="707" y="225" type="line"/>
      <point x="719" y="239" type="line"/>
      <point x="719" y="330"/>
      <point x="657" y="395"/>
      <point x="570" y="395" type="curve" smooth="yes"/>
      <point x="458" y="395"/>
      <point x="379" y="309"/>
      <point x="379" y="188" type="curve" smooth="yes"/>
      <point x="379" y="71"/>
      <point x="450" y="-11"/>
      <point x="551" y="-11" type="curve" smooth="yes"/>
      <point x="613" y="-11"/>
      <point x="682" y="33"/>
      <point x="717" y="95" type="curve"/>
      <point x="699" y="108" type="line"/>
      <point x="676" y="75"/>
      <point x="624" y="52"/>
      <point x="572" y="52" type="curve" smooth="yes"/>
      <point x="503" y="52"/>
      <point x="454" y="117"/>
    </contour>
  </outline>
</glyph>
<glyph name="florin" format="2">
  <advance width="432"/>
  <unicode hex="0192"/>
  <outline>
    <contour>
      <point x="136" y="81" type="curve" smooth="yes"/>
      <point x="136" y="33"/>
      <point x="135" y="-90"/>
      <point x="104" y="-138" type="curve" smooth="yes"/>
      <point x="97" y="-150"/>
      <point x="87" y="-157"/>
      <point x="75" y="-157" type="curve" smooth="yes"/>
      <point x="56" y="-158"/>
      <point x="54" y="-135"/>
      <point x="35" y="-134" type="curve" smooth="yes"/>
      <point x="2" y="-134"/>
      <point x="-21" y="-163"/>
      <point x="-21" y="-205" type="curve" smooth="yes"/>
      <point x="-21" y="-220"/>
      <point x="-3" y="-232"/>
      <point x="23" y="-232" type="curve" smooth="yes"/>
      <point x="57" y="-232"/>
      <point x="112" y="-190"/>
      <point x="130" y="-164" type="curve" smooth="yes"/>
      <point x="177" y="-96"/>
      <point x="208" y="29"/>
      <point x="208" y="148" type="curve" smooth="yes"/>
      <point x="208" y="234"/>
      <point x="208" y="304"/>
      <point x="208" y="449" type="curve" smooth="yes"/>
      <point x="208" y="510"/>
      <point x="209" y="624"/>
      <point x="278" y="624" type="curve" smooth="yes"/>
      <point x="301" y="624"/>
      <point x="310" y="617"/>
      <point x="319" y="606" type="curve" smooth="yes"/>
      <point x="328" y="593"/>
      <point x="332" y="576"/>
      <point x="343" y="567" type="curve" smooth="yes"/>
      <point x="366" y="546"/>
      <point x="428" y="615"/>
      <point x="406" y="638" type="curve" smooth="yes"/>
      <point x="388" y="656"/>
      <point x="355" y="665"/>
      <point x="314" y="665" type="curve" smooth="yes"/>
      <point x="256" y="665"/>
      <point x="208" y="631"/>
      <point x="180" y="590" type="curve" smooth="yes"/>
      <point x="146" y="540"/>
      <point x="136" y="492"/>
      <point x="136" y="387" type="curve" smooth="yes"/>
      <point x="136" y="304"/>
      <point x="136" y="233"/>
    </contour>
    <contour>
      <point x="351" y="334" type="line"/>
      <point x="351" y="389" type="line"/>
      <point x="142" y="384" type="line"/>
      <point x="63" y="359" type="line"/>
      <point x="63" y="349" type="line"/>
    </contour>
  </outline>
</glyph>
<glyph name="jdotless" format="2">
  <advance width="252"/>
  <unicode hex="0237"/>
  <anchor x="126" y="-232" name="bottom"/>
  <anchor x="120" y="384" name="top"/>
  <outline>
    <contour>
      <point x="37" y="-224" type="curve" smooth="yes"/>
      <point x="48" y="-219"/>
      <point x="53" y="-216"/>
      <point x="75" y="-201" type="curve" smooth="yes"/>
      <point x="127" y="-164"/>
      <point x="162" y="-51"/>
      <point x="162" y="68" type="curve" smooth="yes"/>
      <point x="162" y="314" type="line"/>
      <point x="164" y="393" type="line"/>
      <point x="149" y="403" type="line"/>
      <point x="18" y="362" type="line"/>
      <point x="18" y="341" type="line"/>
      <point x="53" y="326"/>
      <point x="88" y="309"/>
      <point x="88" y="298" type="curve" smooth="yes"/>
      <point x="90" y="254"/>
      <point x="91" y="128"/>
      <point x="91" y="1" type="curve" smooth="yes"/>
      <point x="91" y="-87"/>
      <point x="75" y="-160"/>
      <point x="52" y="-178" type="curve"/>
      <point x="49" y="-179"/>
      <point x="45" y="-179"/>
      <point x="41" y="-179" type="curve" smooth="yes"/>
      <point x="37" y="-179"/>
      <point x="33" y="-179"/>
      <point x="30" y="-178" type="curve" smooth="yes"/>
      <point x="16" y="-174"/>
      <point x="21" y="-168"/>
      <point x="6" y="-164" type="curve" smooth="yes"/>
      <point x="-15" y="-158"/>
      <point x="-38" y="-191"/>
      <point x="-38" y="-212" type="curve" smooth="yes"/>
      <point x="-38" y="-221"/>
      <point x="-35" y="-228"/>
      <point x="-26" y="-230" type="curve" smooth="yes"/>
      <point x="-20" y="-231"/>
      <point x="-14" y="-232"/>
      <point x="-7" y="-232" type="curve" smooth="yes"/>
      <point x="8" y="-232"/>
      <point x="24" y="-230"/>
    </contour>
  </outline>
</glyph>
<glyph name="acutecomb" format="2">
  <unicode hex="0301"/>
  <anchor x="143" y="384" name="_top"/>
  <anchor x="143" y="628" name="top"/>
  <outline>
    <contour>
      <point x="66" y="473" type="line"/>
      <point x="81" y="462" type="line"/>
      <point x="218" y="584" type="line"/>
      <point x="224" y="591"/>
      <point x="208" y="604"/>
      <point x="192" y="617" type="curve" smooth="yes"/>
      <point x="173" y="629"/>
      <point x="157" y="632"/>
      <point x="152" y="624" type="curve"/>
    </contour>
  </outline>
</glyph>
<glyph name="ogonekcomb" format="2">
  <unicode hex="0328"/>
  <anchor x="262" y="2" name="_ogonek"/>
  <outline>
    <contour>
      <point x="179" y="-201" type="curve" smooth="yes"/>
      <point x="271" y="-201"/>
      <point x="277" y="-145"/>
      <point x="212" y="-145" type="curve" smooth="yes"/>
      <point x="179" y="-145"/>
      <point x="156" y="-128"/>
      <point x="156" y="-105" type="curve" smooth="yes"/>
      <point x="156" y="-89"/>
      <point x="174" y="-44"/>
      <point x="262" y="2" type="curve"/>
      <point x="218" y="2" type="line"/>
      <point x="122" y="-53"/>
      <point x="102" y="-112"/>
      <point x="102" y="-140" type="curve" smooth="yes"/>
      <point x="102" y="-176"/>
      <point x="134" y="-201"/>
    </contour>
  </outline>
</glyph>
<glyph name="Beta" format="2">
  <advance width="576"/>
  <unicode hex="0392"/>
  <outline>
    <contour>
      <point x="18" y="25" type="curve"/>
      <point x="18" y="0" type="line"/>
      <point x="309" y="0" type="line"/>
      <point x="309" y="40" type="line"/>
      <point x="264" y="40"/>
      <point x="223" y="34"/>
      <point x="204" y="50" type="curve" smooth="yes"/>
      <point x="195" y="58"/>
      <point x="185" y="73"/>
      <point x="185" y="91" type="curve" smooth="yes"/>
      <point x="185" y="307"/>
      <point x="185" y="377"/>
      <point x="185" y="574" type="curve"/>
      <point x="202" y="576"/>
      <point x="266" y="576"/>
      <point x="289" y="576" type="curve"/>
      <point x="289" y="616" type="line"/>
      <point x="18" y="616" type="line"/>
      <point x="18" y="591" type="line"/>
      <point x="54" y="586"/>
      <point x="78" y="582"/>
      <point x="92" y="572" type="curve" smooth="yes"/>
      <point x="102" y="565"/>
      <point x="107" y="552"/>
      <point x="107" y="525" type="curve" smooth="yes"/>
      <point x="108" y="341"/>
      <point x="109" y="253"/>
      <point x="109" y="312" type="curve" smooth="yes"/>
      <point x="109" y="373"/>
      <point x="108" y="282"/>
      <point x="107" y="91" type="curve" smooth="yes"/>
      <point x="107" y="65"/>
      <point x="101" y="51"/>
      <point x="92" y="43" type="curve" smooth="yes"/>
      <point x="76" y="29"/>
      <point x="50" y="31"/>
    </contour>
    <contour>
      <point x="151" y="318" type="line"/>
      <point x="177" y="318"/>
      <point x="189" y="318"/>
      <point x="217" y="318" type="curve" smooth="yes"/>
      <point x="379" y="318"/>
      <point x="482" y="378"/>
      <point x="482" y="481" type="curve" smooth="yes"/>
      <point x="482" y="560"/>
      <point x="402" y="616"/>
      <point x="289" y="616" type="curve"/>
      <point x="289" y="576" type="line"/>
      <point x="350" y="576"/>
      <point x="393" y="529"/>
      <point x="393" y="462" type="curve" smooth="yes"/>
      <point x="393" y="387"/>
      <point x="324" y="348"/>
      <point x="210" y="348" type="curve" smooth="yes"/>
      <point x="150" y="348" type="line"/>
    </contour>
    <contour>
      <point x="309" y="0" type="line"/>
      <point x="434" y="0"/>
      <point x="522" y="79"/>
      <point x="522" y="191" type="curve" smooth="yes"/>
      <point x="522" y="280"/>
      <point x="437" y="333"/>
      <point x="316" y="338" type="curve" smooth="yes"/>
      <point x="132" y="346" type="line"/>
      <point x="132" y="314" type="line"/>
      <point x="154" y="314"/>
      <point x="166" y="314"/>
      <point x="203" y="314" type="curve" smooth="yes"/>
      <point x="338" y="314"/>
      <point x="431" y="263"/>
      <point x="431" y="171" type="curve" smooth="yes"/>
      <point x="431" y="94"/>
      <point x="379" y="40"/>
      <point x="309" y="40" type="curve"/>
    </contour>
  </outline>
</glyph>
<glyph name="Delta" format="2">
  <advance width="610"/>
  <unicode hex="0394"/>
  <unicode hex="2206"/>
  <outline>
    <contour>
      <point x="474" y="0" type="line"/>
      <point x="568" y="0" type="line"/>
      <point x="498" y="176"/>
      <point x="376" y="484"/>
      <point x="311" y="648" type="curve"/>
      <point x="271" y="576" type="line"/>
      <point x="264" y="550" type="line"/>
    </contour>
    <contour>
      <point x="42" y="0" type="curve"/>
      <point x="97" y="0" type="line"/>
      <point x="304" y="564" type="line"/>
      <point x="271" y="576" type="line"/>
      <point x="209" y="412"/>
      <point x="105" y="127"/>
    </contour>
    <contour>
      <point x="64" y="0" type="line"/>
      <point x="534" y="0" type="line"/>
      <point x="520" y="58" type="line"/>
      <point x="81" y="58" type="line"/>
    </contour>
  </outline>
</glyph>
<glyph name="Omega" format="2">
  <advance width="688"/>
  <unicode hex="03A9"/>
  <unicode hex="2126"/>
  <anchor x="344" y="0" name="bottom"/>
  <anchor x="-14" y="616" name="topleft"/>
  <outline>
    <contour>
      <point x="409" y="37" type="curve"/>
      <point x="409" y="0" type="line"/>
      <point x="464" y="1"/>
      <point x="568" y="0"/>
      <point x="661" y="-3" type="curve"/>
      <point x="659" y="55"/>
      <point x="661" y="114"/>
      <point x="667" y="139" type="curve"/>
      <point x="638" y="139" type="line"/>
      <point x="624" y="83"/>
      <point x="593" y="42"/>
      <point x="562" y="40" type="curve" smooth="yes"/>
      <point x="548" y="38"/>
      <point x="485" y="37"/>
    </contour>
    <contour>
      <point x="279" y="37" type="line"/>
      <point x="203" y="37"/>
      <point x="140" y="38"/>
      <point x="126" y="40" type="curve" smooth="yes"/>
      <point x="95" y="42"/>
      <point x="64" y="83"/>
      <point x="50" y="139" type="curve"/>
      <point x="21" y="139" type="line"/>
      <point x="27" y="114"/>
      <point x="29" y="55"/>
      <point x="27" y="-3" type="curve"/>
      <point x="120" y="0"/>
      <point x="224" y="1"/>
      <point x="279" y="0" type="curve"/>
    </contour>
    <contour>
      <point x="398" y="61" type="line"/>
      <point x="545" y="93"/>
      <point x="649" y="175"/>
      <point x="649" y="344" type="curve" smooth="yes"/>
      <point x="649" y="517"/>
      <point x="529" y="626"/>
      <point x="339" y="626" type="curve" smooth="yes"/>
      <point x="153" y="626"/>
      <point x="37" y="518"/>
      <point x="37" y="345" type="curve" smooth="yes"/>
      <point x="37" y="177"/>
      <point x="139" y="87"/>
      <point x="288" y="55" type="curve"/>
      <point x="290" y="116" type="line"/>
      <point x="199" y="152"/>
      <point x="133" y="221"/>
      <point x="133" y="354" type="curve" smooth="yes"/>
      <point x="133" y="496"/>
      <point x="206" y="585"/>
      <point x="323" y="585" type="curve" smooth="yes"/>
      <point x="464" y="585"/>
      <point x="553" y="488"/>
      <point x="553" y="334" type="curve" smooth="yes"/>
      <point x="553" y="189"/>
      <point x="486" y="133"/>
      <point x="398" y="117" type="curve"/>
    </contour>
    <contour>
      <point x="398" y="117" type="line"/>
      <point x="398" y="1" type="line"/>
      <point x="444" y="1" type="line"/>
      <point x="462" y="117" type="line"/>
    </contour>
    <contour>
      <point x="244" y="116" type="line"/>
      <point x="226" y="0" type="line"/>
      <point x="290" y="0" type="line"/>
      <point x="290" y="116" type="line"/>
    </contour>
  </outline>
</glyph>
<glyph name="gamma" format="2">
  <advance width="432"/>
  <unicode hex="03B3"/>
  <outline>
    <contour>
      <point x="143" y="-232" type="line"/>
      <point x="206" y="-232" type="line"/>
      <point x="212" y="-202"/>
      <point x="216" y="-139"/>
      <point x="216" y="-80" type="curve" smooth="yes"/>
      <point x="216" y="3"/>
      <point x="169" y="169"/>
      <point x="128" y="321" type="curve"/>
      <point x="112" y="394" type="line"/>
      <point x="99" y="403" type="line"/>
      <point x="-36" y="369" type="line"/>
      <point x="-36" y="351" type="line"/>
      <point x="15" y="345"/>
      <point x="44" y="344"/>
      <point x="56" y="301" type="curve" smooth="yes"/>
      <point x="97" y="149"/>
      <point x="144" y="-25"/>
      <point x="144" y="-120" type="curve" smooth="yes"/>
    </contour>
    <contour>
      <point x="157" y="-11" type="line"/>
      <point x="297" y="-11"/>
      <point x="396" y="127"/>
      <point x="396" y="321" type="curve" smooth="yes"/>
      <point x="396" y="394" type="line"/>
      <point x="383" y="403" type="line"/>
      <point x="249" y="369" type="line"/>
      <point x="249" y="351" type="line"/>
      <point x="291" y="351"/>
      <point x="321" y="330"/>
      <point x="320" y="301" type="curve" smooth="yes"/>
      <point x="314" y="143"/>
      <point x="261" y="31"/>
      <point x="192" y="31" type="curve"/>
    </contour>
  </outline>
</glyph>
<glyph name="eta" format="2">
  <advance width="487"/>
  <unicode hex="03B7"/>
  <anchor x="244" y="384" name="top"/>
  <outline>
    <contour>
      <point x="89" y="0" type="curve"/>
      <point x="162" y="0" type="line"/>
      <point x="162" y="315" type="line"/>
      <point x="164" y="315" type="line"/>
      <point x="165" y="397" type="line"/>
      <point x="150" y="403" type="line"/>
      <point x="18" y="362" type="line"/>
      <point x="18" y="341" type="line"/>
      <point x="46" y="333"/>
      <point x="86" y="319"/>
      <point x="89" y="298" type="curve" smooth="yes"/>
      <point x="91" y="284"/>
      <point x="89" y="61"/>
    </contour>
    <contour>
      <point x="341" y="-232" type="curve"/>
      <point x="404" y="-232" type="line"/>
      <point x="411" y="-193"/>
      <point x="415" y="-155"/>
      <point x="414" y="-116" type="curve"/>
      <point x="414" y="273" type="line" smooth="yes"/>
      <point x="414" y="355"/>
      <point x="382" y="395"/>
      <point x="312" y="395" type="curve" smooth="yes"/>
      <point x="262" y="395"/>
      <point x="205" y="365"/>
      <point x="139" y="305" type="curve"/>
      <point x="139" y="286" type="line"/>
      <point x="199" y="329"/>
      <point x="232" y="335"/>
      <point x="267" y="335" type="curve" smooth="yes"/>
      <point x="319" y="335"/>
      <point x="338" y="306"/>
      <point x="342" y="246" type="curve" smooth="yes"/>
      <point x="345" y="199"/>
      <point x="342" y="-21"/>
      <point x="342" y="-120" type="curve" smooth="yes"/>
      <point x="342" y="-157"/>
      <point x="342" y="-195"/>
    </contour>
  </outline>
</glyph>
<glyph name="mu" format="2">
  <advance width="530"/>
  <unicode hex="03BC"/>
  <outline>
    <contour>
      <point x="229" y="-11" type="curve" smooth="yes"/>
      <point x="273" y="-11"/>
      <point x="330" y="32"/>
      <point x="382" y="89" type="curve"/>
      <point x="382" y="108" type="line"/>
      <point x="350" y="75"/>
      <point x="301" y="49"/>
      <point x="264" y="49" type="curve" smooth="yes"/>
      <point x="213" y="49"/>
      <point x="175" y="77"/>
      <point x="173" y="145" type="curve" smooth="yes"/>
      <point x="171" y="201"/>
      <point x="175" y="265"/>
      <point x="176" y="321" type="curve" smooth="yes"/>
      <point x="178" y="394" type="line"/>
      <point x="165" y="403" type="line"/>
      <point x="30" y="369" type="line"/>
      <point x="30" y="351" type="line"/>
      <point x="78" y="337"/>
      <point x="104" y="332"/>
      <point x="104" y="301" type="curve" smooth="yes"/>
      <point x="105" y="111" type="line" smooth="yes"/>
      <point x="105" y="40"/>
      <point x="162" y="-11"/>
    </contour>
    <contour>
      <point x="101" y="-232" type="line"/>
      <point x="164" y="-232" type="line"/>
      <point x="171" y="-193"/>
      <point x="174" y="-119"/>
      <point x="174" y="-80" type="curve" smooth="yes"/>
      <point x="173" y="145" type="line"/>
      <point x="105" y="111" type="line"/>
      <point x="105" y="64"/>
      <point x="102" y="-21"/>
      <point x="102" y="-120" type="curve" smooth="yes"/>
    </contour>
    <contour>
      <point x="365" y="-11" type="line"/>
      <point x="498" y="17" type="line"/>
      <point x="498" y="38" type="line"/>
      <point x="465" y="41"/>
      <point x="424" y="55"/>
      <point x="424" y="76" type="curve" smooth="yes"/>
      <point x="427" y="321" type="line"/>
      <point x="429" y="394" type="line"/>
      <point x="416" y="403" type="line"/>
      <point x="282" y="369" type="line"/>
      <point x="282" y="351" type="line"/>
      <point x="328" y="337"/>
      <point x="351" y="331"/>
      <point x="353" y="301" type="curve" smooth="yes"/>
      <point x="358" y="219"/>
      <point x="355" y="146"/>
      <point x="350" y="64" type="curve"/>
      <point x="353" y="64" type="line"/>
      <point x="352" y="-5" type="line"/>
    </contour>
  </outline>
</glyph>
<glyph name="pi" format="2">
  <advance width="507"/>
  <unicode hex="03C0"/>
  <outline>
    <contour>
      <point x="395" y="-11" type="curve" smooth="yes"/>
      <point x="423" y="-11"/>
      <point x="451" y="5"/>
      <point x="486" y="27" type="curve"/>
      <point x="476" y="48" type="line"/>
      <point x="457" y="40"/>
      <point x="434" y="34"/>
      <point x="422" y="34" type="curve" smooth="yes"/>
      <point x="392" y="34"/>
      <point x="388" y="52"/>
      <point x="386" y="78" type="curve" smooth="yes"/>
      <point x="384" y="104"/>
      <point x="383" y="149"/>
      <point x="383" y="186" type="curve" smooth="yes"/>
      <point x="383" y="251"/>
      <point x="385" y="313"/>
      <point x="388" y="363" type="curve"/>
      <point x="315" y="381" type="line"/>
      <point x="308" y="222"/>
      <point x="307" y="83"/>
      <point x="311" y="46" type="curve" smooth="yes"/>
      <point x="315" y="13"/>
      <point x="350" y="-11"/>
    </contour>
    <contour>
      <point x="93" y="0" type="line"/>
      <point x="165" y="0" type="line"/>
      <point x="165" y="287" type="line"/>
      <point x="167" y="384" type="line"/>
      <point x="21" y="385" type="line"/>
      <point x="21" y="364" type="line"/>
      <point x="42" y="356"/>
      <point x="93" y="343"/>
      <point x="93" y="311" type="curve" smooth="yes"/>
    </contour>
    <contour>
      <point x="153" y="339" type="line"/>
      <point x="447" y="339" type="line"/>
      <point x="447" y="389" type="line"/>
      <point x="354" y="383"/>
      <point x="260" y="382"/>
      <point x="167" y="384" type="curve"/>
    </contour>
  </outline>
</glyph>
<glyph name="tau" format="2">
  <advance width="324"/>
  <unicode hex="03C4"/>
  <outline>
    <contour>
      <point x="176" y="-11" type="curve" smooth="yes"/>
      <point x="217" y="-11"/>
      <point x="271" y="5"/>
      <point x="306" y="27" type="curve"/>
      <point x="296" y="48" type="line"/>
      <point x="277" y="40"/>
      <point x="248" y="34"/>
      <point x="228" y="34" type="curve" smooth="yes"/>
      <point x="195" y="34"/>
      <point x="169" y="52"/>
      <point x="167" y="78" type="curve" smooth="yes"/>
      <point x="165" y="108"/>
      <point x="164" y="153"/>
      <point x="164" y="186" type="curve" smooth="yes"/>
      <point x="164" y="251"/>
      <point x="166" y="313"/>
      <point x="169" y="363" type="curve"/>
      <point x="96" y="381" type="line"/>
      <point x="90" y="237"/>
      <point x="86" y="98"/>
      <point x="92" y="46" type="curve" smooth="yes"/>
      <point x="96" y="13"/>
      <point x="131" y="-11"/>
    </contour>
    <contour>
      <point x="10" y="314" type="line"/>
      <point x="284" y="331" type="line"/>
      <point x="306" y="391" type="line"/>
      <point x="207" y="382"/>
      <point x="100" y="381"/>
      <point x="37" y="389" type="curve"/>
    </contour>
  </outline>
</glyph>
<glyph name="upsilon" format="2">
  <advance width="468"/>
  <unicode hex="03C5"/>
  <anchor x="234" y="384" name="top"/>
  <outline>
    <contour>
      <point x="148" y="394" type="curve"/>
      <point x="135" y="403" type="line"/>
      <point x="0" y="369" type="line"/>
      <point x="0" y="351" type="line"/>
      <point x="48" y="337"/>
      <point x="74" y="332"/>
      <point x="74" y="301" type="curve" smooth="yes"/>
      <point x="71" y="111" type="line" smooth="yes"/>
      <point x="70" y="40"/>
      <point x="128" y="-11"/>
      <point x="212" y="-11" type="curve" smooth="yes"/>
      <point x="319" y="-11"/>
      <point x="413" y="47"/>
      <point x="413" y="130" type="curve"/>
      <point x="339" y="118" type="line"/>
      <point x="339" y="64"/>
      <point x="290" y="26"/>
      <point x="247" y="26" type="curve" smooth="yes"/>
      <point x="188" y="26"/>
      <point x="145" y="75"/>
      <point x="143" y="145" type="curve" smooth="yes"/>
      <point x="143" y="179"/>
      <point x="144" y="252"/>
      <point x="146" y="321" type="curve" smooth="yes"/>
      <point x="146" y="345"/>
      <point x="148" y="370"/>
    </contour>
    <contour>
      <point x="416" y="394" type="line"/>
      <point x="403" y="403" type="line"/>
      <point x="269" y="369" type="line"/>
      <point x="269" y="351" type="line"/>
      <point x="315" y="337"/>
      <point x="338" y="331"/>
      <point x="340" y="301" type="curve" smooth="yes"/>
      <point x="342" y="262"/>
      <point x="343" y="186"/>
      <point x="339" y="118" type="curve"/>
      <point x="342" y="118" type="line"/>
      <point x="413" y="130" type="line"/>
      <point x="414" y="321" type="line"/>
    </contour>
  </outline>
</glyph>
<glyph name="chi" format="2">
  <advance width="396"/>
  <unicode hex="03C7"/>
  <outline>
    <contour>
      <point x="207" y="33" type="line"/>
      <point x="387" y="384" type="line"/>
      <point x="294" y="384" type="line"/>
      <point x="280" y="320"/>
      <point x="242" y="222"/>
      <point x="203" y="148" type="curve"/>
      <point x="220" y="123" type="line"/>
      <point x="125" y="323" type="line" smooth="yes"/>
      <point x="109" y="356"/>
      <point x="137" y="365"/>
      <point x="163" y="367" type="curve"/>
      <point x="163" y="384" type="line"/>
      <point x="-18" y="384" type="line"/>
      <point x="-18" y="365" type="line"/>
      <point x="23" y="355"/>
      <point x="37" y="336"/>
      <point x="51" y="307" type="curve" smooth="yes"/>
      <point x="181" y="44" type="line"/>
    </contour>
    <contour>
      <point x="350" y="-232" type="curve" smooth="yes"/>
      <point x="429" y="-232" type="line"/>
      <point x="429" y="-209" type="line"/>
      <point x="383" y="-206"/>
      <point x="378" y="-202"/>
      <point x="366" y="-177" type="curve" smooth="yes"/>
      <point x="220" y="126" type="line"/>
      <point x="197" y="132" type="line"/>
      <point x="-4" y="-245" type="line"/>
      <point x="69" y="-233" type="line"/>
      <point x="193" y="14" type="line"/>
      <point x="288" y="-178" type="line" smooth="yes"/>
      <point x="302" y="-206"/>
      <point x="312" y="-232"/>
    </contour>
  </outline>
</glyph>
<glyph name="psi" format="2">
  <advance width="594"/>
  <unicode hex="03C8"/>
  <outline>
    <contour>
      <point x="261" y="521" type="curve"/>
      <point x="261" y="212"/>
      <point x="259" y="-21"/>
      <point x="259" y="-120" type="curve" smooth="yes"/>
      <point x="258" y="-232" type="line"/>
      <point x="321" y="-232" type="line"/>
      <point x="328" y="-193"/>
      <point x="331" y="-119"/>
      <point x="331" y="-80" type="curve"/>
      <point x="330" y="349"/>
      <point x="332" y="485"/>
      <point x="333" y="541" type="curve" smooth="yes"/>
      <point x="335" y="614" type="line"/>
      <point x="322" y="623" type="line"/>
      <point x="187" y="589" type="line"/>
      <point x="187" y="571" type="line"/>
      <point x="235" y="557"/>
      <point x="261" y="552"/>
    </contour>
    <contour>
      <point x="140" y="394" type="curve"/>
      <point x="127" y="403" type="line"/>
      <point x="-8" y="369" type="line"/>
      <point x="-8" y="351" type="line"/>
      <point x="40" y="337"/>
      <point x="66" y="332"/>
      <point x="66" y="301" type="curve" smooth="yes"/>
      <point x="64" y="147" type="line" smooth="yes"/>
      <point x="62" y="54"/>
      <point x="160" y="-11"/>
      <point x="286" y="-11" type="curve" smooth="yes"/>
      <point x="435" y="-11"/>
      <point x="540" y="62"/>
      <point x="540" y="166" type="curve"/>
      <point x="466" y="154" type="line"/>
      <point x="466" y="79"/>
      <point x="406" y="26"/>
      <point x="321" y="26" type="curve" smooth="yes"/>
      <point x="220" y="26"/>
      <point x="137" y="90"/>
      <point x="135" y="181" type="curve" smooth="yes"/>
      <point x="135" y="202"/>
      <point x="136" y="260"/>
      <point x="138" y="321" type="curve" smooth="yes"/>
      <point x="138" y="345"/>
      <point x="140" y="370"/>
    </contour>
    <contour>
      <point x="545" y="394" type="line"/>
      <point x="532" y="403" type="line"/>
      <point x="398" y="369" type="line"/>
      <point x="398" y="351" type="line"/>
      <point x="444" y="337"/>
      <point x="467" y="331"/>
      <point x="469" y="301" type="curve" smooth="yes"/>
      <point x="472" y="250"/>
      <point x="470" y="189"/>
      <point x="466" y="154" type="curve"/>
      <point x="469" y="154" type="line"/>
      <point x="540" y="166" type="line"/>
      <point x="543" y="321" type="line"/>
    </contour>
  </outline>
</glyph>
